<ttFont>
<head>
    <!-- Most of this table will be recalculated by the compiler -->
    <tableVersion value="1.0"/>
    <fontRevision value="1.0"/>
    <checkSumAdjustment value="0xdf2cd6d0"/>
    <magicNumber value="0x5f0f3cf5"/>
    <flags value="00000000 00000011"/>
    <unitsPerEm value="2048"/>
    <created value="Thu Aug 15 19:15:51 2019"/>
    <modified value="Fri Aug 16 02:19:00 2019"/>
    <xMin value="-560"/>
    <yMin value="-506"/>
    <xMax value="3822"/>
    <yMax value="2077"/>
<macStyle value="00000000 00000010"/>
    <lowestRecPPEM value="3"/>
    <fontDirectionHint value="2"/>
    <indexToLocFormat value="0"/>
    <glyphDataFormat value="0"/>
  </head>
          <CharString index="0">
            -69 callsubr
            74 -65 133 hhcurveto
            return
          </CharString>
          <CharString index="1">
            385 -262 285 -440 -512 -324 -363 -465 -8 return
          </CharString>
          <CharString index="2">
            rmoveto
            -34 callsubr
            37 callsubr
            endchar
          </CharString>
          <CharString index="3">
            1847 rmoveto
            -175 return
          </CharString>
          <CharString index="4">
            rmoveto
            378 278 252 346 284 111 callsubr
            72 callsubr
            -79 callgsubr
            endchar
          </CharString>
          <CharString index="5">
            rmoveto
            -15 callsubr
            return
          </CharString>
          <CharString index="6">
            -241 130 callsubr
            98 175 73 92 callgsubr
            return
          </CharString>
          <CharString index="7">
            hvcurveto
            -58 callsubr
            -31 114 234 callsubr
          </CharString>
          <CharString index="8">
            rmoveto
            -250 125 -142 184 return
          </CharString>
          <CharString index="9">
            rmoveto
            109 88 83 100 -1 hvcurveto
            96 return
          </CharString>
          <CharString index="10">
            35 callsubr
            endchar
          </CharString>
          <CharString index="11">
            rmoveto
            -1176 hlineto
            -30 callsubr
            1226 0 -52 callsubr
            endchar
          </CharString>
          <CharString index="12">
            65 callsubr
            81 78 97 89 -70 71 -95 hvcurveto
            endchar
          </CharString>
          <CharString index="13">
            rmoveto
            46 callgsubr
            return
          </CharString>
          <CharString index="14">
            36 callsubr
            endchar
          </CharString>
          <CharString index="15">
            rmoveto
            359 215 219 364 80 hvcurveto
            129 582 38 166 22 30 123 23 rlinecurve
            19 87 -419 0 -19 -87 rlineto
            121 -26 15 -29 -31 -164 -113 -569 rcurveline
            -249 -50 -132 116 callsubr
            21 callgsubr
            endchar
          </CharString>
          <CharString index="16">
            rmoveto
            42 callsubr
            94 callsubr
            endchar
          </CharString>
          <CharString index="17">
            4 callsubr
            endchar
          </CharString>
          <CharString index="18">
            -165 -775 432 0 return
          </CharString>
          <CharString index="19">
            rmoveto
            -566 -62 -18 -84 50 -16 rlineto
            48 -19 11 -21 return
          </CharString>
          <CharString index="20">
            -317 90 0 491 308 rlineto
            9 vlineto
            return
          </CharString>
          <CharString index="21">
            -13 -64 -107 -498 24 callsubr
            -13 callsubr
            28 callsubr
            -32 -54 callsubr
            endchar
          </CharString>
          <CharString index="22">
            1544 rmoveto
            -202 -407 108 0 553 397 rlineto
            10 vlineto
            return
          </CharString>
          <CharString index="23">
            1563 rmoveto
            -295 -176 return
          </CharString>
          <CharString index="24">
            rmoveto
            166 -544 -84 -400 -19 -89 -26 -21 -129 -22 rlinecurve
            -19 -87 760 0 return
          </CharString>
          <CharString index="25">
            128 callsubr
            -83 84 -110 return
          </CharString>
          <CharString index="26">
            rmoveto
            -509 -60 -18 -87 35 -10 58 -20 11 -17 6 -58 rlinecurve
            100 -982 -104 -74 -213 -107 -134 -58 rlinecurve
            -29 414 vlineto
            50 70 56 69 61 70 rrcurveto
            92 103 104 120 83 100 275 330 166 299 -3 147 -2 125 -90 81 -117 -1 -111 -1 -90 -81 2 -115 2 -109 88 -87 107 1 13 0 13 1 12 2 -54 -155 -115 -171 -146 -182 rrcurveto
            endchar
          </CharString>
          <CharString index="27">
            rmoveto
            656 hlineto
            43 201 rlineto
            -656 hlineto
            endchar
          </CharString>
          <CharString index="28">
            1530 rmoveto
            260 return
          </CharString>
          <CharString index="29">
            -103 -39 callgsubr
            return
          </CharString>
          <CharString index="30">
            -88 -429 rlineto
            -201 -42 78 -94 169 hhcurveto
            -13 callsubr
            18 87 rlineto
            -17 -23 -31 -10 -32 hhcurveto
            -51 -20 34 81 17 hvcurveto
            77 365 rlineto
            return
          </CharString>
          <CharString index="31">
            315 -249 0 -262 -315 rlineto
            return
          </CharString>
          <CharString index="32">
            131 195 -131 94 0 -136 return
          </CharString>
          <CharString index="33">
            19 87 -119 142 callsubr
            endchar
          </CharString>
          <CharString index="34">
            -81 -78 -97 -89 70 -71 95 hvcurveto
            return
          </CharString>
          <CharString index="35">
            -151 -714 -56 -264 return
          </CharString>
          <CharString index="36">
            461 rlineto
            -81 hlineto
            -111 -267 -123 -75 -262 -12 rrcurveto
            -168 -7 918 1260 18 84 -1139 0 -103 -433 rlineto
            80 hlineto
            121 247 80 66 252 13 rrcurveto
            return
          </CharString>
          <CharString index="37">
            0 143 673 rlineto
            113 24 68 67 64 hhcurveto
            61 30 -52 -95 -21 hvcurveto
            return
          </CharString>
          <CharString index="38">
            162 130 98 175 55 vhcurveto
            -4 -18 -2 -32 -18 vvcurveto
            -135 -4 return
          </CharString>
          <CharString index="39">
            1137 rmoveto
            123 100 97 117 112 return
          </CharString>
          <CharString index="40">
            75 -65 133 hhcurveto
            153 130 69 return
          </CharString>
          <CharString index="41">
            -17 callsubr
            210 -175 return
          </CharString>
          <CharString index="42">
            237 138 77 363 rlinecurve
            endchar
          </CharString>
          <CharString index="43">
            784 1041 rmoveto
            -553 -62 return
          </CharString>
          <CharString index="44">
            89 69 hvcurveto
            19 87 rlineto
            -17 -24 return
          </CharString>
          <CharString index="45">
            -10 -33 -54 callsubr
            return
          </CharString>
          <CharString index="46">
            -567 -58 -18 -84 51 -17 49 -18 10 -21 -14 -64 rlinecurve
            -263 -1240 return
          </CharString>
          <CharString index="47">
            -42 13 17 -34 hvcurveto
            -16 -72 rlineto
            -49 48 81 -27 91 hhcurveto
            endchar
          </CharString>
          <CharString index="48">
            1216 rmoveto
            706 hlineto
            48 223 rlineto
            -706 hlineto
            return
          </CharString>
          <CharString index="49">
            -385 -7 269 -285 440 hhcurveto
            return
          </CharString>
          <CharString index="50">
            66 callsubr
            -71 71 -93 -100 return
          </CharString>
          <CharString index="51">
            -18 -84 50 -16 -8 callsubr
            return
          </CharString>
          <CharString index="52">
            -13 -65 rlineto
            2 3 30 2 return
          </CharString>
          <CharString index="53">
            hhcurveto
            -50 -21 34 81 17 hvcurveto
            return
          </CharString>
          <CharString index="54">
            rmoveto
            -129 82 -120 193 -51 vhcurveto
            -198 -29 -106 -98 -121 vvcurveto
            -1 -91 61 -72 114 -37 rrcurveto
            -211 -16 -110 -72 -95 vvcurveto
            -135 211 -88 330 374 244 141 219 168 -123 116 -237 36 vhcurveto
            -196 28 rlineto
            -96 15 -31 26 1 33 0 28 20 20 34 8 42 -6 47 -3 51 -1 rrcurveto
            350 204 161 216 69 -22 68 -54 55 hvcurveto
            219 -47 28 140 -379 -11 rlineto
            27 -73 -94 16 -122 hhcurveto
            -344 -208 -144 -224 hvcurveto
            407 -68 rmoveto
            132 49 203 100 58 31 -54 -100 -139 -49 -198 -101 -57 -31 57 99 vhcurveto
            -273 -826 rmoveto
            61 38 46 64 20 vhcurveto
            187 -28 rlineto
            151 -23 42 -36 -62 vvcurveto
            -76 -93 -58 -152 -148 -89 65 91 vhcurveto
            endchar
          </CharString>
          <CharString index="55">
            108 461 rlineto
            -80 hlineto
            -112 -264 -108 -78 -245 -12 rrcurveto
            -162 -7 124 586 126 -2 106 -5 22 -43 -2 -169 rlinecurve
            75 hlineto
            112 531 rlineto
            -75 hlineto
            -62 -157 -41 -47 -113 -5 rrcurveto
            -127 -3 118 558 148 -7 233 -12 40 -63 16 -251 rlinecurve
            80 hlineto
            return
          </CharString>
          <CharString index="56">
            rmoveto
            403 196 441 277 164 91 -148 -252 8 vhcurveto
            80 -2 69 405 rlineto
            61 -98 -187 55 -210 hhcurveto
            -507 -377 -319 -499 -5 hvcurveto
            return
          </CharString>
          <CharString index="57">
            1542 rmoveto
            -439 -11 hlineto
            397 -397 rlineto
            105 hlineto
            return
          </CharString>
          <CharString index="58">
            1543 rmoveto
            46 218 -758 -245 -17 -80 rlineto
            return
          </CharString>
          <CharString index="59">
            17 -52 54 -77 hhcurveto
            -17 135 callsubr
            78 hhcurveto
            return
          </CharString>
          <CharString index="60">
            1159 rmoveto
            110 89 87 105 100 -78 79 return
          </CharString>
          <CharString index="61">
            -317 91 0 490 308 rlineto
            9 vlineto
            return
          </CharString>
          <CharString index="62">
            -278 218 -58 0 -369 -218 rlineto
            return
          </CharString>
          <CharString index="63">
            483 hmoveto
            110 89 87 105 100 -78 79 return
          </CharString>
          <CharString index="64">
            -66 callgsubr
            1 77 -75 104 hhcurveto
            endchar
          </CharString>
          <CharString index="65">
            27 hhcurveto
            49 43 -18 -38 -37 -38 -22 -68 return
          </CharString>
          <CharString index="66">
            rmoveto
            373 95 333 -95 18 85 return
          </CharString>
          <CharString index="67">
            rmoveto
            74 70 46 66 14 hvcurveto
            66 14 return
          </CharString>
          <CharString index="68">
            110 -23 18 -18 -19 -91 rlinecurve
            return
          </CharString>
          <CharString index="69">
            -210 -81 callgsubr
            return
          </CharString>
          <CharString index="70">
            19 87 -743 0 -18 -87 return
          </CharString>
          <CharString index="71">
            rmoveto
            -512 -60 -18 -87 34 -10 rlineto
            57 -20 15 -17 3 -52 42 -802 rcurveline
            315 hlineto
            125 141 110 176 69 164 16 -481 rcurveline
            309 hlineto
            279 263 317 365 223 vvcurveto
            123 -90 82 -114 -112 -92 -80 -115 -109 85 -88 108 vhcurveto
            9 8 1 9 hhcurveto
            -61 -154 -119 -157 -141 -145 rrcurveto
            -21 838 -406 -63 6 -187 -7 -185 -83 -192 -117 -168 rlinecurve
            endchar
          </CharString>
          <CharString index="72">
            rmoveto
            -471 -5 359 -209 363 hhcurveto
            166 231 39 90 136 hvcurveto
            89 414 17 85 23 23 109 19 rlinecurve
            18 87 -653 0 -19 -87 rlineto
            109 -19 15 -21 -18 -86 -81 -403 rcurveline
            -15 -21 -37 -9 -39 hhcurveto
            -154 -108 138 280 403 197 441 279 166 91 -148 -252 9 hvcurveto
            80 -2 68 405 rlineto
            62 -98 -187 54 -211 hhcurveto
            -510 -379 -319 -499 -5 hvcurveto
            endchar
          </CharString>
          <CharString index="73">
            -136 1147 -367 0 -618 -1129 -100 -183 -36 -31 -105 -18 rlinecurve
            -18 -87 437 0 18 87 -129 23 -16 36 88 171 rlinecurve
            74 144 412 0 13 -157 return
          </CharString>
          <CharString index="74">
            rmoveto
            79 -87 139 161 46 -33 rlineto
            -90 127 80 -35 108 hhcurveto
            168 166 115 250 121 hvcurveto
            -60 52 -44 -24 callgsubr
            81 callgsubr
            endchar
          </CharString>
          <CharString index="75">
            1415 1654 1444 rmoveto
            -1283 -83 callgsubr
            61 callsubr
            110 callsubr
            129 callsubr
            98 callsubr
            return
          </CharString>
          <CharString index="76">
            1854 rmoveto
            -262 -130 -197 130 -104 0 137 58 callsubr
            return
          </CharString>
          <CharString index="77">
            -19 -87 110 -23 19 -19 -19 -90 rlinecurve
            68 callsubr
            -18 -87 return
          </CharString>
          <CharString index="78">
            120 511 rlineto
            -80 hlineto
            -127 -292 -120 -101 -214 -13 rrcurveto
            -115 -5 return
          </CharString>
          <CharString index="79">
            -198 -932 -68 -321 -89 -160 -237 -140 rlinecurve
            24 -70 return
          </CharString>
          <CharString index="80">
            145 callsubr
            441 -33 rmoveto
            214 72 2 callgsubr
            return
          </CharString>
          <CharString index="81">
            1543 rmoveto
            683 -107 17 80 -654 245 rlineto
            return
          </CharString>
          <CharString index="82">
            1854 rmoveto
            -261 74 callsubr
            136 return
          </CharString>
          <CharString index="83">
            -118 -96 -91 -114 -105 83 -83 112 hvcurveto
            return
          </CharString>
          <CharString index="84">
            -87 88 -116 -123 -101 -102 callgsubr
            return
          </CharString>
          <CharString index="85">
            104 0 -138 407 -94 callgsubr
            return
          </CharString>
          <CharString index="86">
            -506 -107 283 -187 339 hhcurveto
            return
          </CharString>
          <CharString index="87">
            884 1502 38 callsubr
            return
          </CharString>
          <CharString index="88">
            -30 -55 -54 -46 -55 -110 -57 hvcurveto
            return
          </CharString>
          <CharString index="89">
            -50 45 -74 hhcurveto
            -16 hlineto
            -73 -70 -45 return
          </CharString>
          <CharString index="90">
            1140 rmoveto
            295 175 return
          </CharString>
          <CharString index="91">
            -553 -62 -56 callsubr
            return
          </CharString>
          <CharString index="92">
            512 332 363 465 return
          </CharString>
          <CharString index="93">
            410 hmoveto
            -10 callsubr
            return
          </CharString>
          <CharString index="94">
            154 132 68 90 70 hvcurveto
            return
          </CharString>
          <CharString index="95">
            85 70 68 83 79 -60 62 -80 return
          </CharString>
          <CharString index="96">
            -474 -77 callgsubr
            return
          </CharString>
          <CharString index="97">
            77 75 55 77 16 hvcurveto
            78 return
          </CharString>
          <CharString index="98">
            73 hhcurveto
            391 hmoveto
            73 70 return
          </CharString>
          <CharString index="99">
            49 -19 10 -21 -14 -64 rlinecurve
            return
          </CharString>
          <CharString index="100">
            1 4 hvcurveto
            -85 hlineto
            -10 -26 return
          </CharString>
          <CharString index="101">
            rmoveto
            97 453 70 0 186 -672 519 0 18 84 -50 27 -22 30 -66 224 rlinecurve
            -190 661 122 104 192 162 71 39 126 26 rlinecurve
            18 87 -490 0 -18 -87 113 -21 9 -44 -135 -135 rlinecurve
            -380 -376 -71 -1 95 445 19 89 23 22 113 21 rlinecurve
            18 87 -732 0 -18 -87 110 -23 18 -19 -19 -90 rlinecurve
            73 callsubr
            -121 -23 rlinecurve
            -18 -87 730 0 19 87 -101 21 -16 21 19 90 rlinecurve
            endchar
          </CharString>
          <CharString index="102">
            rmoveto
            109 -1148 343 0 486 996 79 -996 358 0 556 1118 99 201 45 26 101 17 rlinecurve
            18 87 -432 0 -18 -87 116 -12 12 -42 -81 -180 rlinecurve
            -336 -747 -50 762 -12 170 18 29 120 20 rlinecurve
            19 87 -724 0 -18 -87 113 -13 9 -79 -60 -134 rlinecurve
            -340 -755 -45 764 -8 157 20 40 124 20 rlinecurve
            19 87 -752 0 -19 -87 88 -15 28 -29 15 -170 rlinecurve
            endchar
          </CharString>
          <CharString index="103">
            144 672 rlineto
            113 23 68 68 65 hhcurveto
            61 29 -52 -95 -20 hvcurveto
            -89 -429 rlineto
            -201 -41 78 -94 169 hhcurveto
            -13 callsubr
            18 87 rlineto
            -17 -23 -31 -10 -32 hhcurveto
            -51 -20 34 81 17 hvcurveto
            77 365 rlineto
            240 51 -92 131 -218 hhcurveto
            -175 -143 -96 -175 -67 hvcurveto
            return
          </CharString>
          <CharString index="104">
            -25 -20 -115 -20 rlinecurve
            -19 -87 736 0 18 87 104 callgsubr
            25 20 122 21 rlinecurve
            19 87 -737 0 -18 -87 105 -20 17 -19 -19 -93 rlinecurve
            -93 -435 -405 0 93 435 19 89 23 21 117 22 -87 callgsubr
            75 callsubr
            68 callsubr
            -18 -87 return
          </CharString>
          <CharString index="105">
            1153 rmoveto
            246 139 168 244 5 hvcurveto
            -99 hlineto
            -97 -18 -106 -58 -155 hhcurveto
            -129 -90 62 81 4 0 4 1 4 hvcurveto
            -99 hlineto
            -11 -30 -7 -38 -40 vvcurveto
            -167 126 -137 197 vhcurveto
            return
          </CharString>
          <CharString index="106">
            -165 -775 433 0 122 607 rlineto
            82 47 114 53 134 hhcurveto
            54 46 -8 -14 34 hvcurveto
            13 31 17 57 61 vvcurveto
            106 -40 75 -96 -119 -77 -114 -260 -115 vhcurveto
            return
          </CharString>
          <CharString index="107">
            238 1125 19 89 25 19 128 24 rlinecurve
            18 87 -748 0 -18 -87 rlineto
            107 -21 18 -30 -23 -112 -207 -975 133 callsubr
            return
          </CharString>
          <CharString index="108">
            rmoveto
            196 96 97 callsubr
            return
          </CharString>
          <CharString index="109">
            rmoveto
            198 164 90 105 65 hvcurveto
            19 88 rlineto
            143 callsubr
            -305 213 -158 244 vhcurveto
            endchar
          </CharString>
          <CharString index="110">
            33 -23 -38 -39 -38 -22 -65 -50 -41 15 17 -26 hvcurveto
            -18 -79 rlineto
            -57 48 84 -36 96 hhcurveto
            endchar
          </CharString>
          <CharString index="111">
            145 134 68 90 69 -56 callgsubr
            155 728 -13 callgsubr
            return
          </CharString>
          <CharString index="112">
            1704 696 219 rmoveto
            99 464 404 0 -98 -464 -19 -92 return
          </CharString>
          <CharString index="113">
            -1 -77 75 -103 hhcurveto
            -109 -89 -82 -102 1 hvcurveto
            -95 1 78 -75 103 hhcurveto
            endchar
          </CharString>
          <CharString index="114">
            -70 71 -94 -100 -73 callsubr
            return
          </CharString>
          <CharString index="115">
            1276 1208 hmoveto
            -29 callsubr
            0 callsubr
            return
          </CharString>
          <CharString index="116">
            -40 14 rlineto
            18 -50 -51 14 -56 hhcurveto
            -138 -99 -94 -163 -32 hvcurveto
            return
          </CharString>
          <CharString index="117">
            -78 75 -102 -110 -89 -82 -102 1 vhcurveto
            -95 1 78 -75 103 hhcurveto
            endchar
          </CharString>
          <CharString index="118">
            -472 -5 357 -209 374 hhcurveto
            151 callsubr
          </CharString>
          <CharString index="119">
            1583 rmoveto
            636 hlineto
            41 193 rlineto
            -636 hlineto
            return
          </CharString>
          <CharString index="120">
            1333 166 369 rmoveto
            -250 125 -142 return
          </CharString>
          <CharString index="121">
            rmoveto
            137 99 94 164 32 hvcurveto
            -101 hlineto
            -57 -12 return
          </CharString>
          <CharString index="122">
            1366 783 1043 -94 callsubr
            return
          </CharString>
          <CharString index="123">
            -118 -96 -91 -114 -105 84 -83 111 hvcurveto
            return
          </CharString>
          <CharString index="124">
            1761 817 119 callsubr
            return
          </CharString>
          <CharString index="125">
            1559 rmoveto
            -131 -90 -47 -88 return
          </CharString>
          <CharString index="126">
            1340 rmoveto
            -128 133 -81 return
          </CharString>
          <CharString index="127">
            167 369 -99 callsubr
            return
          </CharString>
          <CharString index="128">
            -50 45 -74 hhcurveto
            -16 hlineto
            -74 -69 -45 return
          </CharString>
          <CharString index="129">
            -52 -143 hhcurveto
            -119 -83 54 72 return
          </CharString>
          <CharString index="130">
            -65 rlineto
            2 4 30 2 8 hhcurveto
            60 return
          </CharString>
          <CharString index="131">
            rcurveline
            -201 -43 79 -94 170 hhcurveto
            return
          </CharString>
          <CharString index="132">
            378 81 345 -81 15 72 return
          </CharString>
          <CharString index="133">
            rmoveto
            306 6 232 165 return
          </CharString>
          <CharString index="134">
            346 395 rlineto
            10 vlineto
            return
          </CharString>
          <CharString index="135">
            19 87 rlineto
            -17 -24 -31 -10 return
          </CharString>
          <CharString index="136">
            -1 hvcurveto
            -78 60 -62 81 vhcurveto
            return
          </CharString>
          <CharString index="137">
            rmoveto
            -150 -175 -53 -40 -120 -23 rrcurveto
            -19 -87 452 0 19 87 -116 22 -1 45 120 154 rlinecurve
            196 250 100 -283 47 -124 -18 -38 -112 -24 rlinecurve
            -18 -86 780 0 18 86 -86 32 -28 32 -50 141 rlinecurve
            -175 497 282 329 148 175 56 39 119 23 rlinecurve
            18 87 -450 0 -18 -87 117 -22 1 -45 -120 -154 rlinecurve
            -189 -244 -98 280 -49 129 21 35 110 21 rlinecurve
            18 87 -783 0 -18 -87 rlineto
            88 -30 30 -33 49 -142 175 -493 rcurveline
            endchar
          </CharString>
          <CharString index="138">
            491 hlineto
            18 84 rlineto
            -53 21 -32 44 -57 169 -122 369 rcurveline
            195 65 142 121 195 vvcurveto
            244 -219 132 -445 vhcurveto
            -655 hlineto
            -19 -87 115 -18 17 -22 -19 -87 rlinecurve
            -216 -1016 -18 -85 -24 -23 -124 -19 rlinecurve
            -19 -87 735 0 18 87 rlineto
            -101 21 -16 20 20 91 87 409 rcurveline
            105 hlineto
            307 450 rmoveto
            -172 -105 -163 -231 -13 vhcurveto
            -54 -2 128 614 40 -2 rlineto
            141 -7 81 -95 -160 vvcurveto
            return
          </CharString>
          <CharString index="139">
            rmoveto
            -650 hlineto
            -19 -87 120 -22 17 -44 -31 -128 rlinecurve
            -200 -836 -46 -181 -27 -41 -129 -18 rlinecurve
            -18 -87 430 0 18 87 -120 18 -13 34 40 188 rlinecurve
            167 798 117 -1125 251 0 278 565 293 594 -169 -945 -16 -85 -26 -23 -123 -19 rlinecurve
            -19 -87 737 0 19 87 -113 18 -14 22 16 87 rlinecurve
            184 1016 16 85 24 23 124 19 rlinecurve
            19 87 -662 0 -397 -873 rlineto
            endchar
          </CharString>
          <CharString index="140">
            19 87 rlineto
            -127 20 -19 21 18 87 71 327 rcurveline
            179 hlineto
            451 276 181 293 250 -173 178 -485 hvcurveto
            -666 hlineto
            -18 -87 rlineto
            114 -18 17 -23 -19 -87 -216 -1014 rcurveline
            -18 -86 -24 -23 -125 -19 -18 -87 rcurveline
            894 1343 rmoveto
            38 -2 rlineto
            132 -9 81 -97 -164 vvcurveto
            1 -255 -143 -161 -193 -10 -64 -3 rcurveline
            endchar
          </CharString>
          <CharString index="141">
            rmoveto
            -564 -64 -17 -83 49 -17 rlineto
            48 -19 10 -20 -13 -65 -89 -421 rcurveline
            -240 130 callsubr
            97 175 73 hvcurveto
            -4 -16 -4 -32 -18 vvcurveto
            -135 -4 76 -66 135 hhcurveto
            139 137 62 82 72 -56 callgsubr
            202 callsubr
            endchar
          </CharString>
          <CharString index="142">
            153 129 69 -63 callsubr
            -30 -62 callsubr
            152 714 -274 0 -150 -126 rlineto
            78 -27 -92 70 -145 hhcurveto
            -315 -231 -290 -392 hvcurveto
            440 -33 rmoveto
            214 72 346 163 14 callgsubr
            return
          </CharString>
          <CharString index="143">
            rmoveto
            196 164 88 107 67 hvcurveto
            18 88 rlineto
            -89 callgsubr
            152 callsubr
            -308 218 -155 237 vhcurveto
            168 966 114 callsubr
            -44 callgsubr
            return
          </CharString>
          <CharString index="144">
            14 -153 -27 -42 -137 -21 rlinecurve
            -19 -88 778 0 -29 callgsubr
            -849 274 rmoveto
            292 571 51 -571 rlineto
            return
          </CharString>
          <CharString index="145">
            rmoveto
            -566 -58 -17 -84 50 -17 rlineto
            48 -18 11 -21 -13 -64 -207 -963 24 callsubr
            39 callgsubr
            return
          </CharString>
          <CharString index="146">
            rmoveto
            -553 -62 55 callsubr
            -1 callsubr
            endchar
          </CharString>
          <CharString index="147">
            1542 rmoveto
            -388 -104 callgsubr
            434 408 rmoveto
            -372 -8 hlineto
            189 -400 rlineto
            return
          </CharString>
          <CharString index="148">
            9 hhcurveto
            60 32 -27 callgsubr
            -25 hvcurveto
            -19 -79 rlineto
            -57 49 84 -36 96 hhcurveto
            return
          </CharString>
          <CharString index="149">
            214 1006 19 89 24 20 122 23 rlinecurve
            19 87 -743 0 -19 -87 return
          </CharString>
          <CharString index="150">
            99 464 404 0 -98 -464 -19 -92 -3 callsubr
            return
          </CharString>
          <CharString index="151">
            hhcurveto
            -145 -98 36 53 3 hvcurveto
            -103 hlineto
            -161 -41 123 -95 return
          </CharString>
          <CharString index="152">
            rmoveto
            274 158 196 -158 96 0 -99 callgsubr
          </CharString>
          <CharString index="153">
            -566 -62 -18 -84 50 -16 rlineto
            48 -19 11 -21 -13 -64 -107 return
          </CharString>
          <CharString index="154">
            rmoveto
            -103 -405 144 0 27 callsubr
            endchar
          </CharString>
          <CharString index="155">
            1164 rmoveto
            117 102 80 299 38 hvcurveto
            return
          </CharString>
          <CharString index="156">
            735 0 19 87 -105 22 -17 20 19 90 rlinecurve
            return
          </CharString>
          <CharString index="157">
            rmoveto
            72 callsubr
            195 callsubr
            endchar
          </CharString>
          <CharString index="158">
            1688 927 -27 -102 callsubr
            return
          </CharString>
          <CharString index="159">
            -292 185 -60 0 -371 -185 rlineto
            return
          </CharString>
          <CharString index="160">
            241 51 -93 130 -60 callgsubr
            return
          </CharString>
          <CharString index="161">
            85 69 69 82 1 hvcurveto
            79 -60 62 -80 -86 return
          </CharString>
          <CharString index="162">
            -17 -84 49 -16 48 -19 11 -21 -14 -64 rlinecurve
            return
          </CharString>
          <CharString index="163">
            -104 -110 -90 -86 -107 -99 78 -79 105 hvcurveto
            return
          </CharString>
          <CharString index="164">
            rmoveto
            704 -92 15 69 -680 208 rlineto
            return
          </CharString>
          <CharString index="165">
            -315 270 0 262 315 rlineto
            return
          </CharString>
          <CharString index="166">
            933 1444 141 callsubr
            return
          </CharString>
          <CharString index="167">
            840 497 -19 90 callsubr
            return
          </CharString>
          <CharString index="168">
            231 89 84 193 16 rrcurveto
            28 2 return
          </CharString>
          <CharString index="169">
            -66 callgsubr
            78 -75 104 vhcurveto
            endchar
          </CharString>
          <CharString index="170">
            -70 -67 -85 hvcurveto
            -78 -1 60 -62 81 hhcurveto
            return
          </CharString>
          <CharString index="171">
            -78 60 -62 81 vhcurveto
            365 hmoveto
            85 69 return
          </CharString>
          <CharString index="172">
            rmoveto
            -100 -80 -78 -94 -91 70 -72 94 100 return
          </CharString>
          <CharString index="173">
            1520 rmoveto
            99 81 79 94 91 return
          </CharString>
          <CharString index="174">
            -257 0 -280 -366 rlineto
            endchar
          </CharString>
          <CharString index="175">
            73 callsubr
            -122 -23 rlinecurve
            return
          </CharString>
          <CharString index="176">
            75 55 77 16 hvcurveto
            78 17 -52 54 return
          </CharString>
          <CharString index="177">
            27 hhcurveto
            49 44 -18 -38 -37 -39 -22 return
          </CharString>
          <CharString index="178">
            -42 callgsubr
            -131 366 return
          </CharString>
          <CharString index="179">
            -283 198 -193 307 return
          </CharString>
          <CharString index="180">
            -214 -1006 -19 -89 -25 -20 return
          </CharString>
          <CharString index="181">
            -130 -198 130 -103 0 return
          </CharString>
          <CharString index="182">
            111 -23 18 -19 -19 -90 rlinecurve
            return
          </CharString>
          <CharString index="183">
            -82 -78 -97 -89 71 -71 95 hvcurveto
            return
          </CharString>
          <CharString index="184">
            hvcurveto
            -103 hlineto
            -53 -19 -113 -36 return
          </CharString>
          <CharString index="185">
            rmoveto
            -565 -62 -17 -84 49 -16 return
          </CharString>
          <CharString index="186">
            rmoveto
            -102 72 -82 111 113 73 69 186 90 vhcurveto
            28 56 15 -42 rlineto
            -173 61 87 -95 158 hhcurveto
            143 116 69 94 50 hvcurveto
            18 88 rlineto
            -17 -25 -27 -9 -33 hhcurveto
            -59 -43 41 110 -39 hvcurveto
            -103 284 58 90 15 24 14 22 13 19 rlinecurve
            -64 27 63 -45 78 hhcurveto
            106 81 81 102 103 -73 81 -110 -114 -73 -70 -185 -89 hvcurveto
            -31 -60 -110 305 -473 -58 -17 -87 37 -9 62 -18 16 -19 23 -66 rlinecurve
            142 -398 -55 -86 -15 -24 -14 -22 -13 -19 rlinecurve
            65 -26 -64 45 -78 hhcurveto
            -106 -80 -82 -102 hvcurveto
            endchar
          </CharString>
          <CharString index="187">
            rmoveto
            388 261 205 290 168 -80 123 -182 116 hvcurveto
            -93 64 rlineto
            -118 78 -49 61 90 vvcurveto
            107 89 78 125 169 101 -131 -261 12 vhcurveto
            80 hlineto
            69 395 rlineto
            58 -82 -169 58 -210 hhcurveto
            -421 -216 -224 -261 -177 74 -112 188 -119 hvcurveto
            92 -64 rlineto
            125 -82 43 -62 -96 vvcurveto
            -114 -92 -70 -132 -169 -147 128 271 2 vhcurveto
            -81 hlineto
            -67 -420 rlineto
            -52 97 187 -45 206 hhcurveto
            return
          </CharString>
          <CharString index="188">
            rmoveto
            327 317 281 386 65 hvcurveto
            273 44 -99 134 -168 hhcurveto
            -152 -97 -153 -178 15 hvcurveto
            207 -23 59 -136 -33 -157 rrcurveto
            -139 -29 -104 -83 -107 hhcurveto
            -122 -48 78 138 29 hvcurveto
            15 75 38 151 15 73 rrcurveto
            249 53 -80 99 -221 hhcurveto
            -115 -106 -37 -37 -64 hvcurveto
            -17 -83 rlineto
            4 10 16 2 14 hhcurveto
            64 15 -42 -114 -24 hvcurveto
            -17 -79 -43 -180 -19 -91 rrcurveto
            -257 -55 126 -154 291 hhcurveto
            endchar
          </CharString>
          <CharString index="189">
            rmoveto
            -52 68 153 -51 159 hhcurveto
            388 157 179 190 1 hvcurveto
            143 -71 92 -126 67 vhcurveto
            -97 53 -86 47 -34 39 1 58 rlinecurve
            62 45 39 81 127 83 -90 -154 12 vhcurveto
            80 hlineto
            48 271 rlineto
            39 -69 -127 39 -154 hhcurveto
            -327 -205 -140 -219 -145 80 -89 131 -69 hvcurveto
            96 -53 80 -45 27 -39 -1 -58 rlinecurve
            -65 -55 -46 -85 -135 -107 98 186 -6 vhcurveto
            -79 hlineto
            return
          </CharString>
          <CharString index="190">
            1662 932 -26 rmoveto
            439 353 331 471 393 -311 303 -377 -446 -345 -332 -471 -393 303 -302 384 hvcurveto
            1 68 rmoveto
            -342 -269 275 353 429 314 304 399 334 277 -275 -353 -429 -321 -304 -392 hvcurveto
            return
          </CharString>
          <CharString index="191">
            1535 814 -27 rmoveto
            359 215 219 364 80 hvcurveto
            129 582 38 166 22 30 123 23 rlinecurve
            19 87 -419 0 -19 -87 rlineto
            121 -26 15 -29 -31 -164 -113 -569 rcurveline
            -249 -50 -132 116 callsubr
            21 callgsubr
            return
          </CharString>
          <CharString index="192">
            rmoveto
            220 162 112 189 35 hvcurveto
            -101 hlineto
            -63 -22 -111 -41 -142 hhcurveto
            -142 -93 42 62 4 hvcurveto
            -100 hlineto
            -189 -47 116 -112 221 hhcurveto
            -713 -740 -99 callsubr
            -107 callsubr
            -97 callsubr
          </CharString>
          <CharString index="193">
            -99 -63 callgsubr
            -34 22 rcurveline
            40 -56 -61 25 -71 hhcurveto
            -117 -1 -102 -78 -38 -296 rrcurveto
            99 hlineto
            103 21 33 34 48 hhcurveto
            35 1 29 -14 36 -45 callgsubr
            return
          </CharString>
          <CharString index="194">
            rmoveto
            161 -126 147 -293 26 vhcurveto
            271 14 223 98 215 vvcurveto
            208 -205 125 -438 vhcurveto
            -664 hlineto
            -19 -87 rlineto
            111 -23 19 -18 -20 -92 -214 -1005 133 callsubr
            201 callsubr
            endchar
          </CharString>
          <CharString index="195">
            rmoveto
            -132 -691 rlineto
            -251 -48 103 -110 219 hhcurveto
            169 155 77 95 87 hvcurveto
            18 87 rlineto
            -23 -39 -47 -10 -48 hhcurveto
            -105 -57 50 124 31 hvcurveto
            11 50 128 463 40 139 rrcurveto
            endchar
          </CharString>
          <CharString index="196">
            801 1445 rmoveto
            -108 hlineto
            -322 -121 -11 -57 125 13 6 1 4 -3 -1 -6 rlinecurve
            -101 -473 -12 -57 -27 -16 -98 -11 rlinecurve
            -11 -58 507 0 11 58 -90 11 -21 16 12 57 rlinecurve
            return
          </CharString>
          <CharString index="197">
            rmoveto
            155 164 76 101 63 hvcurveto
            18 87 rlineto
            -29 -35 -47 -18 -55 hhcurveto
            -85 -40 55 121 25 hvcurveto
            107 509 159 callsubr
            -109 -512 rlineto
            -248 -52 100 -131 230 hhcurveto
            return
          </CharString>
          <CharString index="198">
            618 642 rmoveto
            298 130 232 227 -3 hvcurveto
            191 -1 -114 168 -215 hhcurveto
            -297 -131 -232 -227 3 hvcurveto
            -192 1 115 -167 214 hhcurveto
            return
          </CharString>
          <CharString index="199">
            rmoveto
            220 163 112 189 34 hvcurveto
            -101 hlineto
            -63 -21 -111 -41 -142 hhcurveto
            -143 -93 42 62 5 hvcurveto
            -101 hlineto
            -189 -46 115 -112 221 hhcurveto
            endchar
          </CharString>
          <CharString index="200">
            -66 -15 hvcurveto
            -66 -13 49 -46 74 hhcurveto
            390 hmoveto
            73 70 46 66 14 hvcurveto
            66 14 -50 45 -73 hhcurveto
            -17 hlineto
            -73 -70 -45 -66 -15 hvcurveto
            -66 -13 50 -46 73 hhcurveto
            endchar
          </CharString>
          <CharString index="201">
            111 -17 18 -25 -19 -90 rlinecurve
            73 callsubr
            -121 -23 rlinecurve
            -19 -87 743 0 18 87 -111 23 -18 19 20 90 rlinecurve
            return
          </CharString>
          <CharString index="202">
            1159 rmoveto
            110 90 87 105 100 -79 79 -103 -38 callgsubr
            483 hmoveto
            110 90 87 105 100 -79 79 -103 return
          </CharString>
          <CharString index="203">
            rmoveto
            226 163 95 161 27 77 callsubr
            -145 44 callsubr
            225 hhcurveto
            endchar
          </CharString>
          <CharString index="204">
            79 121 116 -93 69 -113 -92 -82 -39 -56 -42 hvcurveto
            -16 -67 rlineto
            5 19 30 5 return
          </CharString>
          <CharString index="205">
            91 rlinecurve
            239 1125 27 -2 185 -15 57 -81 3 -235 rlinecurve
            80 hlineto
            return
          </CharString>
          <CharString index="206">
            1465 rmoveto
            138 99 93 165 32 hvcurveto
            -101 hlineto
            -57 -13 -31 -24 return
          </CharString>
          <CharString index="207">
            -209 176 -104 0 137 -408 277 0 303 408 rlineto
            return
          </CharString>
          <CharString index="208">
            -29 -40 hhcurveto
            -28 -25 10 18 -29 hvcurveto
            -27 18 rlineto
            32 -49 -52 20 -61 hhcurveto
            return
          </CharString>
          <CharString index="209">
            1553 rmoveto
            227 121 152 212 3 hvcurveto
            -85 hlineto
            -86 return
          </CharString>
          <CharString index="210">
            -2444 rmoveto
            180 hlineto
            519 2444 rlineto
            -180 hlineto
            return
          </CharString>
          <CharString index="211">
            101 hlineto
            226 63 94 74 106 vvcurveto
            108 -100 74 -124 vhcurveto
            return
          </CharString>
          <CharString index="212">
            83 hhcurveto
            40 23 -47 -97 2 hvcurveto
            -275 4 -82 -249 -83 hhcurveto
            return
          </CharString>
          <CharString index="213">
            184 114 84 123 113 -97 73 -141 1 hvcurveto
            return
          </CharString>
          <CharString index="214">
            1891 rmoveto
            40 185 -768 -208 -15 -69 rlineto
            return
          </CharString>
          <CharString index="215">
            1872 rmoveto
            40 185 -768 -208 -15 -69 rlineto
            return
          </CharString>
          <CharString index="216">
            1583 rmoveto
            635 hlineto
            42 193 rlineto
            -636 hlineto
            return
          </CharString>
          <CharString index="217">
            -239 -1125 -19 -89 -27 -21 -132 -22 rlinecurve
            -19 -87 return
          </CharString>
          <CharString index="218">
            -198 192 -307 -381 -275 -255 -343 return
          </CharString>
          <CharString index="219">
            76 rmoveto
            -40 -22 46 99 -3 hvcurveto
            278 -3 81 245 return
          </CharString>
          <CharString index="220">
            -67 105 253 392 152 520 238 118 return
          </CharString>
          <CharString index="221">
            rmoveto
            44 20 -38 -53 -121 -73 -139 -132 -45 hvcurveto
            return
          </CharString>
          <CharString index="222">
            1843 rmoveto
            -385 -8 hlineto
            364 -308 rlineto
            return
          </CharString>
          <CharString index="223">
            -143 -195 hhcurveto
            -178 -110 120 305 return
          </CharString>
          <CharString index="224">
            489 146 270 186 76 352 rlinecurve
            endchar
          </CharString>
          <CharString index="225">
            194 -131 94 0 -135 -76 callsubr
            return
          </CharString>
          <CharString index="226">
            146 callsubr
            -516 95 154 callsubr
            return
          </CharString>
          <CharString index="227">
            rmoveto
            353 448 -303 0 -144 -448 rlineto
            return
          </CharString>
          <CharString index="228">
            rmoveto
            200 939 19 89 25 20 122 23 rlinecurve
            return
          </CharString>
          <CharString index="229">
            101 hlineto
            55 13 31 26 53 hhcurveto
            31 32 -9 -13 return
          </CharString>
          <CharString index="230">
            -54 hhcurveto
            -30 -32 8 13 -38 hvcurveto
            -39 14 rlineto
            17 return
          </CharString>
          <CharString index="231">
            rmoveto
            657 hlineto
            43 201 rlineto
            -657 hlineto
            endchar
          </CharString>
          <CharString index="232">
            1544 rmoveto
            -203 -62 callgsubr
            return
          </CharString>
          <CharString index="233">
            1520 rmoveto
            100 81 79 94 91 -71 71 return
          </CharString>
          <CharString index="234">
            1290 1059 -19 140 callsubr
            return
          </CharString>
          <CharString index="235">
            1148 rmoveto
            117 95 91 112 106 return
          </CharString>
          <CharString index="236">
            768 0 18 87 -121 22 -20 19 20 return
          </CharString>
          <CharString index="237">
            -50 96 -136 216 hhcurveto
            170 144 return
          </CharString>
          <CharString index="238">
            -57 hvcurveto
            -16 -73 rlineto
            20 28 53 14 52 hhcurveto
            return
          </CharString>
          <CharString index="239">
            -78 hhcurveto
            -17 hlineto
            -77 -74 -54 -78 -17 hvcurveto
            -77 return
          </CharString>
          <CharString index="240">
            rcurveline
            -19 -89 -24 -20 -122 -23 -19 -87 rcurveline
            return
          </CharString>
          <CharString index="241">
            rmoveto
            706 hlineto
            38 177 rlineto
            -706 hlineto
            return
          </CharString>
          <CharString index="242">
            hlineto
            -78 -74 -54 -78 -17 hvcurveto
            -77 -16 51 -55 return
          </CharString>
          <CharString index="243">
            rmoveto
            -92 80 -73 100 102 85 76 93 56 -27 50 -43 31 vhcurveto
            5 26 27 3 26 hhcurveto
            153 83 -90 -211 -38 hvcurveto
            -10 -51 -184 -20 rlineto
            -348 -39 -149 -122 -175 vvcurveto
            -150 121 -95 173 186 144 97 234 46 vhcurveto
            -219 31 193 -112 190 hhcurveto
            196 154 89 101 69 hvcurveto
            18 87 rlineto
            -40 -45 -80 -31 -78 hhcurveto
            -143 -94 97 214 -9 hvcurveto
            25 2 409 45 125 101 1 156 rlinecurve
            159 1 -156 94 -216 hhcurveto
            -136 -117 -38 -77 -98 hvcurveto
            77 -80 -110 38 -151 hhcurveto
            -276 -176 -110 -160 hvcurveto
            1130 162 rmoveto
            52 17 -68 -66 -3 hvcurveto
            -6 -108 -63 -103 -164 -21 -7 -1 rcurveline
            204 10 71 163 93 hhcurveto
            -843 -670 rmoveto
            90 60 96 155 29 vhcurveto
            46 7 -14 -75 rlineto
            -131 -23 -56 -114 -86 hhcurveto
            -49 -33 33 65 hvcurveto
            endchar
          </CharString>
          <CharString index="244">
            rmoveto
            -1159 hlineto
            -745 -1111 -132 -198 -54 -33 -96 -15 rlinecurve
            -18 -87 439 0 18 87 -120 22 -11 45 114 176 rlinecurve
            158 247 412 0 -68 -345 -20 -102 -25 -22 -132 -21 rlinecurve
            -18 -87 1204 0 109 461 rlineto
            -79 hlineto
            -111 -262 -98 -79 -228 -13 rrcurveto
            -159 -7 115 586 111 -2 103 -6 22 -42 -4 -169 rlinecurve
            79 hlineto
            104 531 rlineto
            -77 hlineto
            -58 -158 -40 -45 -108 -6 rrcurveto
            -112 -3 110 558 142 -7 227 -12 35 -63 16 -250 rlinecurve
            80 hlineto
            -1042 330 rmoveto
            73 hlineto
            -128 -651 rlineto
            -362 hlineto
            endchar
          </CharString>
          <CharString index="245">
            1557 697 219 rmoveto
            97 453 70 0 186 -672 519 0 18 84 -50 27 -22 30 -66 224 rlinecurve
            -190 661 122 104 192 162 71 39 126 26 rlinecurve
            18 87 -490 0 -18 -87 113 -21 9 -44 -135 -135 rlinecurve
            -380 -376 -71 -1 95 445 19 89 23 22 113 21 rlinecurve
            18 87 -732 0 -18 -87 110 -23 18 -19 -19 -90 rlinecurve
            73 callsubr
            -121 -23 rlinecurve
            -18 -87 730 0 19 87 -101 21 -16 21 19 90 rlinecurve
            return
          </CharString>
          <CharString index="246">
            rmoveto
            249 -125 142 -184 -156 -127 -90 -164 -57 vhcurveto
            57 244 -554 -62 55 callsubr
            -221 -1038 -15 -66 -20 -21 -108 -23 rlinecurve
            -18 -87 718 0 19 87 rlineto
            -141 25 -15 19 14 70 70 348 rcurveline
            -61 33 86 -51 121 82 callgsubr
            -72 -347 -164 -47 -31 25 32 -8 vhcurveto
            102 481 rlineto
            116 28 52 67 61 hhcurveto
            48 31 -44 -117 hvcurveto
            endchar
          </CharString>
          <CharString index="247">
            rmoveto
            138 115 74 89 49 hvcurveto
            19 87 rlineto
            -15 -19 -24 -9 -29 hhcurveto
            -48 -40 38 114 -37 hvcurveto
            -125 389 44 32 152 109 88 43 112 27 rlinecurve
            15 70 -493 0 -15 -70 123 -18 27 -40 -113 -95 rlinecurve
            -306 -257 203 953 -566 -58 -18 -84 51 -17 49 -18 10 -21 -14 -64 rlinecurve
            -264 -1240 432 0 96 447 40 30 50 -184 rlineto
            -205 56 86 -107 156 hhcurveto
            return
          </CharString>
          <CharString index="248">
            rmoveto
            -599 hlineto
            -19 -87 122 -12 22 -74 -22 -101 rlinecurve
            -185 -838 -40 -185 -29 -38 -121 -21 rlinecurve
            -19 -88 422 0 18 88 -121 23 -15 29 36 194 rlinecurve
            148 759 426 -1093 380 0 250 1131 37 167 26 38 122 21 rlinecurve
            18 87 -421 0 -18 -87 rlineto
            121 -24 14 -28 -31 -174 -129 -679 rcurveline
            return
          </CharString>
          <CharString index="249">
            22 -19 20 19 90 rlinecurve
            84 398 400 547 105 145 36 32 102 16 rlinecurve
            19 87 -421 0 -18 -87 119 -17 9 -36 -98 -148 rlinecurve
            -276 -414 -106 430 -34 135 20 33 115 17 rlinecurve
            18 87 -766 0 -18 -87 90 -17 26 -29 45 -148 rlinecurve
            return
          </CharString>
          <CharString index="250">
            -49 -47 -82 -28 -74 hhcurveto
            -141 -112 95 236 243 110 176 155 14 14 -2 -2 14 hvcurveto
            -76 -21 -52 -67 -80 vvcurveto
            -99 79 -71 97 104 84 75 108 145 -126 132 -252 -358 -254 -260 -351 return
          </CharString>
          <CharString index="251">
            1153 rmoveto
            247 139 168 244 5 hvcurveto
            -99 hlineto
            -97 -18 -107 -58 -155 hhcurveto
            -128 -91 62 81 hvcurveto
            4 1 4 4 vvcurveto
            -99 hlineto
            -11 -30 -6 -38 -40 vvcurveto
            -167 125 -137 197 vhcurveto
            return
          </CharString>
          <CharString index="252">
            -31 -10 -33 hhcurveto
            -49 -21 34 81 17 hvcurveto
            252 1187 -566 -58 -18 -84 51 -17 rlineto
            48 -18 11 -21 -14 -64 -62 -300 rcurveline
            61 -34 -86 50 -121 hhcurveto
            -314 -232 -290 -392 hvcurveto
            return
          </CharString>
          <CharString index="253">
            rmoveto
            411 -1 -326 216 -443 hhcurveto
            -639 hlineto
            -19 -87 rlineto
            111 -23 19 -19 -20 -90 -214 -1006 133 callsubr
            645 hlineto
            619 452 314 503 hvcurveto
            return
          </CharString>
          <CharString index="254">
            rmoveto
            226 124 96 100 85 hvcurveto
            19 85 rlineto
            -54 -65 -115 -41 -113 hhcurveto
            -95 -50 35 65 62 29 43 103 34 hvcurveto
            53 17 rlineto
            210 68 109 89 192 vvcurveto
            179 return
          </CharString>
          <CharString index="255">
            hhcurveto
            -227 -127 -96 -109 4 hvcurveto
            245 -31 rmoveto
            86 -3 45 70 58 hhcurveto
            40 27 -27 -53 1 hvcurveto
            -87 2 -44 -69 -59 hhcurveto
            -39 -27 27 53 -1 hvcurveto
            endchar
          </CharString>
          <CharString index="256">
            -171 -642 rmoveto
            153 hlineto
            1291 1444 rlineto
            -153 hlineto
            -1120 -727 rmoveto
            0 callgsubr
            1007 -733 rmoveto
            -72 callgsubr
            return
          </CharString>
          <CharString index="257">
            21 96 -252 0 39 169 -438 -34 -29 -135 -136 0 -21 -96 137 0 -260 -1221 433 -70 callsubr
            return
          </CharString>
          <CharString index="258">
            177 150 35 59 91 hvcurveto
            91 423 -81 -1 rlineto
            -234 -84 -154 -165 -150 hhcurveto
            -163 -104 156 263 hvcurveto
            endchar
          </CharString>
          <CharString index="259">
            -100 70 189 -19 hvcurveto
            62 19 rlineto
            337 93 160 79 178 vvcurveto
            144 -144 96 -229 -363 -270 -259 -352 return
          </CharString>
          <CharString index="260">
            243 vvcurveto
            145 -96 90 -128 -145 -86 -119 -145 -8 vhcurveto
            98 -9 68 -41 -81 vvcurveto
            -97 -101 -64 -122 -8 vhcurveto
            endchar
          </CharString>
          <CharString index="261">
            rmoveto
            -402 -202 -389 -337 -19 vhcurveto
            -35 -2 265 1244 33 -2 rlineto
            168 -11 108 -173 -246 vvcurveto
            return
          </CharString>
          <CharString index="262">
            -167 -244 -6 hvcurveto
            99 hlineto
            96 19 106 172 callsubr
            7 38 41 vvcurveto
            166 -127 137 -196 vhcurveto
            return
          </CharString>
          <CharString index="263">
            0 237 1113 19 92 24 19 116 21 rlinecurve
            19 87 -736 0 -18 -87 110 -20 18 -19 -19 -93 rlinecurve
            endchar
          </CharString>
          <CharString index="264">
            0 137 260 -86 -485 -8 -45 -14 -13 -73 -11 rlinecurve
            -12 -58 445 0 13 58 -67 10 -8 13 9 46 rlinecurve
            return
          </CharString>
          <CharString index="265">
            -16 51 -55 77 hhcurveto
            410 hmoveto
            78 74 55 77 16 hvcurveto
            78 18 -52 54 -77 hhcurveto
            -18 hlineto
            -77 -74 -54 -78 -18 hvcurveto
            -77 return
          </CharString>
          <CharString index="266">
            231 -11 30 136 -238 -18 52 252 -447 -55 -42 -196 -131 -39 -17 -80 123 0 return
          </CharString>
          <CharString index="267">
            26 hhcurveto
            49 44 -18 -38 -37 -38 -22 -68 -44 -41 13 17 -35 hvcurveto
            -16 -72 rlineto
            -49 49 81 -27 90 hhcurveto
            endchar
          </CharString>
          <CharString index="268">
            rmoveto
            109 1 95 71 33 270 rrcurveto
            -93 hlineto
            -95 -18 -31 12 callgsubr
            -33 hvcurveto
            92 hlineto
            93 18 return
          </CharString>
          <CharString index="269">
            1917 rmoveto
            -226 -121 -152 -211 -4 hvcurveto
            85 hlineto
            86 17 97 51 143 hhcurveto
            return
          </CharString>
          <CharString index="270">
            -27 -29 -40 hhcurveto
            -28 -26 -47 callgsubr
            -61 hhcurveto
            -101 callgsubr
            49 callgsubr
            return
          </CharString>
          <CharString index="271">
            1543 rmoveto
            -77 -405 138 0 306 395 rlineto
            10 vlineto
            -673 -391 rmoveto
            return
          </CharString>
          <CharString index="272">
            -24 hvcurveto
            34 14 23 32 38 vvcurveto
            54 -43 40 -55 -59 -41 -43 -53 vhcurveto
            -115 1 131 return
          </CharString>
          <CharString index="273">
            -57 -60 25 -71 hhcurveto
            -118 -1 -101 -78 -38 -296 rrcurveto
            99 hlineto
            103 20 34 34 48 hhcurveto
            return
          </CharString>
          <CharString index="274">
            rmoveto
            -117 1 135 -74 171 hhcurveto
            227 127 95 110 -3 hvcurveto
            117 -2 return
          </CharString>
          <CharString index="275">
            443 1225 rmoveto
            -214 -1006 rlineto
            -19 -92 -25 -19 -122 -21 -18 -87 rcurveline
            return
          </CharString>
          <CharString index="276">
            99 58 21 102 rlinecurve
            98 21 -80 67 -135 hhcurveto
            -757 -620 -41 callsubr
            return
          </CharString>
          <CharString index="277">
            25 30 46 54 vvcurveto
            94 -70 69 -87 -101 -68 -71 -101 -120 95 -98 185 vhcurveto
            return
          </CharString>
          <CharString index="278">
            238 82 422 137 60 31 -58 -130 -237 -81 -423 -138 return
          </CharString>
          <CharString index="279">
            58 155 hhcurveto
            129 90 -62 -81 -4 0 -4 -1 -3 hvcurveto
            99 hlineto
            11 29 return
          </CharString>
          <CharString index="280">
            rmoveto
            -100 -81 -78 -94 -91 70 -72 94 101 81 78 97 89 -70 71 -95 hvcurveto
            endchar
          </CharString>
          <CharString index="281">
            -366 -799 rmoveto
            154 hlineto
            1290 1444 rlineto
            -153 hlineto
            return
          </CharString>
          <CharString index="282">
            69 82 hvcurveto
            79 1 -60 62 -80 hhcurveto
            -86 -70 -67 -85 -78 59 -62 82 hvcurveto
            return
          </CharString>
          <CharString index="283">
            28 40 hhcurveto
            29 25 -10 -18 28 hvcurveto
            27 -18 rlineto
            -32 49 52 -22 61 hhcurveto
            return
          </CharString>
          <CharString index="284">
            -14 10 -23 -17 -69 rlinecurve
            -106 -442 -24 -93 -15 -22 -75 -9 rlinecurve
            -12 -58 return
          </CharString>
          <CharString index="285">
            1544 rmoveto
            -77 -407 108 0 359 400 rlineto
            7 vlineto
            return
          </CharString>
          <CharString index="286">
            0 764 1891 rmoveto
            39 185 -767 -208 -16 -69 rlineto
            return
          </CharString>
          <CharString index="287">
            rmoveto
            -300 -40 141 -174 256 hhcurveto
            188 132 105 170 61 hvcurveto
            -154 -1 107 -121 191 hhcurveto
            357 239 319 344 41 hvcurveto
            259 31 -94 152 -168 hhcurveto
            -153 -97 -153 -178 16 hvcurveto
            178 -26 81 -122 -12 -155 rrcurveto
            -154 -12 -106 -95 -118 hhcurveto
            -141 -71 115 330 83 hvcurveto
            43 183 -336 0 -57 -269 rlineto
            -282 -59 -49 -77 -88 hhcurveto
            -102 -24 103 187 24 hvcurveto
            28 208 84 212 131 108 rrcurveto
            -42 64 -346 -35 -254 -245 -42 -319 rlinecurve
            endchar
          </CharString>
          <CharString index="288">
            rmoveto
            376 274 254 343 115 -33 100 -59 79 hvcurveto
            129 112 -62 71 -132 -115 rlineto
            71 -86 -117 41 -140 hhcurveto
            -378 -271 -256 -341 -117 34 -102 62 -79 hvcurveto
            -121 -105 62 -70 124 108 rlineto
            -69 85 116 -40 137 hhcurveto
            139 961 rmoveto
            62 33 -60 -134 hvcurveto
            -11 -1 -12 -12 vvcurveto
            -306 -268 rlineto
            230 25 75 267 112 hhcurveto
            -128 -851 rmoveto
            -62 -32 60 134 hvcurveto
            9 0 9 9 vvcurveto
            306 267 rlineto
            -227 -26 -75 -261 -111 hhcurveto
            endchar
          </CharString>
          <CharString index="289">
            169 -50 149 -93 115 hvcurveto
            170 156 -67 72 -171 -158 rlineto
            105 -120 -166 62 -205 hhcurveto
            -513 -323 -363 -465 -8 hvcurveto
            -3 -170 50 -150 95 -115 rrcurveto
            -167 -154 67 -72 169 156 rlineto
            -104 120 167 -61 204 hhcurveto
            173 1384 rmoveto
            110 66 -90 -216 9 hvcurveto
            -573 -526 rlineto
            379 19 148 453 221 hhcurveto
            -204 -1270 rmoveto
            -110 -66 89 215 -9 hvcurveto
            572 526 rlineto
            -381 -19 -149 -449 -219 hhcurveto
            endchar
          </CharString>
          <CharString index="290">
            rmoveto
            256 225 96 166 117 hvcurveto
            13 87 rlineto
            -71 -82 -141 -50 -138 hhcurveto
            -134 -69 46 70 3 hvcurveto
            88 3 91 36 150 hhcurveto
            77 hlineto
            -28 250 rlineto
            -59 hlineto
            -170 -44 52 68 5 hvcurveto
            72 5 68 58 165 hhcurveto
            56 50 -6 -12 41 hvcurveto
            -43 -25 -30 -48 -57 vvcurveto
            -82 1 56 -63 101 hhcurveto
            85 64 68 87 117 -91 127 -354 -345 -221 -121 -194 -10 hvcurveto
            -8 -120 80 -87 160 -25 -199 -21 -131 -94 -6 -138 rrcurveto
            -172 -11 159 -102 283 hhcurveto
            endchar
          </CharString>
          <CharString index="291">
            rmoveto
            167 112 90 151 99 hvcurveto
            -156 18 72 -79 149 hhcurveto
            112 100 55 55 54 hvcurveto
            19 89 rlineto
            -6 -10 -27 -7 -25 hhcurveto
            -69 -58 20 215 -34 hvcurveto
            -15 105 343 519 rlineto
            -378 hlineto
            -11 -35 -35 -95 -38 -99 rrcurveto
            152 -41 -92 100 -187 hhcurveto
            -309 -208 -218 -342 -44 hvcurveto
            -339 -46 164 -175 218 hhcurveto
            117 562 rmoveto
            282 36 53 99 78 hhcurveto
            68 24 -85 -273 3 hvcurveto
            -4 -173 rlineto
            -136 -67 -59 -68 -67 hhcurveto
            -75 -25 91 263 35 hvcurveto
            endchar
          </CharString>
          <CharString index="292">
            145 676 rlineto
            109 23 59 68 62 hhcurveto
            56 24 -52 -89 -18 hvcurveto
            -148 -712 430 0 142 668 rlineto
            113 23 59 72 62 hhcurveto
            56 24 -52 -90 -19 hvcurveto
            -90 -434 rlineto
            -201 -42 78 -94 170 hhcurveto
            154 132 68 90 69 hvcurveto
            19 87 rlineto
            -17 -24 -30 -62 callsubr
            78 365 rlineto
            240 52 -93 131 -213 hhcurveto
            -153 -144 -94 -161 -59 hvcurveto
            143 10 -88 112 -196 hhcurveto
            -168 -139 -96 -175 -62 hvcurveto
            55 261 -16 callsubr
            return
          </CharString>
          <CharString index="293">
            359 216 220 363 79 hvcurveto
            177 808 rlineto
            -6 28 32 -3 33 hhcurveto
            178 2 119 85 140 vvcurveto
            117 -79 97 -99 43 vhcurveto
            -86 hlineto
            10 -16 4 -29 -30 vvcurveto
            -175 -108 -145 -217 vhcurveto
            -73 hlineto
            -19 -87 rlineto
            122 -26 13 -29 -27 -134 -122 -599 rcurveline
            -249 -52 -131 116 callsubr
            65 hvcurveto
            131 622 19 90 24 18 126 25 rlinecurve
            19 87 -739 0 -18 -87 104 -23 17 -19 -19 -91 rlinecurve
            return
          </CharString>
          <CharString index="294">
            rmoveto
            -6 -35 -120 -35 -16 -81 121 0 -138 -900 -28 -185 -45 -100 -77 -32 rlinecurve
            24 27 14 35 39 vvcurveto
            89 -69 74 -84 -90 -73 -72 -93 -134 113 -96 162 303 232 193 700 116 vhcurveto
            78 467 241 -12 30 137 -259 -14 21 133 28 190 57 80 93 8 rlinecurve
            -36 -30 -23 -45 -51 vvcurveto
            -87 71 -70 87 90 72 72 90 139 -140 102 -216 -274 -197 -179 -324 -62 vhcurveto
            endchar
          </CharString>
          <CharString index="295">
            rmoveto
            -115 86 -87 135 189 128 123 283 207 vhcurveto
            572 787 102 141 39 30 112 20 rlinecurve
            18 87 -437 0 -19 -87 136 -19 6 -29 -94 -140 rlinecurve
            -313 -464 -136 497 -31 113 8 25 135 17 rlinecurve
            19 87 -773 0 -18 -87 103 -21 18 -28 38 -119 rlinecurve
            307 -924 -52 -70 -48 -52 -56 -31 rlinecurve
            9 19 4 21 23 vvcurveto
            115 -87 85 -107 -113 -87 -91 -109 vhcurveto
            endchar
          </CharString>
          <CharString index="296">
            686 1214 rmoveto
            2 -103 -143 -25 -107 -3 -13 -64 rcurveline
            1 14 13 0 26 hhcurveto
            69 88 -29 -101 1 hvcurveto
            -104 2 -77 -65 -84 hhcurveto
            -27 -27 6 11 165 callsubr
            -63 129 hhcurveto
            197 182 95 174 -1 hvcurveto
            -1 88 -69 70 -124 28 126 12 113 59 -1 108 rrcurveto
            126 -1 -136 58 -124 hhcurveto
            -146 -138 -71 -164 -53 hvcurveto
            50 -19 rlineto
            76 40 55 31 72 hhcurveto
            76 49 -40 -59 1 hvcurveto
            return
          </CharString>
          <CharString index="297">
            -17 -84 49 -16 rlineto
            49 -19 10 -21 -14 -64 -88 -421 rcurveline
            -241 -51 96 -136 217 hhcurveto
            169 145 98 175 72 hvcurveto
            -4 -17 -4 -33 -18 vvcurveto
            -135 -3 76 -65 136 hhcurveto
            145 134 68 90 69 hvcurveto
            19 87 rlineto
            -17 -27 -28 -10 -33 hhcurveto
            -51 -20 34 81 16 hvcurveto
            155 728 -557 -64 -17 -83 41 -16 rlineto
            47 -22 13 -19 -14 -64 -91 -417 rcurveline
            -112 -25 -64 -66 -64 hhcurveto
            -63 -27 51 96 20 hvcurveto
            endchar
          </CharString>
          <CharString index="298">
            451 hlineto
            133 668 rlineto
            141 35 64 33 55 hhcurveto
            74 25 -63 -109 -23 hvcurveto
            -22 -103 -169 -788 -58 -239 rrcurveto
            460 hlineto
            3 11 221 1107 2 14 rrcurveto
            258 51 -98 121 -217 hhcurveto
            -184 -134 -96 -163 -71 hvcurveto
            162 12 -68 91 -176 hhcurveto
            -106 -110 -33 -41 -73 hvcurveto
            -18 -83 rlineto
            4 11 11 2 18 hhcurveto
            64 35 -36 -99 -21 hvcurveto
            -12 -59 -106 -488 -59 -212 rrcurveto
            endchar
          </CharString>
          <CharString index="299">
            rmoveto
            129 115 70 93 54 hvcurveto
            19 87 rlineto
            -13 -22 -22 -10 -32 hhcurveto
            -54 -41 29 85 -33 hvcurveto
            -158 405 36 35 13 14 12 13 11 13 rlinecurve
            -73 25 65 -50 79 hhcurveto
            105 89 85 105 -1 hvcurveto
            100 -2 -77 82 -107 hhcurveto
            -107 -55 -57 -108 -89 hvcurveto
            -316 -383 115 538 -567 -62 -56 callsubr
            -89 callsubr
            99 463 75 -227 rlineto
            -179 55 87 -76 156 hhcurveto
            endchar
          </CharString>
          <CharString index="300">
            rmoveto
            249 -126 142 -184 -147 -122 -81 -150 -57 vhcurveto
            152 682 -566 -58 -18 -84 51 -17 49 -18 10 -21 -14 -64 rlinecurve
            -264 -1240 274 0 151 125 rlineto
            -78 27 93 -70 144 hhcurveto
            315 232 290 393 hvcurveto
            -441 32 rmoveto
            -213 -72 -347 -163 -48 -30 -30 callgsubr
            28 52 67 60 hhcurveto
            49 31 -44 -117 -1 hvcurveto
            return
          </CharString>
          <CharString index="301">
            735 hlineto
            19 87 -105 22 -17 19 19 91 rlinecurve
            8 38 571 712 -160 -750 -19 -92 -24 90 callgsubr
            27 callgsubr
            106 -21 17 -18 -20 -93 rlinecurve
            -7 -35 -571 -711 159 746 18 89 24 20 117 23 -87 callgsubr
            110 -23 18 -18 -18 -91 rlinecurve
            68 callsubr
            endchar
          </CharString>
          <CharString index="302">
            378 278 249 340 164 -71 134 -116 87 vhcurveto
            -13 49 58 -9 59 hhcurveto
            209 136 83 143 114 -75 91 -130 45 hvcurveto
            -75 hlineto
            11 -19 8 -35 -38 vvcurveto
            -162 -126 -127 -168 vhcurveto
            -86 -72 27 -115 hhcurveto
            -381 -276 -253 -345 hvcurveto
            425 -175 rmoveto
            171 callsubr
            -59 -32 58 130 vhcurveto
            return
          </CharString>
          <CharString index="303">
            rmoveto
            109 100 47 70 49 hvcurveto
            17 84 rlineto
            -12 -17 -24 -8 -26 hhcurveto
            -71 -45 83 97 40 9 35 14 26 hvcurveto
            347 26 248 243 327 vvcurveto
            284 111 callsubr
            -260 167 -183 265 -29 vhcurveto
            -161 -76 -74 -93 -101 vvcurveto
            -111 98 -83 156 vhcurveto
            65 573 rmoveto
            -59 -32 58 130 171 callsubr
            hvcurveto
            endchar
          </CharString>
          <CharString index="304">
            249 -109 204 -189 113 hvcurveto
            -7 45 51 -5 54 hhcurveto
            189 144 85 140 114 -77 100 -111 45 hvcurveto
            -85 hlineto
            9 -16 4 -29 -30 vvcurveto
            -169 -116 -149 -176 vhcurveto
            -117 -79 25 -139 hhcurveto
            -512 -324 -363 -465 -8 hvcurveto
            485 -198 rmoveto
            18 callgsubr
            -119 -67 104 254 vhcurveto
            return
          </CharString>
          <CharString index="305">
            142 98 80 139 26 hvcurveto
            -103 hlineto
            -47 -10 -32 -22 -54 hhcurveto
            -32 -33 8 11 -39 hvcurveto
            -41 12 rlineto
            14 -52 -53 13 -58 hhcurveto
            -140 -99 -80 -139 -26 hvcurveto
            103 hlineto
            47 11 31 22 55 hhcurveto
            31 33 -7 -11 39 hvcurveto
            41 -12 rlineto
            -15 53 52 -13 57 hhcurveto
            -339 -1582 -102 callsubr
            -106 callsubr
            -100 callsubr
          </CharString>
          <CharString index="306">
            81 107 35 8 31 12 22 hvcurveto
            508 4 329 361 463 vvcurveto
            385 -262 285 -440 -513 -323 -363 -465 -8 vhcurveto
            -6 -352 223 -268 374 -44 rrcurveto
            -162 -75 -72 -97 -98 vvcurveto
            -112 107 -80 152 vhcurveto
            55 570 rmoveto
            -119 -67 104 254 18 callgsubr
            hvcurveto
            endchar
          </CharString>
          <CharString index="307">
            -18 -84 56 -19 rlineto
            38 -15 14 -22 -12 -62 -71 -332 rcurveline
            -326 -68 184 -142 342 hhcurveto
            354 284 153 241 206 -179 89 -235 -92 -76 -13 -13 -40 hvcurveto
            -70 -339 rmoveto
            49 238 rlineto
            6 17 27 5 26 hhcurveto
            91 38 -61 -99 -140 -63 -173 -107 -76 -36 61 163 34 hvcurveto
            endchar
          </CharString>
          <CharString index="308">
            647 hlineto
            537 355 149 301 hvcurveto
            -402 659 rmoveto
            -173 -110 -120 -180 -2 vhcurveto
            -71 -1 114 531 38 -2 rlineto
            128 -5 81 -85 -143 vvcurveto
            -100 -650 rmoveto
            -195 -120 -155 -253 -8 vhcurveto
            -40 -1 131 613 69 -3 rlineto
            121 -7 92 -85 -159 vvcurveto
            return
          </CharString>
          <CharString index="309">
            139 654 rlineto
            -3 19 21 -2 22 hhcurveto
            149 119 77 134 109 -75 90 -136 44 hvcurveto
            -75 hlineto
            12 -19 7 -35 -40 vvcurveto
            -158 -141 -122 -327 -36 vhcurveto
            -134 -16 -17 -82 40 -17 rlineto
            48 -21 12 -19 -14 -65 -90 -417 rcurveline
            -112 -25 -64 -66 -64 hhcurveto
            -63 -28 51 96 21 hvcurveto
            return
          </CharString>
          <CharString index="310">
            1227 -312 rmoveto
            80 -87 138 161 46 -33 rlineto
            -90 128 79 -35 108 hhcurveto
            169 166 115 250 120 hvcurveto
            -59 52 -45 -24 callgsubr
            -104 hvcurveto
            -68 48 callgsubr
            34 30 18 89 hhcurveto
            312 hlineto
            -1443 -377 rmoveto
            214 72 2 callgsubr
            endchar
          </CharString>
          <CharString index="311">
            1577 505 rmoveto
            247 -228 129 -332 1 vhcurveto
            -180 hlineto
            73 343 19 90 29 17 134 25 rlinecurve
            18 87 -758 0 -19 -87 rlineto
            110 -23 18 -18 -18 -91 -214 -1006 rcurveline
            -19 -89 -25 -20 -122 -23 -18 -87 rcurveline
            785 hlineto
            440 307 183 322 hvcurveto
            return
          </CharString>
          <CharString index="312">
            -512 -60 -18 -87 35 -10 rlineto
            56 -20 15 -17 3 -52 51 -802 rcurveline
            315 hlineto
            321 316 276 325 208 vvcurveto
            125 -92 82 -116 -110 -90 -80 -115 -109 87 -88 108 9 10 1 1 9 vhcurveto
            -59 -143 -111 -142 -156 -171 rrcurveto
            return
          </CharString>
          <CharString index="313">
            137 -1147 367 0 612 1117 106 195 35 31 105 18 rlinecurve
            18 87 -436 0 -19 -87 128 -22 17 -39 -94 -181 rlinecurve
            -419 -817 -74 842 -14 153 27 42 137 21 rlinecurve
            19 88 -777 0 -19 -88 92 -16 31 -28 21 -169 rlinecurve
            return
          </CharString>
          <CharString index="314">
            -19 -87 760 0 18 87 -122 22 -22 20 19 90 rlinecurve
            97 455 106 -3 105 -5 22 -43 -3 -169 rlinecurve
            76 hlineto
            112 531 rlineto
            -76 hlineto
            -61 -158 -42 -45 -111 -6 rrcurveto
            -107 -3 120 571 128 -6 230 -13 40 -62 16 -252 rlinecurve
            80 hlineto
            endchar
          </CharString>
          <CharString index="315">
            1560 1584 450 rmoveto
            161 -126 147 -293 26 vhcurveto
            271 14 223 98 215 vvcurveto
            208 -205 125 -438 vhcurveto
            -664 hlineto
            -19 -87 rlineto
            111 -23 19 -18 -20 -92 -214 -1005 133 callsubr
            201 callsubr
            return
          </CharString>
          <CharString index="316">
            rmoveto
            388 239 260 335 281 -214 198 -306 -388 -239 -261 -334 -280 214 -199 306 hvcurveto
            -8 113 rmoveto
            -62 -26 61 132 245 83 410 128 61 27 -60 -133 -245 -83 -410 -128 hvcurveto
            endchar
          </CharString>
          <CharString index="317">
            141 99 80 139 26 hvcurveto
            -103 hlineto
            -47 -11 -31 -22 -55 hhcurveto
            -31 -33 8 11 -39 hvcurveto
            -42 12 rlineto
            14 -51 -53 13 -58 hhcurveto
            -141 -98 -80 -139 -26 hvcurveto
            103 hlineto
            47 11 31 22 54 hhcurveto
            32 33 -7 -11 38 hvcurveto
            42 -12 rlineto
            -15 52 53 -13 57 hhcurveto
            endchar
          </CharString>
          <CharString index="318">
            89 25 20 121 23 -86 callgsubr
            106 -22 17 -19 -20 -91 rlinecurve
            -236 -1113 -374 0 237 1118 19 88 20 23 111 16 rlinecurve
            18 87 -714 0 -18 -87 101 -16 13 -22 -19 -89 rlinecurve
            -237 -1118 -375 156 callsubr
          </CharString>
          <CharString index="319">
            rmoveto
            -1159 hlineto
            -19 -87 111 -23 18 -18 -19 -91 rlinecurve
            -214 -1006 -18 -89 -26 -20 -121 -23 rlinecurve
            -19 -87 770 0 18 87 -133 23 -22 19 20 90 rlinecurve
            238 1125 132 -6 239 -11 44 -55 6 -234 rlinecurve
            80 hlineto
            endchar
          </CharString>
          <CharString index="320">
            1330 1095 1465 rmoveto
            138 98 93 165 32 hvcurveto
            -100 hlineto
            -57 -13 -31 -24 123 callsubr
            -51 -51 15 -56 hhcurveto
            -137 -100 -94 -163 -32 hvcurveto
            122 callsubr
            38 hvcurveto
            39 -14 rlineto
            -17 50 51 -15 57 hhcurveto
            return
          </CharString>
          <CharString index="321">
            -477 rmoveto
            96 100 34 60 67 hvcurveto
            18 84 rlineto
            -12 -24 -29 -7 -34 hhcurveto
            -64 -43 32 65 77 58 75 116 65 hvcurveto
            89 50 -100 0 -138 -59 rlineto
            -265 -117 -74 -74 -108 vvcurveto
            -92 88 -73 139 vhcurveto
            endchar
          </CharString>
          <CharString index="322">
            -441 -50 -136 -640 rlineto
            -104 -23 -53 -70 -70 hhcurveto
            -60 -21 50 92 18 hvcurveto
            152 722 -443 -47 -133 -643 rlineto
            -102 -22 -53 -72 -69 hhcurveto
            -60 -21 53 89 19 hvcurveto
            147 724 -561 -64 -18 return
          </CharString>
          <CharString index="323">
            164 2 118 82 137 hhcurveto
            24 23 -3 -4 22 hvcurveto
            -53 -24 -37 -51 -66 vvcurveto
            -93 69 -69 92 93 72 73 93 152 -154 109 -262 -347 -230 -180 -279 -3 vhcurveto
            -1 return
          </CharString>
          <CharString index="324">
            1815 rmoveto
            141 98 79 140 26 hvcurveto
            -103 hlineto
            -47 -10 -32 -22 -54 hhcurveto
            16 callgsubr
            103 hlineto
            48 108 callgsubr
            -15 52 52 -12 58 hhcurveto
            -572 -318 rmoveto
            378 81 return
          </CharString>
          <CharString index="325">
            1017 60 57 rmoveto
            79 -87 139 161 46 -33 rlineto
            -90 127 80 -35 108 hhcurveto
            168 166 115 250 121 hvcurveto
            -60 52 -44 -24 callgsubr
            81 callgsubr
            return
          </CharString>
          <CharString index="326">
            2001 rmoveto
            -95 -89 -37 -53 -59 hvcurveto
            -11 -52 rlineto
            14 31 57 13 48 hhcurveto
            81 60 callgsubr
            95 50 19 87 rlinecurve
            84 17 -79 56 -133 hhcurveto
            -776 -504 rmoveto
            378 81 return
          </CharString>
          <CharString index="327">
            1157 rmoveto
            207 180 115 236 58 hvcurveto
            -93 22 rlineto
            -180 -50 -129 -93 -148 hhcurveto
            -24 -23 2 4 -21 hvcurveto
            57 26 42 59 69 vvcurveto
            104 -80 72 -97 -114 return
          </CharString>
          <CharString index="328">
            558 1459 rmoveto
            -125 -60 -77 -126 -4 hvcurveto
            -3 -77 13 -81 17 -120 rrcurveto
            32 -203 52 0 95 168 82 143 65 112 1 91 rlinecurve
            98 -59 72 -106 vhcurveto
            return
          </CharString>
          <CharString index="329">
            1834 rmoveto
            724 hlineto
            33 151 rlineto
            -725 hlineto
            296 -446 rmoveto
            77 60 49 70 -1 hvcurveto
            71 -2 -63 49 -77 hhcurveto
            -77 -60 -49 -71 2 hvcurveto
            -70 1 62 -49 78 hhcurveto
            return
          </CharString>
          <CharString index="330">
            2001 rmoveto
            -94 -90 -37 -53 -59 hvcurveto
            -11 -52 rlineto
            14 32 56 13 49 hhcurveto
            80 60 callgsubr
            96 50 18 87 rlinecurve
            84 18 -80 56 -133 hhcurveto
            -776 -504 rmoveto
            return
          </CharString>
          <CharString index="331">
            230 81 85 182 16 rrcurveto
            28 2 -239 -1125 -19 -89 -27 -21 -132 -22 rlinecurve
            -18 -87 767 0 18 87 rlineto
            -121 23 -20 18 20 91 94 443 rcurveline
            return
          </CharString>
          <CharString index="332">
            170 228 -33 callgsubr
            -171 -227 -128 -103 -125 vhcurveto
            244 -32 rmoveto
            98 47 79 58 40 25 -32 -62 -98 -46 -79 -59 -40 -25 32 62 vhcurveto
            endchar
          </CharString>
          <CharString index="333">
            129 rmoveto
            96 -62 165 -46 171 -3 rrcurveto
            -44 -206 72 0 44 207 rlineto
            380 16 225 179 268 233 callsubr
            rlineto
            -125 82 -43 36 return
          </CharString>
          <CharString index="334">
            0 -18 -87 rlineto
            158 -17 35 -45 -31 -142 -20 -79 -24 -104 -40 -145 -61 -255 -55 -207 -71 -132 rrcurveto
            90 -22 -74 54 -90 hhcurveto
            -124 -78 -95 -109 return
          </CharString>
          <CharString index="335">
            -94 -439 rcurveline
            -216 -46 88 -142 211 hhcurveto
            151 145 77 174 69 hvcurveto
            -153 -11 95 -98 191 hhcurveto
            156 150 92 181 64 hvcurveto
            -4 -17 return
          </CharString>
          <CharString index="336">
            -306 -6 -231 -164 -243 vvcurveto
            -146 96 -89 128 145 86 118 145 8 vhcurveto
            -98 10 -69 41 81 vvcurveto
            96 102 65 121 8 vhcurveto
            return
          </CharString>
          <CharString index="337">
            -67 -15 hvcurveto
            -66 -13 49 -45 74 hhcurveto
            390 hmoveto
            73 70 45 66 14 hvcurveto
            67 14 -50 45 -73 hhcurveto
            -17 hlineto
            -73 -70 -45 -67 -15 hvcurveto
            -66 -13 50 -45 73 hhcurveto
            return
          </CharString>
          <CharString index="338">
            1549 rmoveto
            -247 -139 -167 -244 -5 hvcurveto
            99 hlineto
            96 18 107 172 callsubr
            6 38 41 vvcurveto
            166 -126 137 -196 vhcurveto
            return
          </CharString>
          <CharString index="339">
            hhcurveto
            31 32 -9 -13 37 hvcurveto
            40 -14 rlineto
            -17 50 51 -15 return
          </CharString>
          <CharString index="340">
            vvcurveto
            157 -94 109 -171 110 vhcurveto
            -125 84 return
          </CharString>
          <CharString index="341">
            rmoveto
            -119 113 callsubr
            -68 callgsubr
            endchar
          </CharString>
          <CharString index="342">
            rrcurveto
            -58 -273 991 0 83 360 rlineto
            -682 hlineto
            return
          </CharString>
        <CharString name=".notdef">
          2048 9 -494 rmoveto
          180 hlineto
          519 2444 rlineto
          -180 hlineto
          -108 103 callsubr
          -110 103 callsubr
          -109 103 callsubr
          -109 103 callsubr
          endchar
        </CharString>
        <CharString name=".null">
          0 endchar
        </CharString>
        <CharString name="A">
          1499 1376 301 -105 callsubr
        </CharString>
        <CharString name="AE">
          1997 2194 1444 137 callsubr
        </CharString>
        <CharString name="AEacute">
          1997 1530 -104 callsubr
          -87 callsubr
          258 -403 137 callsubr
        </CharString>
        <CharString name="AEmacron">
          1997 1161 109 callsubr
          992 -332 137 callsubr
        </CharString>
        <CharString name="Aacute">
          1499 1097 -104 callsubr
          -87 callsubr
          -127 -1546 -105 callsubr
        </CharString>
        <CharString name="Abreve">
          1499 1076 1553 rmoveto
          226 121 152 212 3 hvcurveto
          -84 hlineto
          -86 -17 -97 22 callsubr
          hvcurveto
          5 0 3 4 vvcurveto
          -84 hlineto
          -10 -26 -7 -25 callgsubr
          179 hhcurveto
          300 -1252 -105 callsubr
        </CharString>
        <CharString name="Abreveacute">
          1499 1473 107 callsubr
          305 -268 rmoveto
          225 163 95 161 28 77 callsubr
          -146 44 callsubr
          226 hhcurveto
          341 -1230 -105 callsubr
        </CharString>
        <CharString name="Abrevecyrillic">
          1499 1039 1553 rmoveto
          194 176 102 227 60 hvcurveto
          -93 -48 callgsubr
          -18 -17 1 2 -16 hvcurveto
          40 170 callsubr
          337 -1252 -105 callsubr
        </CharString>
        <CharString name="Abrevedotbelow">
          1499 1076 1553 rmoveto
          226 121 152 212 3 hvcurveto
          -84 hlineto
          -86 -17 -97 22 callsubr
          hvcurveto
          5 0 3 4 vvcurveto
          -84 hlineto
          -10 -26 -7 -25 callgsubr
          179 hhcurveto
          300 -1252 rmoveto
          -34 callsubr
          37 callsubr
          -298 -689 -95 callsubr
        </CharString>
        <CharString name="Abrevegrave">
          1499 750 1891 rmoveto
          704 -92 14 69 -679 208 rlineto
          246 -545 rmoveto
          225 163 95 161 28 77 callsubr
          -146 44 callsubr
          226 hhcurveto
          341 -1230 -105 callsubr
        </CharString>
        <CharString name="Abrevehookabove">
          1499 1137 2059 rmoveto
          -100 -92 -36 -53 -62 hvcurveto
          -11 -53 rlineto
          15 33 59 13 50 hhcurveto
          85 35 -28 -35 -7 hvcurveto
          -9 -37 -46 -29 -95 -14 rrcurveto
          68 -42 180 23 99 50 18 86 rlinecurve
          84 17 -84 56 -138 hhcurveto
          -102 -528 rmoveto
          225 163 95 161 28 77 callsubr
          -146 44 callsubr
          226 hhcurveto
          341 -1230 -105 callsubr
        </CharString>
        <CharString name="Abrevetilde">
          1499 1242 1834 rmoveto
          142 97 80 139 27 hvcurveto
          -104 hlineto
          -47 -10 -31 -22 111 callgsubr
          13 -58 hhcurveto
          -141 -98 -80 -139 -27 hvcurveto
          104 hlineto
          47 11 30 21 55 hhcurveto
          32 33 -7 -11 39 hvcurveto
          41 -12 rlineto
          -14 52 52 -13 58 hhcurveto
          -207 -303 rmoveto
          225 163 95 161 28 77 callsubr
          -146 44 callsubr
          226 hhcurveto
          341 -1230 -105 callsubr
        </CharString>
        <CharString name="Acaron">
          1499 1340 -31 callsubr
          -70 -1553 -105 callsubr
        </CharString>
        <CharString name="Acircumflex">
          1499 810 -79 callsubr
          131 118 callsubr
          664 -1229 -105 callsubr
        </CharString>
        <CharString name="Acircumflexacute">
          1499 1469 108 callsubr
          -60 -283 rmoveto
          379 81 344 -88 callgsubr
          695 -1268 -105 callsubr
        </CharString>
        <CharString name="Acircumflexdotbelow">
          1499 810 -79 callsubr
          131 118 callsubr
          664 -1229 rmoveto
          -34 callsubr
          37 callsubr
          -298 -689 -95 callsubr
        </CharString>
        <CharString name="Acircumflexgrave">
          1499 746 34 callgsubr
          379 81 344 -88 callgsubr
          695 -1268 -105 callsubr
        </CharString>
        <CharString name="Acircumflexhookabove">
          1499 1442 223 callsubr
          379 81 344 -88 callgsubr
          695 -1268 -105 callsubr
        </CharString>
        <CharString name="Acircumflextilde">
          1499 1238 45 callgsubr
          111 callgsubr
          12 -58 hhcurveto
          -141 -98 -79 -140 -27 hvcurveto
          -1 callgsubr
          379 81 344 -88 callgsubr
          695 -1268 -105 callsubr
        </CharString>
        <CharString name="Acyrillic">
          1499 1376 301 -105 callsubr
        </CharString>
        <CharString name="Adblgrave">
          1499 915 1840 rmoveto
          -311 78 callgsubr
          150 -1226 -105 callsubr
        </CharString>
        <CharString name="Adieresis">
          1499 879 1541 rmoveto
          54 callsubr
          -103 callgsubr
          -93 callgsubr
          -70 -67 -85 -78 59 -62 82 vhcurveto
          132 -1240 -105 callsubr
        </CharString>
        <CharString name="Adieresismacron">
          1499 743 1863 rmoveto
          725 hlineto
          32 150 rlineto
          -724 hlineto
          82 -466 rmoveto
          75 70 46 66 14 hvcurveto
          66 14 -51 45 -74 hhcurveto
          -16 hlineto
          -73 -70 -45 -66 -14 hvcurveto
          -66 -14 50 -46 -9 callsubr
          46 66 14 hvcurveto
          66 14 -50 45 -74 hhcurveto
          -17 hlineto
          -73 -70 -45 -66 -14 hvcurveto
          -66 -14 50 -46 74 hhcurveto
          160 -1246 -105 callsubr
        </CharString>
        <CharString name="Adotaccent">
          1499 1062 -57 callsubr
          -73 callsubr
          314 -1219 -105 callsubr
        </CharString>
        <CharString name="Adotbelow">
          1499 1376 301 rmoveto
          -34 callsubr
          37 callsubr
          -298 -689 -95 callsubr
        </CharString>
        <CharString name="Adotmacron">
          1499 737 222 callsubr
          311 -1238 -105 callsubr
        </CharString>
        <CharString name="Agrave">
          1499 1081 -55 callgsubr
          230 -1226 -105 callsubr
        </CharString>
        <CharString name="Ahookabove">
          1499 1115 -82 callgsubr
          -20 callgsubr
          261 -1569 -105 callsubr
        </CharString>
        <CharString name="Ainvertedbreve">
          1499 1079 162 callsubr
          118 84 -54 -72 -4 0 -4 -1 -4 hvcurveto
          85 hlineto
          10 88 callgsubr
          297 -1616 -105 callsubr
        </CharString>
        <CharString name="Alphagreek">
          1499 1376 301 -105 callsubr
        </CharString>
        <CharString name="Alphatonosgreek">
          1499 1376 301 rmoveto
          -34 callsubr
          14 -153 -27 -42 -137 -21 rlinecurve
          -19 -88 778 0 -29 callgsubr
          -1052 1143 rmoveto
          -104 -61 callgsubr
          -183 -869 rmoveto
          292 571 51 -571 rlineto
          endchar
        </CharString>
        <CharString name="Amacron">
          1499 728 12 callsubr
          607 -1475 -105 callsubr
        </CharString>
        <CharString name="Aogonek">
          1499 1089 -69 callgsubr
          -12 -21 -9 -25 hhcurveto
          -68 -51 86 114 42 11 38 15 23 hvcurveto
          313 hlineto
          -29 callgsubr
          -34 callsubr
          rlineto
          14 -153 -27 -42 -137 -21 -19 -88 rcurveline
          350 hlineto
          -168 -79 -76 -105 -107 vvcurveto
          -112 108 -80 151 vhcurveto
          -562 1058 rmoveto
          292 571 51 -571 rlineto
          endchar
        </CharString>
        <CharString name="Aring">
          1499 781 1729 rmoveto
          -117 120 63 callgsubr
          -205 -116 -95 -111 vhcurveto
          220 -30 rmoveto
          88 41 70 54 35 23 -29 -54 -87 -41 -71 -53 -36 -23 29 54 vhcurveto
          375 -1398 -105 callsubr
        </CharString>
        <CharString name="Aringacute">
          1499 1470 1874 rmoveto
          39 186 -768 -209 -15 -69 rlineto
          346 -257 rmoveto
          167 121 46 71 16 hvcurveto
          71 14 -101 46 -168 hhcurveto
          -76 hlineto
          -167 -122 -46 -71 -15 hvcurveto
          -71 -15 102 -46 167 hhcurveto
          63 57 rmoveto
          -24 hlineto
          -46 -20 24 36 7 hvcurveto
          37 8 31 23 45 hhcurveto
          25 hlineto
          45 21 -23 -37 -8 hvcurveto
          -36 -7 -33 -24 -44 hhcurveto
          318 -1281 -105 callsubr
        </CharString>
        <CharString name="Aringbelow">
          1499 1376 301 rmoveto
          -34 callsubr
          37 callsubr
          -637 -863 167 callsubr
          -134 74 -172 148 callsubr
        </CharString>
        <CharString name="Atilde">
          1499 1184 1 callgsubr
          17 27 176 callsubr
          192 -1250 -105 callsubr
        </CharString>
        <CharString name="B">
          1560 1584 450 87 callsubr
        </CharString>
        <CharString name="Bdotaccent">
          1560 1080 -57 callsubr
          -73 callsubr
          504 -1070 87 callsubr
        </CharString>
        <CharString name="Bdotbelow">
          208 callsubr
          -346 -573 65 callsubr
          -98 callgsubr
        </CharString>
        <CharString name="Becyrillic">
          1540 1574 471 rmoveto
          243 -225 128 -331 vhcurveto
          -187 hlineto
          104 500 202 -7 261 -9 51 -57 12 -231 rlinecurve
          83 hlineto
          74 406 -1266 0 -19 -87 rlineto
          112 -23 18 -18 -19 -91 -214 -1006 rcurveline
          -19 -89 -25 -20 -123 -23 -18 -87 rcurveline
          787 hlineto
          435 307 169 302 hvcurveto
          -486 27 rmoveto
          -214 -128 -168 -226 -12 vhcurveto
          -61 -2 135 637 rlineto
          73 hlineto
          125 -4 82 -75 -162 vvcurveto
          endchar
        </CharString>
        <CharString name="Betagreek">
          1560 1584 450 87 callsubr
        </CharString>
        <CharString name="Blinebelow">
          208 callsubr
          -703 -840 rmoveto
          657 hlineto
          43 201 rlineto
          -656 hlineto
          endchar
        </CharString>
        <CharString name="C">
          1421 727 508 -51 callsubr
          11 callsubr
        </CharString>
        <CharString name="Cacute">
          1421 1207 -104 callsubr
          -46 callsubr
          -886 -1339 -51 callsubr
          11 callsubr
        </CharString>
        <CharString name="Ccaron">
          1421 1450 -25 callsubr
          -41 callgsubr
          -829 -1346 -51 callsubr
          11 callsubr
        </CharString>
        <CharString name="Ccedilla">
          1421 727 508 -51 callsubr
          -5 -429 295 -211 334 -35 rrcurveto
          -126 -129 -55 callsubr
          41 callsubr
          106 callsubr
          54 52 rlineto
          2 hlineto
          151 callsubr
        </CharString>
        <CharString name="Ccedillaacute">
          1421 1207 -104 callsubr
          -46 callsubr
          -886 -1339 -51 callsubr
          -5 -429 295 -211 334 -35 rrcurveto
          -126 -129 -55 callsubr
          41 callsubr
          106 callsubr
          54 52 rlineto
          2 hlineto
          151 callsubr
        </CharString>
        <CharString name="Ccircumflex">
          1421 920 -79 callsubr
          -75 callsubr
          -76 callsubr
          -95 -1022 -51 callsubr
          11 callsubr
        </CharString>
        <CharString name="Cdotaccent">
          1421 1172 -57 callsubr
          -73 callsubr
          -445 -1012 -51 callsubr
          11 callsubr
        </CharString>
        <CharString name="Checyrillic">
          1665 1062 219 rmoveto
          -19 -92 -33 -18 -141 -22 rrcurveto
          -18 -87 769 0 19 87 -111 20 27 callgsubr
          rlineto
          105 -21 18 -18 -20 -93 -102 -481 rcurveline
          -20 -60 -60 -12 -76 hhcurveto
          -119 -59 84 187 40 hvcurveto
          53 247 19 86 18 25 108 16 rlinecurve
          18 87 -722 0 -18 -87 rlineto
          112 -18 15 -22 -18 -87 -44 -204 rcurveline
          -311 -67 147 -151 352 hhcurveto
          145 102 30 35 89 hvcurveto
          endchar
        </CharString>
        <CharString name="Chigreek">
          1460 349 325 30 callsubr
        </CharString>
        <CharString name="D">
          1693 17 callsubr
          endchar
        </CharString>
        <CharString name="Dbar">
          1693 192 694 rmoveto
          138 hlineto
          -101 -475 rlineto
          -19 -89 -24 -20 -122 -23 -19 -87 rcurveline
          645 hlineto
          619 452 314 503 411 -327 216 -443 hvcurveto
          -639 hlineto
          -19 -87 rlineto
          111 -23 19 -19 -20 -90 -93 -439 rcurveline
          -138 hlineto
          1033 126 rmoveto
          -402 -202 -389 -337 -19 vhcurveto
          -35 -1 127 593 189 0 20 92 -190 0 119 559 33 -2 rlineto
          168 -11 108 -174 -246 vvcurveto
          endchar
        </CharString>
        <CharString name="Dcaron">
          1693 1375 -31 callsubr
          280 -1037 119 callsubr
          endchar
        </CharString>
        <CharString name="Dcircumflexbelow">
          1693 17 callsubr
          -842 -1376 45 callsubr
        </CharString>
        <CharString name="Dcommaaccent">
          1693 17 callsubr
          -615 -1385 rmoveto
          195 96 97 callsubr
          -42 callsubr
          -43 -60 callsubr
        </CharString>
        <CharString name="Ddotaccent">
          1693 1096 126 callsubr
          -94 -100 -73 callsubr
          665 -703 119 callsubr
          endchar
        </CharString>
        <CharString name="Ddotbelow">
          1693 17 callsubr
          -563 -1026 -95 callsubr
        </CharString>
        <CharString name="Decyrillic">
          1540 645 869 rmoveto
          24 85 59 246 32 132 rrcurveto
          395 hlineto
          -261 -1220 rlineto
          -564 hlineto
          132 166 94 228 89 363 rrcurveto
          909 -757 rmoveto
          -191 hlineto
          237 1113 20 89 25 20 121 23 rlinecurve
          19 87 -1332 0 -19 -87 rlineto
          162 -18 32 -46 -35 -155 -16 -70 -27 -109 -28 -91 -89 -354 -103 -242 -143 -160 rrcurveto
          -142 hlineto
          -106 -451 rlineto
          85 hlineto
          258 118 87 81 260 hhcurveto
          569 hlineto
          262 60 -75 -264 6 hvcurveto
          84 hlineto
          endchar
        </CharString>
        <CharString name="Deltagreek">
          1451 48 hmoveto
          1314 hlineto
          14 74 -191 1371 -358 0 -764 -1370 rlineto
          152 30 rmoveto
          552 1029 108 -1029 rlineto
          endchar
        </CharString>
        <CharString name="Djecyrillic">
          1851 1876 442 rmoveto
          262 -191 133 -276 -136 -101 -26 -31 -84 vhcurveto
          57 callgsubr
          76 433 -1285 0 -105 -433 rlineto
          80 hlineto
          103 224 callsubr
          20 57 53 10 68 hhcurveto
          111 64 -68 -133 -304 -154 -335 -297 -163 hvcurveto
          25 -73 rlineto
          561 138 325 294 394 vvcurveto
          endchar
        </CharString>
        <CharString name="Dlinebelow">
          1693 17 callsubr
          -920 -1293 -80 callsubr
        </CharString>
        <CharString name="Dzecyrillic">
          1241 617 -28 80 callsubr
          endchar
        </CharString>
        <CharString name="Dzhecyrillic">
          1695 168 callsubr
          551 hlineto
          130 17 -40 -289 -8 hvcurveto
          84 hlineto
          289 114 35 40 129 hhcurveto
          552 hlineto
          19 87 -111 23 -18 18 20 91 rlinecurve
          213 1006 19 89 25 20 121 23 rlinecurve
          19 87 -735 0 -19 -87 105 -22 17 -19 -19 -91 rlinecurve
          -237 -1113 -395 156 callsubr
        </CharString>
        <CharString name="E">
          1328 1530 1444 -96 callsubr
        </CharString>
        <CharString name="Eacute">
          1328 1063 -104 callsubr
          -87 callsubr
          61 -403 -96 callsubr
        </CharString>
        <CharString name="Ebreve">
          1328 1041 102 callsubr
          -16 -97 22 callsubr
          5 -1 3 -7 callsubr
          -6 -25 callgsubr
          178 hhcurveto
          489 -109 -96 callsubr
        </CharString>
        <CharString name="Ecaron">
          1328 1306 -31 callsubr
          118 -410 -96 callsubr
        </CharString>
        <CharString name="Ecedilla">
          1328 635 -11 callsubr
          77 74 1 6 500 0 -52 callsubr
          76 433 -1176 0 -30 callsubr
          625 0 -148 -151 -14 23 callsubr
          3 callsubr
        </CharString>
        <CharString name="Ecedillabreve">
          1328 1041 102 callsubr
          -16 -97 22 callsubr
          5 -1 3 -7 callsubr
          -6 -25 callgsubr
          178 hhcurveto
          -406 -2027 -77 callgsubr
          77 74 1 6 500 0 -52 callsubr
          76 433 -1176 0 -30 callsubr
          625 0 -148 -151 -14 23 callsubr
          3 callsubr
        </CharString>
        <CharString name="Ecircumflex">
          1328 775 -79 callsubr
          -75 callsubr
          315 -248 0 -262 -315 rlineto
          852 -86 -96 callsubr
        </CharString>
        <CharString name="Ecircumflexacute">
          1328 1434 108 callsubr
          -59 -283 rmoveto
          378 81 344 -81 16 72 -53 callgsubr
          883 -125 -96 callsubr
        </CharString>
        <CharString name="Ecircumflexbelow">
          1328 1530 1444 rmoveto
          -1176 hlineto
          -30 callsubr
          1226 0 -52 callsubr
          -1077 -1475 -42 callgsubr
          -99 callgsubr
        </CharString>
        <CharString name="Ecircumflexdotbelow">
          1328 775 -79 callsubr
          -75 callsubr
          315 -248 0 -262 -315 rlineto
          852 -86 rmoveto
          -1176 hlineto
          -30 callsubr
          1226 0 -52 callsubr
          -798 -1125 -95 callsubr
        </CharString>
        <CharString name="Ecircumflexgrave">
          1328 711 1872 57 callsubr
          -118 -560 rmoveto
          378 81 344 -81 16 72 -53 callgsubr
          883 -125 -96 callsubr
        </CharString>
        <CharString name="Ecircumflexhookabove">
          1328 1408 219 callsubr
          344 -81 16 72 -53 callgsubr
          883 -125 -96 callsubr
        </CharString>
        <CharString name="Ecircumflextilde">
          1328 1204 217 callsubr
          344 -81 16 72 -53 callgsubr
          883 -125 -96 callsubr
        </CharString>
        <CharString name="Ecyrillic">
          1425 727 508 rmoveto
          56 4 56 7 56 vhcurveto
          489 -13 30 139 -499 -11 rlineto
          302 65 166 259 212 hhcurveto
          163 91 -148 -252 8 hvcurveto
          80 -2 69 405 rlineto
          61 -98 -186 55 -210 hhcurveto
          -508 -377 -319 -499 -5 hvcurveto
          -472 -5 358 -209 373 hhcurveto
          177 151 35 59 91 hvcurveto
          90 423 -81 -1 rlineto
          -234 -83 -155 -165 -150 hhcurveto
          -162 -105 156 263 hvcurveto
          endchar
        </CharString>
        <CharString name="Edblgrave">
          1328 881 -14 callgsubr
          339 -83 -96 callsubr
        </CharString>
        <CharString name="Edieresis">
          1328 845 1541 rmoveto
          84 70 69 82 hvcurveto
          79 1 -60 62 -80 hhcurveto
          -86 -70 -67 -85 hvcurveto
          -78 -1 60 -62 82 hhcurveto
          364 hmoveto
          85 70 69 82 hvcurveto
          79 1 -61 62 -80 hhcurveto
          -85 63 callsubr
          321 -97 -96 callsubr
        </CharString>
        <CharString name="Edotaccent">
          1328 1027 126 callsubr
          -93 -101 -73 callsubr
          503 -76 -96 callsubr
        </CharString>
        <CharString name="Edotbelow">
          1328 1530 1444 rmoveto
          -1176 hlineto
          -30 callsubr
          1226 0 -52 callsubr
          -798 -1125 -95 callsubr
        </CharString>
        <CharString name="Efcyrillic">
          2131 172 667 rmoveto
          -260 216 -153 501 -24 vhcurveto
          -10 -47 -16 -82 -24 -21 -129 -18 rlinecurve
          -18 -87 732 0 18 87 rlineto
          -119 18 -17 20 18 83 10 47 rcurveline
          665 29 261 231 286 vvcurveto
          260 -217 153 -501 24 vhcurveto
          10 48 17 82 23 21 130 18 rlinecurve
          18 87 -732 0 -19 -87 rlineto
          119 -18 17 -20 -18 -83 -10 -48 rcurveline
          -665 -29 -260 -231 -286 vvcurveto
          506 -23 rmoveto
          225 109 182 285 45 vhcurveto
          -157 -746 rlineto
          -177 37 -60 111 146 vvcurveto
          1076 155 rmoveto
          -225 -110 -182 -285 -45 vhcurveto
          157 746 rlineto
          177 -37 61 -111 -146 vvcurveto
          endchar
        </CharString>
        <CharString name="Egrave">
          1328 1047 115 callsubr
          85 hlineto
          419 -83 -96 callsubr
        </CharString>
        <CharString name="Ehookabove">
          1328 1081 1870 rmoveto
          -114 -5 callgsubr
          -109 vhcurveto
          449 -426 -96 callsubr
        </CharString>
        <CharString name="Einvertedbreve">
          1328 1045 54 callgsubr
          17 96 51 -92 callgsubr
          86 hlineto
          10 88 callgsubr
          485 -473 -96 callsubr
        </CharString>
        <CharString name="Elcyrillic">
          1586 237 -27 rmoveto
          243 104 285 576 140 hvcurveto
          50 187 51 216 22 95 rrcurveto
          373 hlineto
          -237 -1113 -20 -92 -23 90 callgsubr
          -19 19 21 93 rlinecurve
          213 1006 20 92 24 19 122 21 rlinecurve
          18 87 -1309 227 callsubr
          -117 80 -81 133 hvcurveto
          endchar
        </CharString>
        <CharString name="Emacron">
          1328 694 12 callsubr
          795 -332 -96 callsubr
        </CharString>
        <CharString name="Emacronacute">
          1328 1439 1891 rmoveto
          39 186 -768 -209 -15 -69 rlineto
          -45 -215 rmoveto
          723 hlineto
          33 150 rlineto
          -724 hlineto
          848 -290 -96 callsubr
        </CharString>
        <CharString name="Emacrongrave">
          1328 715 44 callgsubr
          723 hlineto
          33 150 rlineto
          -724 hlineto
          848 -290 -96 callsubr
        </CharString>
        <CharString name="Emcyrillic">
          1928 1030 1444 32 callsubr
        </CharString>
        <CharString name="Encyrillic">
          5 callsubr
          -3 callsubr
          49 callsubr
          endchar
        </CharString>
        <CharString name="Eogonek">
          1328 972 -483 53 callgsubr
          86 114 42 11 38 16 23 hvcurveto
          201 hlineto
          -52 callsubr
          76 433 -1176 0 -19 -87 rlineto
          110 -23 19 -19 -19 -90 -214 -1006 rcurveline
          -19 -89 -25 -20 -122 -23 -18 -87 rcurveline
          909 hlineto
          -168 -79 -75 -105 -107 vvcurveto
          -112 107 -80 152 vhcurveto
          endchar
        </CharString>
        <CharString name="Epsilongreek">
          1328 1530 1444 -96 callsubr
        </CharString>
        <CharString name="Epsilontonosgreek">
          1796 1998 1444 rmoveto
          -1176 hlineto
          -19 -87 75 callsubr
          68 callsubr
          -18 -87 1226 0 108 461 rlineto
          -80 hlineto
          -112 -264 -108 -78 -245 -12 rrcurveto
          -162 -7 124 586 126 -2 107 -5 22 -43 -3 -169 rlinecurve
          76 hlineto
          112 531 rlineto
          -75 hlineto
          -63 -157 -41 -47 -113 -5 rrcurveto
          -127 -3 118 558 148 -7 233 -12 40 -63 17 -251 rlinecurve
          79 hlineto
          -1581 433 47 callsubr
        </CharString>
        <CharString name="Ercyrillic">
          1531 806 hmoveto
          33 callsubr
        </CharString>
        <CharString name="Ereversedcyrillic">
          1468 401 1358 rmoveto
          -84 -368 rlineto
          81 hlineto
          238 93 141 131 155 hhcurveto
          183 79 -203 -276 -33 -1 -33 -2 -34 hvcurveto
          -489 14 -29 -139 504 11 rlineto
          -304 -50 -154 -277 -240 hhcurveto
          -189 -95 165 206 1 hvcurveto
          -81 hlineto
          -58 -367 rlineto
          -59 71 175 -57 202 hhcurveto
          583 356 339 471 451 -354 237 -386 -155 -159 -37 -76 -98 hvcurveto
          endchar
        </CharString>
        <CharString name="Escyrillic">
          1421 727 508 -51 callsubr
          11 callsubr
        </CharString>
        <CharString name="Etagreek">
          5 callsubr
          -3 callsubr
          49 callsubr
          endchar
        </CharString>
        <CharString name="Etatonosgreek">
          2174 1166 219 rmoveto
          98 464 405 0 -98 -464 -20 -92 -24 -20 -116 -20 rlinecurve
          -18 -87 736 0 18 87 104 callgsubr
          24 20 122 21 -87 callgsubr
          106 -20 17 -19 -20 -93 rlinecurve
          -92 -435 -405 0 92 435 19 89 24 21 117 22 -86 callgsubr
          110 -23 18 -19 -19 -90 rlinecurve
          -213 -1006 -19 -89 -26 -20 -121 -23 rlinecurve
          -18 -87 49 callsubr
          -825 1225 47 callsubr
        </CharString>
        <CharString name="Etilde">
          1328 1149 -107 callgsubr
          163 callsubr
          60 hhcurveto
          381 -107 -96 callsubr
        </CharString>
        <CharString name="Etildebelow">
          1328 1530 1444 rmoveto
          -1176 hlineto
          -30 callsubr
          1226 0 -52 callsubr
          -680 -1457 rmoveto
          109 1 94 71 34 270 rrcurveto
          -93 hlineto
          -95 -19 -30 12 callgsubr
          -34 hvcurveto
          93 hlineto
          93 18 31 30 45 64 callgsubr
        </CharString>
        <CharString name="F">
          1283 1511 1444 rmoveto
          -1154 hlineto
          -18 -87 75 callsubr
          68 callsubr
          207 callsubr
        </CharString>
        <CharString name="Fdotaccent">
          1282 1060 1520 rmoveto
          100 80 79 94 91 7 callsubr
          451 -76 rmoveto
          -1154 hlineto
          -18 -87 75 callsubr
          68 callsubr
          207 callsubr
        </CharString>
        <CharString name="G">
          1599 226 653 -35 callsubr
        </CharString>
        <CharString name="Gacute">
          1599 1219 -104 callsubr
          -87 callsubr
          -1399 -1194 -35 callsubr
        </CharString>
        <CharString name="Gammagreek">
          1258 1517 1444 rmoveto
          -1160 hlineto
          -19 -87 112 -23 18 -18 -19 -91 rlinecurve
          -213 -1006 -19 -89 -26 -20 -122 -23 rlinecurve
          -19 -87 761 0 19 87 -123 22 -23 20 20 90 rlinecurve
          238 1125 133 -6 238 -11 44 -55 6 -234 rlinecurve
          80 hlineto
          endchar
        </CharString>
        <CharString name="Gbreve">
          1599 1197 102 callsubr
          -17 -96 22 callsubr
          5 -1 3 -7 callsubr
          109 callgsubr
          -971 -900 -35 callsubr
        </CharString>
        <CharString name="Gcaron">
          1599 1462 1854 rmoveto
          -262 74 callsubr
          137 58 callsubr
          -1342 -1201 -35 callsubr
        </CharString>
        <CharString name="Gcircumflex">
          1599 931 -79 callsubr
          -75 callsubr
          -76 callsubr
          -607 -877 -35 callsubr
        </CharString>
        <CharString name="Gcommaaccent">
          1599 226 653 rmoveto
          -471 -5 359 -209 363 hhcurveto
          166 231 39 90 136 hvcurveto
          89 414 17 85 23 23 109 19 rlinecurve
          18 87 -653 0 -19 -87 rlineto
          109 -19 15 -21 -18 -86 -81 -403 rcurveline
          -15 -21 -37 -9 -39 hhcurveto
          -154 -108 138 280 403 197 441 279 166 91 -148 -252 9 hvcurveto
          80 -2 68 405 rlineto
          62 -98 -187 54 -211 hhcurveto
          -510 -379 -319 -499 -5 hvcurveto
          586 -1126 rmoveto
          195 96 97 callsubr
          -42 callsubr
          -43 -60 callsubr
        </CharString>
        <CharString name="Gdotaccent">
          1599 1183 66 callsubr
          7 callsubr
          -957 -867 -35 callsubr
        </CharString>
        <CharString name="Geacutecyrillic">
          1255 1027 -104 callsubr
          -46 callsubr
          82 -403 212 callsubr
        </CharString>
        <CharString name="Gecyrillic">
          1255 1515 1444 212 callsubr
        </CharString>
        <CharString name="Germandbls">
          1664 659 hmoveto
          279 1345 124 -7 rlineto
          194 -10 76 -93 -132 vvcurveto
          -132 -91 -81 -143 -7 vhcurveto
          -66 -310 rlineto
          158 -66 82 -112 -132 vvcurveto
          -117 -66 -65 -96 -113 -73 107 192 7 vhcurveto
          -80 hlineto
          -65 -317 rlineto
          -52 66 133 -38 142 hhcurveto
          302 250 162 297 202 -99 160 -177 88 hvcurveto
          196 14 153 88 168 vvcurveto
          187 -179 105 -367 vhcurveto
          -852 hlineto
          -18 -87 rlineto
          111 -23 19 -21 -19 -88 -211 -1006 rcurveline
          -18 -89 -25 -20 -122 -23 -18 -87 rcurveline
          endchar
        </CharString>
        <CharString name="Geupturncyrillic">
          1237 1471 1337 rmoveto
          111 474 rlineto
          -84 hlineto
          -278 -126 -101 -89 -262 hhcurveto
          -653 hlineto
          -19 -87 111 -23 18 -18 -20 -91 rlinecurve
          -213 -1006 -19 -89 -25 -20 -121 -23 rlinecurve
          -19 -87 768 0 18 87 rlineto
          -111 22 -42 20 19 90 238 1118 rcurveline
          endchar
        </CharString>
        <CharString name="Gmacron">
          1599 850 109 callsubr
          -665 -1123 -35 callsubr
        </CharString>
        <CharString name="H">
          5 callsubr
          -3 callsubr
          49 callsubr
          endchar
        </CharString>
        <CharString name="Hacyrillic">
          1460 349 325 30 callsubr
        </CharString>
        <CharString name="Hardsigncyrillic">
          1775 1846 505 rmoveto
          247 -227 129 -333 1 vhcurveto
          -179 hlineto
          72 343 20 90 28 17 135 25 rlinecurve
          18 87 -1011 0 -95 -401 rlineto
          84 hlineto
          112 246 58 42 196 10 rrcurveto
          13 1 -239 -1123 rlineto
          -18 -89 -25 -20 -123 -23 -18 -87 rcurveline
          786 hlineto
          440 306 183 322 hvcurveto
          -487 28 rmoveto
          -231 -128 -186 -228 -12 vhcurveto
          -61 62 callgsubr
        </CharString>
        <CharString name="Hbar">
          5 callsubr
          -24 -20 -116 -20 rlinecurve
          -18 -87 735 0 18 87 -111 21 -18 18 20 93 rlinecurve
          169 796 137 0 20 93 -137 0 25 117 19 92 25 19 121 21 rlinecurve
          19 87 -735 0 -19 -87 106 -20 16 -19 -19 -93 rlinecurve
          -25 -117 -405 0 25 117 19 89 23 21 117 22 -86 callgsubr
          75 callsubr
          -25 -117 -138 0 -19 -93 137 0 -169 -796 -19 -89 -25 -20 -121 -23 rlinecurve
          -19 -87 49 callsubr
          121 571 rmoveto
          48 225 405 0 -48 -225 rlineto
          endchar
        </CharString>
        <CharString name="Hbrevebelow">
          5 callsubr
          -3 callsubr
          49 callsubr
          97 -685 98 callgsubr
          -99 -52 -144 hhcurveto
          -120 -84 55 73 hvcurveto
          -1 4 1 3 4 vvcurveto
          -92 hlineto
          -10 -27 -6 -34 1 -37 rrcurveto
          -149 1 117 -124 184 hhcurveto
          endchar
        </CharString>
        <CharString name="Hcaron">
          1704 1485 1853 rmoveto
          -262 74 callsubr
          137 58 callsubr
          -895 -1634 rmoveto
          43 callsubr
          49 callsubr
          endchar
        </CharString>
        <CharString name="Hcedilla">
          1704 319 -474 rmoveto
          184 114 84 123 113 -97 73 -142 1 hvcurveto
          77 74 2 6 323 0 19 87 -105 22 -17 20 19 90 rlinecurve
          43 callsubr
          310 0 -148 -151 -55 callsubr
          41 callsubr
          endchar
        </CharString>
        <CharString name="Hcircumflex">
          1704 954 -79 callsubr
          130 195 -130 94 0 -136 314 -249 0 -262 -314 rlineto
          -160 -1311 rmoveto
          43 callsubr
          49 callsubr
          endchar
        </CharString>
        <CharString name="Hdieresis">
          1704 1023 1540 rmoveto
          85 70 69 82 79 -60 62 -80 -85 63 callsubr
          365 hmoveto
          85 70 69 82 -91 callgsubr
          29 callsubr
          -692 -1321 rmoveto
          43 callsubr
          49 callsubr
          endchar
        </CharString>
        <CharString name="Hdotaccent">
          1704 1206 1519 rmoveto
          99 81 79 94 91 -70 71 -94 -100 -81 -78 -96 -90 70 -71 95 hvcurveto
          -510 -1300 rmoveto
          43 callsubr
          49 callsubr
          endchar
        </CharString>
        <CharString name="Hdotbelow">
          5 callsubr
          -3 callsubr
          49 callsubr
          105 -333 173 callsubr
        </CharString>
        <CharString name="I">
          833 697 219 -91 callsubr
        </CharString>
        <CharString name="IAcyrillic">
          1561 312 981 rmoveto
          -146 82 -98 147 -40 vhcurveto
          -266 -348 -120 -155 -76 -83 -65 -28 rlinecurve
          -18 -83 507 0 450 617 rlineto
          1 2 0 2 hhcurveto
          84 hlineto
          -84 -398 91 callgsubr
          rlineto
          -111 21 -18 18 20 93 214 1006 rcurveline
          19 92 24 19 122 21 19 87 rcurveline
          -780 hlineto
          -490 -241 -183 -280 hvcurveto
          473 -25 rmoveto
          199 117 174 231 11 vhcurveto
          62 2 -131 -622 -70 1 rlineto
          -128 4 -81 90 141 vvcurveto
          endchar
        </CharString>
        <CharString name="IJ">
          1674 1547 286 121 callsubr
          -37 callsubr
          -39 callsubr
          -28 callsubr
          -58 callgsubr
          -850 -67 -91 callsubr
        </CharString>
        <CharString name="IJacute">
          1674 804 -104 callsubr
          -54 callgsubr
          418 hmoveto
          -175 -87 callsubr
          -487 -1561 121 callsubr
          -37 callsubr
          -39 callsubr
          -28 callsubr
          -58 callgsubr
          -850 -67 -91 callsubr
        </CharString>
        <CharString name="IUcyrillic">
          2421 45 hmoveto
          735 hlineto
          19 87 rlineto
          -105 22 -17 19 19 91 98 464 rcurveline
          156 hlineto
          -1 -18 0 -17 -17 vvcurveto
          -355 235 -303 461 518 344 362 478 355 -236 303 -461 -458 -322 -284 -397 -68 vhcurveto
          -145 hlineto
          93 435 18 89 24 20 117 23 -87 callgsubr
          110 -23 18 -18 -18 -91 rlinecurve
          68 callsubr
          1576 -2 rmoveto
          -121 -63 137 242 358 124 537 237 121 64 -137 -242 -358 -125 -537 -237 hvcurveto
          endchar
        </CharString>
        <CharString name="Iacute">
          833 804 -104 callsubr
          -54 callgsubr
          -513 -1628 -91 callsubr
        </CharString>
        <CharString name="Ibreve">
          833 783 1554 67 callgsubr
          -143 hhcurveto
          -118 -84 54 72 4 0 4 -7 callsubr
          -7 -34 -36 vvcurveto
          -146 1 114 -122 179 hhcurveto
          -86 -1335 -91 callsubr
        </CharString>
        <CharString name="Icaron">
          833 1047 -25 callsubr
          -314 270 0 262 314 rlineto
          -456 -1635 -91 callsubr
        </CharString>
        <CharString name="Icircumflex">
          833 517 1531 rmoveto
          260 131 194 -131 95 0 -136 -76 callsubr
          278 -1312 -91 callsubr
        </CharString>
        <CharString name="Icyrillic">
          833 697 219 -91 callsubr
        </CharString>
        <CharString name="Idblgrave">
          833 623 1841 65 callgsubr
          -299 -6 hlineto
          155 -308 rlineto
          81 hlineto
          -236 -1308 -91 callsubr
        </CharString>
        <CharString name="Idieresis">
          833 586 1542 rmoveto
          -12 callsubr
          -86 -69 -68 -84 -1 hvcurveto
          64 callsubr
          68 83 1 hvcurveto
          79 -60 62 -80 -86 -69 -68 -84 -1 vhcurveto
          -78 60 -62 81 vhcurveto
          -254 -1323 -91 callsubr
        </CharString>
        <CharString name="Idieresisacute">
          833 1180 1891 rmoveto
          40 186 -768 -208 -15 -69 rlineto
          128 -252 rmoveto
          75 70 45 67 14 hvcurveto
          66 14 -51 45 -73 hhcurveto
          -17 hlineto
          -73 -70 -45 -66 -14 hvcurveto
          -67 -14 50 -45 -9 callsubr
          45 67 14 hvcurveto
          66 14 -50 45 -74 hhcurveto
          -17 hlineto
          -73 -70 -45 -66 -14 hvcurveto
          -67 -14 50 -45 74 hhcurveto
          -226 -1329 -91 callsubr
        </CharString>
        <CharString name="Idotaccent">
          833 769 1521 rmoveto
          99 81 78 95 91 -71 70 -93 -100 -81 -77 -97 -89 70 -71 95 hvcurveto
          -72 -1302 -91 callsubr
        </CharString>
        <CharString name="Idotbelow">
          833 697 219 rmoveto
          42 callsubr
          94 callsubr
          -330 -333 65 callsubr
          -98 callgsubr
        </CharString>
        <CharString name="Iecyrillic">
          1328 1530 1444 -96 callsubr
        </CharString>
        <CharString name="Igrave">
          833 789 1844 rmoveto
          -385 -97 callgsubr
          -156 -1309 -91 callsubr
        </CharString>
        <CharString name="Ihookabove">
          833 822 1871 96 callgsubr
          46 hhcurveto
          107 callgsubr
          53 82 63 90 vvcurveto
          91 -88 62 -109 vhcurveto
          -125 -1652 -91 callsubr
        </CharString>
        <CharString name="Iicyrillic">
          1719 45 hmoveto
          194 callsubr
        </CharString>
        <CharString name="Iinvertedbreve">
          833 786 1918 rmoveto
          -226 -121 -153 -210 -4 hvcurveto
          85 hlineto
          85 17 97 52 -92 callgsubr
          85 hlineto
          10 88 callgsubr
          -89 -1699 -91 callsubr
        </CharString>
        <CharString name="Iishortcyrillic">
          1719 1199 1553 rmoveto
          193 177 102 227 59 hvcurveto
          -92 -48 callgsubr
          -18 -18 1 2 -16 hvcurveto
          41 170 callsubr
          -1154 -1553 rmoveto
          194 callsubr
        </CharString>
        <CharString name="Imacron">
          833 435 1584 rmoveto
          636 hlineto
          41 193 rlineto
          -635 hlineto
          220 -1558 -91 callsubr
        </CharString>
        <CharString name="Iocyrillic">
          1328 845 1541 rmoveto
          84 70 69 82 hvcurveto
          79 1 -60 62 -80 hhcurveto
          -86 -70 -67 -85 hvcurveto
          -78 -1 60 -62 82 hhcurveto
          364 hmoveto
          85 70 69 82 hvcurveto
          79 1 -61 62 -80 hhcurveto
          -85 63 callsubr
          321 -97 -96 callsubr
        </CharString>
        <CharString name="Iogonek">
          833 387 -69 callgsubr
          -12 -20 -9 -26 hhcurveto
          -68 -51 86 114 42 11 38 15 23 hvcurveto
          301 hlineto
          18 87 -111 23 -18 19 20 90 rlinecurve
          42 callsubr
          rlineto
          111 -17 18 -25 -19 -90 -214 -1006 rcurveline
          -19 -89 -25 -20 -121 -23 -19 -87 rcurveline
          327 hlineto
          -168 -79 -75 -105 -107 vvcurveto
          -112 107 -80 151 vhcurveto
          endchar
        </CharString>
        <CharString name="Iotadieresisgreek">
          833 586 1542 rmoveto
          -12 callsubr
          -86 -69 -68 -84 -1 hvcurveto
          64 callsubr
          68 83 1 hvcurveto
          79 -60 62 -80 -86 -69 -68 -84 -1 vhcurveto
          -78 60 -62 81 vhcurveto
          -254 -1323 -91 callsubr
        </CharString>
        <CharString name="Iotagreek">
          833 697 219 -91 callsubr
        </CharString>
        <CharString name="Iotatonosgreek">
          1317 1180 219 rmoveto
          42 callsubr
          94 callsubr
          -839 1225 47 callsubr
        </CharString>
        <CharString name="Itilde">
          833 891 1552 rmoveto
          99 2 90 64 30 250 rrcurveto
          -88 hlineto
          -84 -18 -27 101 callsubr
          -99 -1 -88 -64 -32 -247 rrcurveto
          89 hlineto
          83 17 28 28 39 hhcurveto
          29 25 -11 -18 28 hvcurveto
          28 -17 rlineto
          -32 48 52 -22 61 hhcurveto
          -194 -1333 -91 callsubr
        </CharString>
        <CharString name="Itildebelow">
          833 697 219 rmoveto
          42 callsubr
          94 callsubr
          -211 -665 43 callgsubr
          -28 12 21 -32 hvcurveto
          -32 20 rlineto
          36 -53 -22 callgsubr
        </CharString>
        <CharString name="J">
          841 714 286 121 callsubr
          -37 callsubr
          -39 callsubr
          -28 callsubr
          117 callsubr
        </CharString>
        <CharString name="Jacute">
          841 795 -104 callsubr
          -317 90 0 490 308 rlineto
          9 vlineto
          -486 -1561 121 callsubr
          -37 callsubr
          -39 callsubr
          -28 callsubr
          117 callsubr
        </CharString>
        <CharString name="Jcircumflex">
          841 507 -79 callsubr
          -75 callsubr
          -76 callsubr
          305 -1244 121 callsubr
          -37 callsubr
          -39 callsubr
          -28 callsubr
          117 callsubr
        </CharString>
        <CharString name="Jecyrillic">
          841 714 286 121 callsubr
          -37 callsubr
          -39 callsubr
          -28 callsubr
          117 callsubr
        </CharString>
        <CharString name="K">
          1557 697 219 -6 callsubr
        </CharString>
        <CharString name="Kaacutecyrillic">
          1557 1216 -104 callsubr
          -46 callsubr
          -925 -1628 -6 callsubr
        </CharString>
        <CharString name="Kacute">
          1557 1216 -104 callsubr
          -46 callsubr
          -925 -1628 -6 callsubr
        </CharString>
        <CharString name="Kacyrillic">
          1557 697 219 -6 callsubr
        </CharString>
        <CharString name="Kappagreek">
          1557 697 219 -6 callsubr
        </CharString>
        <CharString name="Kcaron">
          1557 1459 -25 callsubr
          58 callsubr
          -868 -1635 -6 callsubr
        </CharString>
        <CharString name="Kcommaaccent">
          138 callsubr
          58 -692 rmoveto
          196 95 97 callsubr
          70 callsubr
          -68 -43 -60 callsubr
        </CharString>
        <CharString name="Kdotbelow">
          138 callsubr
          110 -333 -95 callsubr
        </CharString>
        <CharString name="Klinebelow">
          138 callsubr
          -247 -600 rmoveto
          656 hlineto
          44 201 rlineto
          -657 hlineto
          endchar
        </CharString>
        <CharString name="L">
          8 callsubr
          endchar
        </CharString>
        <CharString name="Lacute">
          1276 792 -104 callsubr
          -87 callsubr
          10 -1847 rmoveto
          -29 callsubr
          0 callsubr
          endchar
        </CharString>
        <CharString name="Lambdagreek">
          1502 1371 298 rmoveto
          -129 1146 -367 0 -612 -1127 -102 -189 -35 -23 -103 -18 rlinecurve
          -19 -87 434 0 18 87 -130 23 -16 36 90 175 rlinecurve
          421 816 68 -836 12 -151 -25 -41 -138 -21 rlinecurve
          -19 -88 779 0 18 88 -94 16 -31 28 -20 166 rlinecurve
          endchar
        </CharString>
        <CharString name="Lcaron">
          1276 1242 1123 -64 callgsubr
          59 -1123 rmoveto
          -29 callsubr
          0 callsubr
          endchar
        </CharString>
        <CharString name="Lcircumflexbelow">
          8 callsubr
          294 -464 71 callsubr
          67 callsubr
        </CharString>
        <CharString name="Lcommaaccent">
          8 callsubr
          520 -473 42 callgsubr
          -15 -67 rlineto
          5 18 30 5 70 callsubr
          -67 -44 -60 callsubr
        </CharString>
        <CharString name="Ldot">
          8 callsubr
          1103 661 rmoveto
          117 95 92 112 106 -83 84 -110 -118 -96 -91 -114 -105 84 -84 111 hvcurveto
          endchar
        </CharString>
        <CharString name="Ldotbelow">
          8 callsubr
          572 -114 -95 callsubr
        </CharString>
        <CharString name="Ldotbelowmacron">
          1276 423 12 callsubr
          744 -1776 rmoveto
          -29 callsubr
          0 callsubr
          572 -114 -95 callsubr
        </CharString>
        <CharString name="Ljecyrillic">
          2245 24 171 rmoveto
          -117 80 -81 133 243 104 285 576 140 vhcurveto
          50 187 51 216 22 95 rrcurveto
          359 hlineto
          -237 -1113 rlineto
          -19 -89 -26 -20 -123 -23 -18 -87 rcurveline
          787 hlineto
          440 307 183 322 247 -228 130 -332 hvcurveto
          -181 hlineto
          74 343 19 90 29 17 133 25 rlinecurve
          19 87 -1311 227 callsubr
          hvcurveto
          1805 362 rmoveto
          -231 -128 -186 -229 -12 vhcurveto
          -60 -2 143 677 65 -1 rlineto
          127 -3 82 -77 -165 vvcurveto
          endchar
        </CharString>
        <CharString name="Llinebelow">
          8 callsubr
          215 -381 124 callsubr
        </CharString>
        <CharString name="Lslash">
          1276 176 621 rmoveto
          146 34 -93 -436 -19 -89 -24 -20 -122 -23 rlinecurve
          -19 -87 1163 0 -29 callsubr
          142 669 290 68 22 100 -291 -68 75 356 19 89 25 19 128 24 rlinecurve
          18 87 -748 0 -18 -87 107 -21 18 -30 -23 -112 rlinecurve
          -93 -439 -144 -33 rlineto
          endchar
        </CharString>
        <CharString name="M">
          1928 1030 1444 32 callsubr
        </CharString>
        <CharString name="Macute">
          1928 1357 -104 callsubr
          -87 callsubr
          -733 -403 32 callsubr
        </CharString>
        <CharString name="Mdotaccent">
          1928 1321 126 callsubr
          -93 -101 -73 callsubr
          -291 -76 32 callsubr
        </CharString>
        <CharString name="Mdotbelow">
          1928 1030 1444 rmoveto
          -650 hlineto
          -19 -87 120 -22 17 -44 -31 -128 rlinecurve
          -200 -836 -46 -181 -27 -41 -129 -18 rlinecurve
          -18 -87 430 0 18 87 -120 18 -13 34 40 188 rlinecurve
          167 798 117 -1125 251 0 278 565 293 594 -169 -945 -16 -85 -26 -23 -123 -19 rlinecurve
          -19 -87 737 0 19 87 -113 18 -14 22 16 87 rlinecurve
          184 1016 16 85 24 23 124 19 rlinecurve
          19 87 -662 0 -397 -873 rlineto
          -343 -685 -95 callsubr
        </CharString>
        <CharString name="Mugreek">
          1928 1030 1444 32 callsubr
        </CharString>
        <CharString name="N">
          1525 933 1444 141 callsubr
          endchar
        </CharString>
        <CharString name="Nacute">
          1525 1173 -104 callsubr
          -87 callsubr
          -646 -403 141 callsubr
          endchar
        </CharString>
        <CharString name="Ncaron">
          1525 1416 -31 callsubr
          -589 -410 141 callsubr
          endchar
        </CharString>
        <CharString name="Ncircumflexbelow">
          1525 59 callsubr
          -942 -916 71 callsubr
          -256 0 -280 -366 rlineto
          endchar
        </CharString>
        <CharString name="Ncommaaccent">
          1525 59 callsubr
          -716 -925 rmoveto
          196 95 79 121 116 -92 69 -114 -91 -82 -39 -56 -42 hvcurveto
          -16 -67 rlineto
          5 18 31 5 160 callsubr
        </CharString>
        <CharString name="Ndotaccent">
          1525 1137 126 callsubr
          -93 -101 -73 callsubr
          -204 -76 141 callsubr
          endchar
        </CharString>
        <CharString name="Ndotbelow">
          1525 59 callsubr
          -663 -566 173 callsubr
        </CharString>
        <CharString name="Ngrave">
          1525 1157 115 callsubr
          86 hlineto
          -289 -83 141 callsubr
          endchar
        </CharString>
        <CharString name="Njecyrillic">
          2373 698 219 rmoveto
          106 499 400 0 -106 -499 rlineto
          -19 -89 -25 -20 -121 -23 -19 -87 rcurveline
          785 hlineto
          440 307 170 298 238 -228 125 -333 hvcurveto
          -190 hlineto
          84 394 19 90 29 17 134 25 rlinecurve
          18 87 -758 0 -18 -87 109 -23 19 -18 -19 -91 rlinecurve
          -84 -394 -400 0 84 394 19 89 23 20 118 23 rlinecurve
          18 87 -736 0 -19 -87 110 -23 19 -18 -19 -91 rlinecurve
          73 callsubr
          -121 -23 rlinecurve
          -19 -87 735 0 19 87 -105 22 -17 19 19 91 rlinecurve
          1260 277 rmoveto
          -211 -128 -169 -229 -12 vhcurveto
          -60 -2 133 626 75 -1 rlineto
          128 -3 81 -73 -155 vvcurveto
          endchar
        </CharString>
        <CharString name="Nlinebelow">
          1525 59 callsubr
          -1020 -833 -80 callsubr
        </CharString>
        <CharString name="Ntilde">
          1525 1260 1551 rmoveto
          99 -46 callgsubr
          163 callsubr
          61 hhcurveto
          -327 -107 141 callsubr
          endchar
        </CharString>
        <CharString name="Nugreek">
          1525 933 1444 141 callsubr
          endchar
        </CharString>
        <CharString name="O">
          51 callsubr
          -106 callsubr
          -100 callsubr
        </CharString>
        <CharString name="OE">
          2091 226 646 rmoveto
          -431 307 -240 382 vhcurveto
          121 70 25 131 hhcurveto
          800 hlineto
          108 461 rlineto
          -79 hlineto
          -111 -263 -100 -80 -226 -12 rrcurveto
          -143 -6 124 586 105 -2 103 -6 20 -42 -4 -170 rlinecurve
          77 hlineto
          112 533 rlineto
          -76 hlineto
          -62 -159 -40 -45 -108 -6 rrcurveto
          -105 -3 118 558 125 -6 225 -13 34 -64 13 -249 rlinecurve
          79 hlineto
          78 432 rlineto
          -861 hlineto
          -127 -83 26 -142 hhcurveto
          -522 -343 -361 -463 hvcurveto
          479 -149 rmoveto
          387 169 473 289 49 41 -10 -14 28 vhcurveto
          -263 -1236 rlineto
          -7 -18 -22 -3 -22 hhcurveto
          -151 -100 122 288 hvcurveto
          endchar
        </CharString>
        <CharString name="Oacute">
          1688 1182 -104 callsubr
          -87 callsubr
          -661 -1874 -102 callsubr
          -106 callsubr
          -100 callsubr
        </CharString>
        <CharString name="Obreve">
          1688 1160 102 callsubr
          -17 -96 22 callsubr
          5 -1 3 -7 callsubr
          109 callgsubr
          -233 -1580 -102 callsubr
          -106 callsubr
          -100 callsubr
        </CharString>
        <CharString name="Ocaron">
          1688 1425 1854 rmoveto
          -262 74 callsubr
          137 58 callsubr
          -604 -1881 -102 callsubr
          -106 callsubr
          -100 callsubr
        </CharString>
        <CharString name="Ocircumflex">
          1688 894 -79 callsubr
          -75 callsubr
          -76 callsubr
          131 -1557 -102 callsubr
          -106 callsubr
          -100 callsubr
        </CharString>
        <CharString name="Ocircumflexacute">
          1688 1553 108 callsubr
          -60 -283 rmoveto
          25 callsubr
          52 callsubr
          162 -1596 -102 callsubr
          -106 callsubr
          -100 callsubr
        </CharString>
        <CharString name="Ocircumflexdotbelow">
          1688 894 -79 callsubr
          -75 callsubr
          -76 callsubr
          131 -1557 -102 callsubr
          -106 callsubr
          hvcurveto
          -58 callsubr
          -31 114 rmoveto
          -119 113 callsubr
          -68 callgsubr
          -75 -201 -95 callsubr
        </CharString>
        <CharString name="Ocircumflexgrave">
          1688 830 34 callgsubr
          25 callsubr
          52 callsubr
          162 -1596 -102 callsubr
          -106 callsubr
          -100 callsubr
        </CharString>
        <CharString name="Ocircumflexhookabove">
          1688 1526 223 callsubr
          25 callsubr
          52 callsubr
          162 -1596 -102 callsubr
          -106 callsubr
          -100 callsubr
        </CharString>
        <CharString name="Ocircumflextilde">
          1688 1322 45 callgsubr
          -55 hhcurveto
          16 callgsubr
          -1 callgsubr
          25 callsubr
          52 callsubr
          162 -1596 -102 callsubr
          -106 callsubr
          -100 callsubr
        </CharString>
        <CharString name="Ocyrillic">
          51 callsubr
          -106 callsubr
          -100 callsubr
        </CharString>
        <CharString name="Odblgrave">
          1688 1000 -14 callgsubr
          -383 -1554 -102 callsubr
          -106 callsubr
          -100 callsubr
        </CharString>
        <CharString name="Odieresis">
          1688 963 -95 callgsubr
          hvcurveto
          79 1 -61 62 -79 hhcurveto
          -86 63 callsubr
          365 hmoveto
          85 70 69 82 79 -60 62 -80 -85 63 callsubr
          -401 -1568 -102 callsubr
          -106 callsubr
          -100 callsubr
        </CharString>
        <CharString name="Odieresismacron">
          1688 827 1863 rmoveto
          725 hlineto
          32 150 rlineto
          -724 hlineto
          82 -466 rmoveto
          75 70 46 66 13 hvcurveto
          66 14 -18 callsubr
          -66 -14 hvcurveto
          -66 -14 49 -46 74 hhcurveto
          391 hmoveto
          73 70 46 66 14 hvcurveto
          66 14 -50 45 -74 hhcurveto
          -17 hlineto
          -73 -70 -45 -66 -14 hvcurveto
          -66 -14 50 -46 74 hhcurveto
          -373 -1574 -102 callsubr
          -106 callsubr
          -100 callsubr
        </CharString>
        <CharString name="Odotaccent">
          1688 1146 1520 rmoveto
          100 80 79 94 91 7 callsubr
          -219 -1547 -102 callsubr
          -106 callsubr
          -100 callsubr
        </CharString>
        <CharString name="Odotaccentmacron">
          1688 821 222 callsubr
          -222 -1566 -102 callsubr
          -106 callsubr
          -100 callsubr
        </CharString>
        <CharString name="Odotbelow">
          51 callsubr
          -106 callsubr
          hvcurveto
          -58 callsubr
          -31 114 rmoveto
          -119 113 callsubr
          -68 callgsubr
          -75 -201 -95 callsubr
        </CharString>
        <CharString name="Ograve">
          1688 1166 115 callsubr
          85 hlineto
          -303 -1554 -102 callsubr
          -106 callsubr
          -100 callsubr
        </CharString>
        <CharString name="Ohookabove">
          1688 1199 1870 rmoveto
          -113 -5 callgsubr
          -110 vhcurveto
          -272 -1897 -102 callsubr
          -106 callsubr
          -100 callsubr
        </CharString>
        <CharString name="Ohorn">
          1725 225 643 rmoveto
          -58 callsubr
          -15 callsubr
          197 callsubr
          endchar
        </CharString>
        <CharString name="Ohornacute">
          1725 1185 -104 callsubr
          -87 callsubr
          -1366 -1204 rmoveto
          -58 callsubr
          -15 callsubr
          197 callsubr
          endchar
        </CharString>
        <CharString name="Ohorndotbelow">
          1725 225 643 rmoveto
          -58 callsubr
          -15 callsubr
          197 callsubr
          140 -559 -95 callsubr
        </CharString>
        <CharString name="Ohorngrave">
          1725 1169 115 callsubr
          86 hlineto
          -1009 -884 rmoveto
          -58 callsubr
          -15 callsubr
          197 callsubr
          endchar
        </CharString>
        <CharString name="Ohornhookabove">
          1725 1203 29 callgsubr
          68 38 -26 -46 -47 -40 -47 -98 -57 callgsubr
          -88 62 -109 vhcurveto
          -978 -1227 rmoveto
          -58 callsubr
          -15 callsubr
          197 callsubr
          endchar
        </CharString>
        <CharString name="Ohorntilde">
          1725 1272 1551 rmoveto
          99 -46 callgsubr
          163 callsubr
          61 hhcurveto
          -1047 -908 rmoveto
          -58 callsubr
          -15 callsubr
          197 callsubr
          endchar
        </CharString>
        <CharString name="Ohungarumlaut">
          1688 957 1843 rmoveto
          -59 -314 87 0 285 30 callgsubr
          -756 -1870 -102 callsubr
          -106 callsubr
          -100 callsubr
        </CharString>
        <CharString name="Oinvertedbreve">
          1688 1164 54 callgsubr
          16 97 51 -92 callgsubr
          86 hlineto
          10 26 5 34 36 vvcurveto
          146 -114 122 -178 vhcurveto
          -237 -1944 -102 callsubr
          -106 callsubr
          -100 callsubr
        </CharString>
        <CharString name="Omacron">
          1688 813 109 callsubr
          73 -1803 -102 callsubr
          -106 callsubr
          -100 callsubr
        </CharString>
        <CharString name="Omacronacute">
          1688 1557 1891 rmoveto
          40 186 -768 -209 -15 -69 rlineto
          -46 -215 rmoveto
          -37 callgsubr
          127 -1761 -102 callsubr
          -106 callsubr
          -100 callsubr
        </CharString>
        <CharString name="Omacrongrave">
          1688 834 1891 rmoveto
          704 -92 14 69 -679 209 rlineto
          -105 -493 rmoveto
          -37 callgsubr
          127 -1761 -102 callsubr
          -106 callsubr
          -100 callsubr
        </CharString>
        <CharString name="Omegagreek">
          1728 119 hmoveto
          667 hlineto
          73 351 rlineto
          -112 63 -43 133 23 235 25 374 148 197 186 0 167 -1 88 -139 -27 -279 -21 -325 -107 -194 -161 -67 rrcurveto
          -71 -348 665 0 157 448 rlineto
          -69 hlineto
          -97 -154 -141 -61 -370 -5 11 54 rcurveline
          391 59 270 254 20 312 20 300 -233 256 -489 3 -503 3 -311 -295 -21 -349 -22 -255 176 -230 339 -56 rrcurveto
          -12 -56 -378 6 -99 65 -24 149 rlinecurve
          -70 hlineto
          endchar
        </CharString>
        <CharString name="Omegatonosgreek">
          2021 412 hmoveto
          666 hlineto
          73 351 rlineto
          -111 63 -44 133 24 235 24 374 149 197 185 0 167 -1 88 -139 -26 -279 -21 -325 -108 -194 -160 -67 rrcurveto
          -72 -348 665 0 158 448 rlineto
          -70 hlineto
          -96 -154 -141 -61 -371 -5 12 54 rcurveline
          391 59 269 254 20 312 20 300 -232 256 -490 3 -502 3 -311 -295 -22 -349 -22 -255 177 -230 338 -56 rrcurveto
          -11 -56 -378 6 -99 65 -25 149 rlinecurve
          -70 hlineto
          -115 996 47 callsubr
        </CharString>
        <CharString name="Omicrongreek">
          51 callsubr
          -106 callsubr
          -100 callsubr
        </CharString>
        <CharString name="Omicrontonosgreek">
          1970 1209 -27 -102 callsubr
          385 -262 285 -440 -513 -323 -363 -465 -8 hvcurveto
          -385 -7 268 -285 441 hhcurveto
          -868 1471 rmoveto
          -103 -405 144 0 27 callsubr
          449 -1357 rmoveto
          -118 113 callsubr
          67 -105 -253 -396 -154 -516 -236 hvcurveto
          endchar
        </CharString>
        <CharString name="Oogonek">
          1688 841 -483 53 callgsubr
          199 callsubr
        </CharString>
        <CharString name="Oogonekmacron">
          1688 813 109 callsubr
          -13 -2259 53 callgsubr
          199 callsubr
        </CharString>
        <CharString name="Oslash">
          51 callsubr
          182 callsubr
        </CharString>
        <CharString name="Oslashacute">
          1688 1182 -104 callsubr
          -87 callsubr
          -661 -1874 -102 callsubr
          182 callsubr
        </CharString>
        <CharString name="Otilde">
          1688 1268 -107 callgsubr
          -27 -29 -41 hhcurveto
          -28 -25 -47 callgsubr
          -61 hhcurveto
          -101 callgsubr
          49 callgsubr
          60 hhcurveto
          -341 -1578 -102 callsubr
          -106 callsubr
          -100 callsubr
        </CharString>
        <CharString name="Otildeacute">
          1688 1557 107 callsubr
          452 -244 rmoveto
          198 callsubr
        </CharString>
        <CharString name="Otildedieresis">
          1688 1001 1826 rmoveto
          75 70 45 66 13 hvcurveto
          67 14 -18 callsubr
          -67 -14 hvcurveto
          -66 -14 49 -45 74 hhcurveto
          391 hmoveto
          73 70 45 66 14 hvcurveto
          67 13 -49 45 -74 hhcurveto
          -17 hlineto
          -73 -70 -45 -67 -14 hvcurveto
          -66 -14 50 -45 74 hhcurveto
          -93 -271 rmoveto
          198 callsubr
        </CharString>
        <CharString name="Otildemacron">
          1688 827 99 callgsubr
          198 callsubr
        </CharString>
        <CharString name="P">
          1531 806 hmoveto
          33 callsubr
        </CharString>
        <CharString name="Pacute">
          1531 1154 1848 rmoveto
          -175 -87 callsubr
          -754 -1848 rmoveto
          33 callsubr
        </CharString>
        <CharString name="Pdotaccent">
          1531 1119 1521 rmoveto
          99 81 78 95 91 -71 71 -93 -100 76 callsubr
          -313 -1521 rmoveto
          33 callsubr
        </CharString>
        <CharString name="Pecyrillic">
          1709 1558 219 rmoveto
          214 1006 19 92 25 19 121 21 rlinecurve
          19 87 -1604 0 -19 -87 110 -23 19 -18 -19 -91 rlinecurve
          68 callsubr
          -18 -87 735 0 19 87 -105 22 -17 19 19 91 rlinecurve
          237 1113 395 0 -237 -1113 91 callgsubr
          -110 20 -19 19 20 93 rlinecurve
          endchar
        </CharString>
        <CharString name="Phigreek">
          1973 221 721 rmoveto
          -35 -310 213 -184 447 -14 rrcurveto
          -1 -7 -19 -89 -28 -25 -117 -22 rlinecurve
          -16 -75 642 0 17 75 rlineto
          -107 21 -19 26 19 89 2 7 rcurveline
          546 16 259 185 34 311 36 314 -246 176 -416 12 rrcurveto
          1 6 20 89 28 25 116 22 rlinecurve
          15 75 -642 0 -15 -75 106 -19 19 -28 -19 -89 rlinecurve
          -1 -6 -512 -13 -291 -177 -36 -316 rlinecurve
          470 -3 rmoveto
          25 229 128 179 196 8 rrcurveto
          -172 -820 -136 34 -65 158 24 212 rlinecurve
          899 8 rmoveto
          -27 -236 -123 -173 -202 -10 rrcurveto
          173 820 134 -36 67 -160 -22 -205 rlinecurve
          endchar
        </CharString>
        <CharString name="Pigreek">
          1700 1563 223 rmoveto
          211 996 19 89 19 27 131 22 rlinecurve
          18 87 -1608 0 -19 -87 117 -24 11 -23 -18 -89 rlinecurve
          -212 -998 -19 -89 -23 -24 -126 -23 rlinecurve
          -18 -87 737 0 18 87 -110 21 -10 27 19 88 rlinecurve
          235 1113 396 0 -235 -1113 -19 -89 -20 -25 -120 -22 rlinecurve
          -18 -87 735 0 18 87 -120 21 -8 26 19 89 rlinecurve
          endchar
        </CharString>
        <CharString name="Psigreek">
          2035 647 hmoveto
          717 hlineto
          19 87 rlineto
          -125 21 -21 26 19 89 54 258 rcurveline
          389 17 203 130 141 381 65 175 rcurveline
          46 122 34 34 94 6 19 88 rcurveline
          5 -36 -81 8 -70 hhcurveto
          -226 -117 -70 -247 -90 hvcurveto
          -64 -175 -86 -237 -61 -98 -136 -27 rlinecurve
          133 628 19 89 27 25 110 22 rlinecurve
          19 87 -662 0 -18 -87 rlineto
          100 -22 18 -25 -20 -89 -132 -628 rcurveline
          -124 27 -18 99 13 236 10 174 rcurveline
          246 14 -88 72 -227 hhcurveto
          -70 -84 -8 -5 -38 hvcurveto
          -18 -88 92 -6 21 -34 -6 -122 rlinecurve
          -9 -175 -20 -381 147 -130 381 -17 rlinecurve
          -55 -258 -18 -89 -32 -26 -133 -21 rlinecurve
          endchar
        </CharString>
        <CharString name="Q">
          1719 1349 -428 rmoveto
          133 120 37 55 75 hvcurveto
          16 81 rlineto
          -126 -13 -87 32 -152 161 -91 98 rcurveline
          332 114 202 301 363 vvcurveto
          -106 callsubr
          vhcurveto
          -6 -320 185 -251 315 -75 153 -175 rcurveline
          -194 169 138 -56 170 hhcurveto
          -453 515 234 callsubr
        </CharString>
        <CharString name="R">
          1563 1088 hmoveto
          31 callsubr
          endchar
        </CharString>
        <CharString name="Racute">
          1563 1071 -104 callsubr
          -87 callsubr
          -389 -1847 rmoveto
          31 callsubr
          endchar
        </CharString>
        <CharString name="Rcaron">
          1563 1314 1854 rmoveto
          -262 -130 -197 130 -103 0 136 58 callsubr
          -332 -1854 rmoveto
          31 callsubr
          endchar
        </CharString>
        <CharString name="Rcommaaccent">
          1563 1088 hmoveto
          31 callsubr
          -390 -1551 1 callsubr
          -42 callsubr
          -44 -41 13 17 -34 hvcurveto
          -17 -72 rlineto
          -49 49 81 -27 90 hhcurveto
          endchar
        </CharString>
        <CharString name="Rdblgrave">
          1563 890 1840 rmoveto
          -312 78 callgsubr
          -112 -1527 rmoveto
          31 callsubr
          endchar
        </CharString>
        <CharString name="Rdotaccent">
          1563 1036 -57 callsubr
          -73 callsubr
          52 -1520 rmoveto
          31 callsubr
          endchar
        </CharString>
        <CharString name="Rdotbelow">
          1563 1088 hmoveto
          31 callsubr
          -337 -1192 -95 callsubr
        </CharString>
        <CharString name="Rdotbelowmacron">
          1563 702 12 callsubr
          345 -1776 rmoveto
          31 callsubr
          -337 -1192 -95 callsubr
        </CharString>
        <CharString name="Rhogreek">
          1531 806 hmoveto
          33 callsubr
        </CharString>
        <CharString name="Rinvertedbreve">
          1563 1053 162 callsubr
          -50 callgsubr
          85 hlineto
          10 88 callgsubr
          35 -1917 rmoveto
          31 callsubr
          endchar
        </CharString>
        <CharString name="Rlinebelow">
          1563 1088 hmoveto
          31 callsubr
          -694 -1459 -80 callsubr
        </CharString>
        <CharString name="S">
          1241 617 -28 80 callsubr
          endchar
        </CharString>
        <CharString name="Sacute">
          1241 1017 -104 callsubr
          -87 callsubr
          -806 -1875 80 callsubr
          endchar
        </CharString>
        <CharString name="Sacutedotaccent">
          1241 1037 1784 rmoveto
          77 60 49 70 -1 hvcurveto
          71 -2 -63 49 -77 hhcurveto
          -77 -61 -49 -71 2 hvcurveto
          -70 2 62 -49 78 hhcurveto
          299 -164 rmoveto
          39 186 -768 -209 -14 -69 rlineto
          24 -1556 80 callsubr
          endchar
        </CharString>
        <CharString name="Scaron">
          1241 1260 -25 callsubr
          58 callsubr
          -749 -1882 80 callsubr
          endchar
        </CharString>
        <CharString name="Scarondotaccent">
          1241 1042 1806 rmoveto
          77 60 50 70 -1 hvcurveto
          71 -2 -63 49 -77 hhcurveto
          -77 -61 -49 -71 2 hvcurveto
          -70 2 62 -50 78 hhcurveto
          342 -2 rmoveto
          -387 -80 -354 80 -15 -72 301 -185 62 0 379 185 rlineto
          -753 -1760 80 callsubr
          endchar
        </CharString>
        <CharString name="Scedilla">
          1241 518 -474 rmoveto
          184 115 84 123 113 -98 73 -141 1 hvcurveto
          54 52 rlineto
          380 5 254 203 287 vvcurveto
          168 -80 123 -182 116 vhcurveto
          -93 64 rlineto
          -118 78 -49 61 90 vvcurveto
          107 89 78 125 169 101 -131 -261 12 vhcurveto
          80 hlineto
          69 395 rlineto
          58 -82 -169 58 -210 hhcurveto
          -421 -216 -224 -261 -177 74 -112 188 -119 hvcurveto
          92 -64 rlineto
          125 -82 43 -62 -96 vvcurveto
          -114 -92 -70 -132 -169 -147 128 271 2 vhcurveto
          -81 hlineto
          -67 -420 83 -44 149 -40 171 -10 rlinecurve
          -124 -126 -13 23 callsubr
          32 -27 callgsubr
          -25 hvcurveto
          -18 -79 rlineto
          -57 48 84 -36 96 hhcurveto
          endchar
        </CharString>
        <CharString name="Schwa">
          1598 825 -28 rmoveto
          491 339 335 471 438 -320 254 -423 -154 -187 -32 -61 -121 hvcurveto
          -87 -419 rlineto
          84 hlineto
          269 113 169 125 152 hhcurveto
          196 84 -169 -297 -54 -2 -52 -3 -50 hvcurveto
          -906 hlineto
          -26 -65 -17 -82 -80 vvcurveto
          -258 155 -273 463 vhcurveto
          -192 405 rmoveto
          87 13 95 20 66 vhcurveto
          480 3 rlineto
          -334 -41 -121 -210 -157 hhcurveto
          -135 -59 128 165 hvcurveto
          endchar
        </CharString>
        <CharString name="Scircumflex">
          1241 730 -79 callsubr
          131 194 -131 95 0 -136 -76 callsubr
          -15 -1558 80 callsubr
          endchar
        </CharString>
        <CharString name="Scommaaccent">
          1241 617 -28 80 callsubr
          -132 -445 1 callsubr
          160 callsubr
        </CharString>
        <CharString name="Sdotaccent">
          1241 982 -57 callsubr
          -73 callsubr
          -365 -1548 80 callsubr
          endchar
        </CharString>
        <CharString name="Sdotbelow">
          1241 617 -28 80 callsubr
          -79 -86 -95 callsubr
        </CharString>
        <CharString name="Sdotbelowdotaccent">
          1241 982 -57 callsubr
          -73 callsubr
          -365 -1548 80 callsubr
          -79 -86 -95 callsubr
        </CharString>
        <CharString name="Shacyrillic">
          2519 443 1225 rmoveto
          -214 -1006 -19 -92 -25 -19 -122 -21 rlinecurve
          -18 -87 2426 0 19 87 -110 23 -18 18 19 91 rlinecurve
          214 1006 19 211 callsubr
        </CharString>
        <CharString name="Shchacyrillic">
          2535 168 callsubr
          2022 hlineto
          251 43 -70 -269 14 hvcurveto
          85 hlineto
          84 451 -186 0 237 1113 19 211 callsubr
        </CharString>
        <CharString name="Sigmagreek">
          85 callgsubr
          -84 381 -694 -615 -580 -18 -86 1215 0 136 578 rlineto
          -95 hlineto
          -222 -98 -81 -53 -263 hhcurveto
          -384 hlineto
          602 559 5 24 -255 458 224 -4 283 -4 36 -68 9 -230 rlinecurve
          80 hlineto
          endchar
        </CharString>
        <CharString name="Softsigncyrillic">
          1504 204 callsubr
          -488 28 66 callgsubr
        </CharString>
        <CharString name="T">
          -32 callsubr
          endchar
        </CharString>
        <CharString name="Taugreek">
          -32 callsubr
          endchar
        </CharString>
        <CharString name="Tbar">
          1415 323 694 rmoveto
          298 hlineto
          -101 -476 -19 -88 -27 -21 -132 -22 rlinecurve
          -19 -87 129 callsubr
          90 rlinecurve
          101 476 298 0 20 92 -299 0 119 558 27 -2 185 -16 57 -80 3 -235 rlinecurve
          80 hlineto
          75 433 -1283 0 -105 -433 rlineto
          80 hlineto
          103 61 callsubr
          -118 -558 rlineto
          -298 hlineto
          endchar
        </CharString>
        <CharString name="Tcaron">
          1415 1345 -31 callsubr
          203 -410 rmoveto
          -1283 -83 callgsubr
          61 callsubr
          110 callsubr
          129 callsubr
          98 callsubr
          endchar
        </CharString>
        <CharString name="Tcedilla">
          1415 639 -11 callsubr
          77 74 1 6 314 0 18 87 -121 22 -20 19 20 98 callsubr
          75 433 -1283 0 -105 -433 rlineto
          80 hlineto
          103 61 callsubr
          110 callsubr
          353 0 -148 -151 -55 callsubr
          8 hhcurveto
          60 3 callsubr
        </CharString>
        <CharString name="Tcircumflexbelow">
          -32 callsubr
          -1198 -1475 71 callsubr
          67 callsubr
        </CharString>
        <CharString name="Tcommaaccent">
          -32 callsubr
          -972 -1484 rmoveto
          196 95 97 callsubr
          70 callsubr
          -67 -44 -60 callsubr
        </CharString>
        <CharString name="Tdotaccent">
          1415 1067 -57 callsubr
          -73 callsubr
          587 -76 rmoveto
          -1283 -83 callgsubr
          61 callsubr
          110 callsubr
          129 callsubr
          98 callsubr
          endchar
        </CharString>
        <CharString name="Tdotbelow">
          -32 callsubr
          -920 -1125 -95 callsubr
        </CharString>
        <CharString name="Tecyrillic">
          -32 callsubr
          endchar
        </CharString>
        <CharString name="Thetagreek">
          1784 957 -28 rmoveto
          494 371 330 433 41 hvcurveto
          44 433 -283 304 -491 -1 rrcurveto
          -494 -369 -331 -433 -43 hvcurveto
          -431 -43 283 -304 490 hhcurveto
          10 101 rmoveto
          -207 -95 231 410 53 hvcurveto
          417 53 120 240 232 hhcurveto
          209 94 -228 -414 -53 hvcurveto
          -417 -53 -120 -239 -233 hhcurveto
          -202 392 rmoveto
          65 hlineto
          138 49 49 53 80 hhcurveto
          46 hlineto
          80 27 -53 -138 -10 hvcurveto
          66 hlineto
          108 511 rlineto
          -66 hlineto
          -138 -49 -49 -52 -80 hhcurveto
          -45 hlineto
          -80 -28 52 138 10 hvcurveto
          -65 hlineto
          endchar
        </CharString>
        <CharString name="Thorn">
          1521 208 218 rmoveto
          -19 -90 -25 -19 -122 -23 rrcurveto
          -18 -87 742 0 18 87 rlineto
          -109 23 -18 18 19 91 22 103 rcurveline
          174 hlineto
          371 344 134 316 217 -165 162 -414 hvcurveto
          -134 hlineto
          15 74 19 89 26 20 121 23 rlinecurve
          -37 callsubr
          109 -23 19 -18 -19 -91 rlinecurve
          677 -415 rmoveto
          1 -196 -117 -178 -208 -11 rrcurveto
          -56 -2 133 628 52 -2 rlineto
          130 -7 65 -105 -127 vvcurveto
          endchar
        </CharString>
        <CharString name="Tlinebelow">
          -32 callsubr
          -1277 -1392 124 callsubr
        </CharString>
        <CharString name="Tsecyrillic">
          1712 168 callsubr
          1201 hlineto
          254 44 -70 -269 14 hvcurveto
          84 hlineto
          84 451 -191 0 237 1113 19 89 25 20 121 23 rlinecurve
          19 87 -736 0 -18 -87 105 -22 17 -19 -19 -91 rlinecurve
          -236 -1113 -396 156 callsubr
        </CharString>
        <CharString name="Tshecyrillic">
          1945 1656 1444 rmoveto
          -1285 -83 callgsubr
          224 callsubr
          18 56 51 12 73 hhcurveto
          137 56 -83 -171 -36 hvcurveto
          -95 -438 607 0 18 87 rlineto
          -112 18 -14 22 17 87 33 155 rcurveline
          321 65 -173 147 -326 hhcurveto
          -146 -101 -26 -31 -85 hvcurveto
          57 callgsubr
          endchar
        </CharString>
        <CharString name="U">
          1535 814 -27 -92 callsubr
        </CharString>
        <CharString name="Uacute">
          1535 1230 -104 callsubr
          -46 callsubr
          -822 -1874 -92 callsubr
        </CharString>
        <CharString name="Ubreve">
          1535 1209 1553 67 callgsubr
          -142 hhcurveto
          -119 -84 54 72 5 0 3 -7 callsubr
          -6 -34 -36 vvcurveto
          -145 114 -123 179 vhcurveto
          -395 -1580 -92 callsubr
        </CharString>
        <CharString name="Ubrevecyrillic">
          1516 1191 1553 rmoveto
          193 176 102 227 60 hvcurveto
          -92 -48 callgsubr
          -19 -17 1 2 -16 hvcurveto
          41 170 callsubr
          -958 -1378 188 callsubr
        </CharString>
        <CharString name="Ucaron">
          1535 1473 -25 callsubr
          -41 callgsubr
          -765 -1881 -92 callsubr
        </CharString>
        <CharString name="Ucircumflex">
          1535 943 -79 callsubr
          -75 callsubr
          -76 callsubr
          -31 -1557 -92 callsubr
        </CharString>
        <CharString name="Ucircumflexbelow">
          84 callsubr
          -311 -437 71 callsubr
          67 callsubr
        </CharString>
        <CharString name="Ucyrillic">
          1516 233 175 188 callsubr
        </CharString>
        <CharString name="Udblgrave">
          1535 1049 1840 rmoveto
          -312 110 callgsubr
          -298 -6 hlineto
          154 -307 rlineto
          81 hlineto
          -545 -1554 -92 callsubr
        </CharString>
        <CharString name="Udieresis">
          1535 1012 -95 callgsubr
          -91 callgsubr
          29 callsubr
          -93 callgsubr
          -103 callgsubr
          -563 -1568 -92 callsubr
        </CharString>
        <CharString name="Udieresisacute">
          1535 1606 107 callsubr
          129 -252 -40 callsubr
          -51 45 -73 -100 callgsubr
          -14 50 -46 -9 callsubr
          46 66 14 hvcurveto
          66 14 -18 callsubr
          -66 -15 hvcurveto
          -66 -14 50 -46 74 hhcurveto
          -535 -1574 -92 callsubr
        </CharString>
        <CharString name="Udieresisbelow">
          84 callsubr
          -270 -421 rmoveto
          102 82 78 94 51 callgsubr
          449 hmoveto
          102 83 78 94 -1 51 callgsubr
          endchar
        </CharString>
        <CharString name="Udieresiscaron">
          1535 1643 2062 rmoveto
          -378 -78 -345 78 -16 -70 295 -178 59 0 369 178 rlineto
          -635 -445 -40 callsubr
          -51 45 -73 -100 callgsubr
          -14 50 -46 -9 callsubr
          46 66 14 hvcurveto
          66 14 -18 callsubr
          -66 -15 hvcurveto
          -66 -14 50 -46 74 hhcurveto
          -535 -1574 -92 callsubr
        </CharString>
        <CharString name="Udieresisgrave">
          1535 883 1891 57 callsubr
          70 -529 -40 callsubr
          -51 45 -73 -100 callgsubr
          -14 50 -46 -9 callsubr
          46 66 14 hvcurveto
          66 14 -18 callsubr
          -66 -15 hvcurveto
          -66 -14 50 -46 74 hhcurveto
          -535 -1574 -92 callsubr
        </CharString>
        <CharString name="Udieresismacron">
          1535 877 1863 rmoveto
          724 hlineto
          32 150 rlineto
          -724 hlineto
          83 -466 -40 callsubr
          -51 45 -73 -100 callgsubr
          -14 50 -46 -9 callsubr
          46 66 14 hvcurveto
          66 14 -18 callsubr
          -66 -15 hvcurveto
          -66 -14 50 -46 74 hhcurveto
          -535 -1574 -92 callsubr
        </CharString>
        <CharString name="Udotbelow">
          84 callsubr
          -33 -87 65 callsubr
          -98 callgsubr
        </CharString>
        <CharString name="Ugrave">
          1535 1215 1843 rmoveto
          -385 -97 callgsubr
          -465 -1554 -92 callsubr
        </CharString>
        <CharString name="Uhookabove">
          1535 1248 -82 callgsubr
          46 13 47 hhcurveto
          68 38 -26 -46 -47 -41 -47 -97 -57 callgsubr
          -89 62 -109 vhcurveto
          -434 -1897 -92 callsubr
        </CharString>
        <CharString name="Uhorn">
          1712 300 666 rmoveto
          -21 callsubr
          186 callsubr
          endchar
        </CharString>
        <CharString name="Uhornacute">
          1712 1235 -104 callsubr
          -87 callsubr
          -1341 -1181 rmoveto
          -21 callsubr
          186 callsubr
          endchar
        </CharString>
        <CharString name="Uhorndotbelow">
          1712 300 666 rmoveto
          -21 callsubr
          186 callsubr
          311 -1338 65 callsubr
          -98 callgsubr
        </CharString>
        <CharString name="Uhorngrave">
          1712 1219 -55 callgsubr
          -984 -861 rmoveto
          -21 callsubr
          186 callsubr
          endchar
        </CharString>
        <CharString name="Uhornhookabove">
          1712 1253 -82 callgsubr
          -20 callgsubr
          -953 -1204 rmoveto
          -21 callsubr
          186 callsubr
          endchar
        </CharString>
        <CharString name="Uhorntilde">
          1712 1322 1551 rmoveto
          99 2 90 64 30 250 rrcurveto
          -88 hlineto
          -84 -18 -27 101 callsubr
          -101 callgsubr
          17 27 176 callsubr
          -1022 -885 rmoveto
          -21 callsubr
          186 callsubr
          endchar
        </CharString>
        <CharString name="Uhungarumlaut">
          1535 1006 1843 rmoveto
          -59 -314 86 0 286 30 callgsubr
          -918 -1870 -92 callsubr
        </CharString>
        <CharString name="Uinvertedbreve">
          1535 1212 162 callsubr
          -50 callgsubr
          85 hlineto
          10 88 callgsubr
          -398 -1944 -92 callsubr
        </CharString>
        <CharString name="Umacron">
          1535 861 1583 rmoveto
          636 hlineto
          41 193 rlineto
          -635 hlineto
          -89 -1803 -92 callsubr
        </CharString>
        <CharString name="Umacrondieresis">
          1535 1051 1826 rmoveto
          74 70 45 66 14 hvcurveto
          67 14 -51 45 -73 hhcurveto
          -16 hlineto
          -74 -69 -45 -67 -15 hvcurveto
          -66 -14 50 -45 -9 callsubr
          45 66 14 hvcurveto
          67 14 -18 callsubr
          -67 -15 hvcurveto
          -66 -14 51 -45 73 hhcurveto
          -565 -242 rmoveto
          672 hlineto
          32 150 rlineto
          -671 hlineto
          -62 -1761 -92 callsubr
        </CharString>
        <CharString name="Uogonek">
          1535 801 -69 callgsubr
          -13 -20 -9 -25 hhcurveto
          -68 -51 81 107 37 8 33 14 22 hvcurveto
          309 31 188 213 74 335 rrcurveto
          129 582 38 166 22 30 123 23 rlinecurve
          19 87 -419 0 -19 -87 rlineto
          121 -26 15 -29 -31 -164 -113 -569 rcurveline
          -249 -50 -132 116 callsubr
          26 callgsubr
          104 -23 17 -19 -19 -91 rlinecurve
          -118 -558 -102 -482 251 -192 317 -18 rlinecurve
          -154 -74 -69 -95 -96 vvcurveto
          -112 108 -80 151 vhcurveto
          endchar
        </CharString>
        <CharString name="Upsilondieresisgreek">
          1450 982 1541 rmoveto
          54 callsubr
          -70 -67 -85 64 callsubr
          175 callsubr
          -891 -378 -83 callsubr
          -74 callsubr
        </CharString>
        <CharString name="Upsilongreek">
          1450 456 1163 -83 callsubr
          -74 callsubr
        </CharString>
        <CharString name="Upsilontonosgreek">
          1962 968 1163 -83 callsubr
          18 87 -118 142 callsubr
          -627 281 47 callsubr
        </CharString>
        <CharString name="Uring">
          1535 915 1729 rmoveto
          -117 119 63 callgsubr
          -204 -116 -95 -111 vhcurveto
          219 -30 rmoveto
          88 42 70 53 36 22 -29 -54 -87 -40 -71 -54 -35 -24 29 54 vhcurveto
          -320 -1726 -92 callsubr
        </CharString>
        <CharString name="Utilde">
          1535 1317 -107 callgsubr
          -28 101 callsubr
          -99 -88 -65 -247 -31 hvcurveto
          -32 callgsubr
          -10 -18 29 hvcurveto
          27 -18 rlineto
          -32 48 52 -22 61 hhcurveto
          -503 -1578 -92 callsubr
        </CharString>
        <CharString name="Utildeacute">
          1535 1606 107 callsubr
          453 -244 rmoveto
          141 98 80 139 27 hvcurveto
          -104 hlineto
          -47 -10 -31 -22 -55 hhcurveto
          -32 -33 8 11 -39 hvcurveto
          -41 12 rlineto
          14 -52 -52 13 -58 hhcurveto
          -141 -98 -80 -139 -27 hvcurveto
          104 hlineto
          47 11 30 22 55 hhcurveto
          32 33 -7 -11 38 hvcurveto
          41 -12 rlineto
          -15 53 52 -13 58 hhcurveto
          -502 -1582 -92 callsubr
        </CharString>
        <CharString name="Utildebelow">
          84 callsubr
          86 -419 43 callgsubr
          -27 12 21 -33 hvcurveto
          -31 20 rlineto
          36 -54 -22 callgsubr
        </CharString>
        <CharString name="V">
          101 callgsubr
          endchar
        </CharString>
        <CharString name="Vdotbelow">
          101 callgsubr
          291 -1257 -95 callsubr
        </CharString>
        <CharString name="Vecyrillic">
          1560 1584 450 87 callsubr
        </CharString>
        <CharString name="Vtilde">
          1510 1302 -107 callgsubr
          -27 -29 -41 hhcurveto
          -28 -25 -47 callgsubr
          -62 hhcurveto
          -99 -87 -65 -247 -32 hvcurveto
          -32 callgsubr
          -10 -18 29 hvcurveto
          27 -18 rlineto
          -32 49 52 -22 60 hhcurveto
          -868 -408 rmoveto
          206 callsubr
          endchar
        </CharString>
        <CharString name="W">
          2296 410 1143 -5 callsubr
        </CharString>
        <CharString name="Wacute">
          2296 1685 -104 callsubr
          -46 callsubr
          -1681 -704 -5 callsubr
        </CharString>
        <CharString name="Wcircumflex">
          2296 1398 -79 callsubr
          -75 callsubr
          -76 callsubr
          -890 -387 -5 callsubr
        </CharString>
        <CharString name="Wdieresis">
          2296 1467 -95 callgsubr
          -91 callgsubr
          29 callsubr
          -93 callgsubr
          -103 callgsubr
          -1422 -398 -5 callsubr
        </CharString>
        <CharString name="Wdotaccent">
          2296 1650 66 callsubr
          7 callsubr
          -1240 -377 -5 callsubr
        </CharString>
        <CharString name="Wdotbelow">
          2296 410 1143 rmoveto
          109 -1148 343 0 486 996 79 -996 358 0 556 1118 99 201 45 26 101 17 rlinecurve
          18 87 -432 0 -18 -87 116 -12 12 -42 -81 -180 rlinecurve
          -336 -747 -50 762 -12 170 18 29 120 20 rlinecurve
          19 87 -724 0 -18 -87 113 -13 9 -79 -60 -134 rlinecurve
          -340 -755 -45 764 -8 157 20 40 124 20 rlinecurve
          19 87 -752 0 -19 -87 88 -15 28 -29 15 -170 rlinecurve
          686 -1257 -95 callsubr
        </CharString>
        <CharString name="Wgrave">
          2296 1670 1843 rmoveto
          -385 -97 callgsubr
          -1324 -384 -5 callsubr
        </CharString>
        <CharString name="X">
          1460 349 325 30 callsubr
        </CharString>
        <CharString name="Xdieresis">
          1460 1016 -95 callgsubr
          -91 callgsubr
          29 callsubr
          -93 callgsubr
          -103 callgsubr
          -1032 -1216 30 callsubr
        </CharString>
        <CharString name="Xdotaccent">
          1460 1199 66 callsubr
          7 callsubr
          -850 -1195 30 callsubr
        </CharString>
        <CharString name="Xigreek">
          1404 1620 1444 rmoveto
          -1225 hlineto
          -134 -520 rlineto
          84 hlineto
          192 86 67 30 248 hhcurveto
          395 hlineto
          248 54 -30 -192 5 hvcurveto
          83 hlineto
          -753 -256 rmoveto
          131 hlineto
          142 32 -47 -149 -5 hvcurveto
          79 hlineto
          106 502 rlineto
          -79 hlineto
          -148 -58 -52 -47 -143 hhcurveto
          -131 9 callgsubr
          560 -668 rmoveto
          142 578 rlineto
          -84 hlineto
          -226 -99 -76 -45 -265 hhcurveto
          -381 hlineto
          -265 -56 45 226 -3 hvcurveto
          -84 hlineto
          -102 -578 rlineto
          endchar
        </CharString>
        <CharString name="Xigreek.1">
          1414 59 hmoveto
          1289 hlineto
          143 578 rlineto
          -85 hlineto
          -226 -98 -76 -45 -265 hhcurveto
          -157 hlineto
          76 361 rlineto
          33 hlineto
          143 31 -47 -149 -4 hvcurveto
          78 hlineto
          106 502 rlineto
          -79 hlineto
          -148 -58 -52 -47 -142 hhcurveto
          -33 hlineto
          77 367 rlineto
          166 hlineto
          248 53 -30 -192 5 hvcurveto
          84 hlineto
          89 520 -1241 0 -135 -520 rlineto
          84 hlineto
          192 87 66 30 248 hhcurveto
          168 hlineto
          -77 -367 rlineto
          -37 9 callgsubr
          36 hlineto
          -76 -361 rlineto
          -163 hlineto
          -265 -55 45 226 -3 hvcurveto
          -85 hlineto
          endchar
        </CharString>
        <CharString name="Y">
          1450 456 1163 -83 callsubr
          -74 callsubr
        </CharString>
        <CharString name="Yacute">
          1450 1200 -104 callsubr
          -87 callsubr
          -1150 -684 -83 callsubr
          -74 callsubr
        </CharString>
        <CharString name="Ycircumflex">
          1450 913 -79 callsubr
          131 118 callsubr
          -359 -367 -83 callsubr
          -74 callsubr
        </CharString>
        <CharString name="Ydieresis">
          1450 982 1541 rmoveto
          54 callsubr
          -70 -67 -85 64 callsubr
          175 callsubr
          -891 -378 -83 callsubr
          -74 callsubr
        </CharString>
        <CharString name="Ydotaccent">
          1450 1165 -57 callsubr
          76 callsubr
          -709 -357 -83 callsubr
          -74 callsubr
        </CharString>
        <CharString name="Ydotbelow">
          1450 456 1163 -83 callsubr
          19 87 -119 142 callsubr
          241 -1277 -95 callsubr
        </CharString>
        <CharString name="Yericyrillic">
          2278 204 callsubr
          565 -286 rmoveto
          214 1006 19 89 24 20 123 23 rlinecurve
          18 87 -742 0 -19 -87 110 -17 18 -25 -19 -90 rlinecurve
          -214 -1006 -18 -89 -26 -20 -121 -23 rlinecurve
          -18 -87 742 0 18 87 -111 23 -17 19 19 90 rlinecurve
          -1053 314 66 callgsubr
        </CharString>
        <CharString name="Ygrave">
          1450 1184 -55 callgsubr
          -793 -364 -83 callsubr
          -74 callsubr
        </CharString>
        <CharString name="Yhookabove">
          1450 1218 29 callgsubr
          107 callgsubr
          54 82 63 90 vvcurveto
          90 -88 62 -109 vhcurveto
          -762 -707 -83 callsubr
          -74 callsubr
        </CharString>
        <CharString name="Yicyrillic">
          833 586 1542 rmoveto
          -12 callsubr
          -86 -69 -68 -84 -1 hvcurveto
          64 callsubr
          68 83 1 hvcurveto
          79 -60 62 -80 -86 -69 -68 -84 -1 vhcurveto
          -78 60 -62 81 vhcurveto
          -254 -1323 -91 callsubr
        </CharString>
        <CharString name="Ymacron">
          1450 831 12 callsubr
          -416 -613 -83 callsubr
          -74 callsubr
        </CharString>
        <CharString name="Ytilde">
          1450 1287 1 callgsubr
          16 28 176 callsubr
          -831 -388 -83 callsubr
          -74 callsubr
        </CharString>
        <CharString name="Z">
          1316 1245 hmoveto
          108 -71 callsubr
          -51 callgsubr
          endchar
        </CharString>
        <CharString name="Zacute">
          1316 1036 -104 callsubr
          -46 callsubr
          -197 -1847 rmoveto
          108 -71 callsubr
          -51 callgsubr
          endchar
        </CharString>
        <CharString name="Zcaron">
          1316 1279 -25 callsubr
          -41 callgsubr
          -140 -1854 rmoveto
          108 -71 callsubr
          -51 callgsubr
          endchar
        </CharString>
        <CharString name="Zcircumflex">
          1316 749 -79 callsubr
          -75 callsubr
          -76 callsubr
          594 -1530 rmoveto
          108 -71 callsubr
          -51 callgsubr
          endchar
        </CharString>
        <CharString name="Zdotaccent">
          1316 1001 66 callsubr
          7 callsubr
          244 -1520 rmoveto
          108 -71 callsubr
          -51 callgsubr
          endchar
        </CharString>
        <CharString name="Zdotbelow">
          1316 1245 hmoveto
          108 -71 callsubr
          -51 callgsubr
          565 -114 173 callsubr
        </CharString>
        <CharString name="Zecyrillic">
          1402 606 -27 rmoveto
          442 369 176 322 190 -184 98 -241 16 hvcurveto
          296 32 215 120 224 vvcurveto
          217 -215 103 -356 -209 -167 -45 -63 -108 vhcurveto
          -88 -373 rlineto
          83 hlineto
          239 102 145 125 165 hhcurveto
          112 64 -85 -127 -192 -115 -152 -216 hvcurveto
          -125 hlineto
          -24 -108 rlineto
          125 hlineto
          165 82 -91 -143 -186 -126 -180 -209 -1 hvcurveto
          -176 -101 136 231 -5 hvcurveto
          -82 hlineto
          -59 -369 rlineto
          -62 87 157 -52 197 hhcurveto
          endchar
        </CharString>
        <CharString name="Zetagreek">
          1316 1245 hmoveto
          108 -71 callsubr
          -51 callgsubr
          endchar
        </CharString>
        <CharString name="Zhecyrillic">
          2291 527 hmoveto
          464 671 67 1 -96 -453 -19 -89 -25 -20 -122 -23 rlinecurve
          -19 -87 745 0 18 87 -111 23 -18 18 19 91 rlinecurve
          96 453 68 -1 181 -671 521 0 18 84 -51 28 -25 29 -67 224 rlinecurve
          -188 661 135 116 175 151 68 40 139 24 rlinecurve
          19 87 -498 0 -18 -87 110 -24 12 -42 -94 -95 rlinecurve
          -415 -415 -67 -1 94 445 19 89 26 20 123 23 rlinecurve
          18 87 -746 0 -18 -87 112 -17 18 -24 -20 -91 rlinecurve
          -94 -445 -66 0 -247 418 -58 101 24 38 116 20 rlinecurve
          18 87 -498 0 -17 -87 131 -25 58 -32 109 -156 rlinecurve
          84 -113 -457 -653 rlineto
          -165 -231 -37 -36 -65 -27 -17 -84 rcurveline
          endchar
        </CharString>
        <CharString name="Zlinebelow">
          1316 1245 hmoveto
          108 -71 callsubr
          -51 callgsubr
          208 -381 -80 callsubr
        </CharString>
        <CharString name="a">
          1330 20 callsubr
          -107 callsubr
          -97 callsubr
        </CharString>
        <CharString name="a.dnum">
          830 114 204 rmoveto
          -139 1 76 -78 109 hhcurveto
          95 76 54 95 31 hvcurveto
          -3 -11 -1 -13 -12 vvcurveto
          -75 1 46 -34 77 hhcurveto
          93 78 39 52 41 hvcurveto
          13 57 rlineto
          -8 -14 -16 -5 -19 hhcurveto
          -29 -13 18 48 11 hvcurveto
          80 376 -170 0 -89 -72 rlineto
          45 -17 -55 40 -86 hhcurveto
          -183 -135 103 callgsubr
          184 91 hhcurveto
          26 16 -11 -15 4 hvcurveto
          -55 -260 rlineto
          -53 -13 -25 -32 -33 hhcurveto
          -25 -18 20 57 -2 hvcurveto
          endchar
        </CharString>
        <CharString name="a.numr">
          830 254 861 rmoveto
          -138 1 76 -78 109 hhcurveto
          95 76 54 94 30 hvcurveto
          -3 -10 0 -14 -12 vvcurveto
          -74 46 -35 78 93 77 40 51 41 vhcurveto
          13 57 rlineto
          -8 -13 -16 -5 -19 hhcurveto
          -29 -13 19 48 10 hvcurveto
          80 375 -169 0 -89 -72 rlineto
          45 -17 -56 40 -86 hhcurveto
          -182 -136 -155 -222 3 hvcurveto
          271 -15 rmoveto
          109 -2 36 185 91 hhcurveto
          25 17 -12 -15 4 hvcurveto
          -55 -259 rlineto
          -54 -13 -26 -32 -33 hhcurveto
          -25 -17 20 58 -2 hvcurveto
          endchar
        </CharString>
        <CharString name="a.sups">
          830 289 1030 rmoveto
          -139 2 75 -77 109 hhcurveto
          96 76 54 94 30 hvcurveto
          -3 -11 -1 -13 -12 vvcurveto
          -74 1 46 -35 78 hhcurveto
          93 77 40 51 41 hvcurveto
          13 57 rlineto
          -8 -13 -16 -5 -20 hhcurveto
          -29 -12 19 48 10 hvcurveto
          80 375 -169 0 -90 -72 rlineto
          45 -17 -55 40 -86 hhcurveto
          -182 -136 103 callgsubr
          185 91 hhcurveto
          26 16 -12 -15 5 hvcurveto
          -55 -260 rlineto
          -53 -14 -25 -32 -33 hhcurveto
          -25 -18 20 57 -2 hvcurveto
          endchar
        </CharString>
        <CharString name="aacute">
          1330 964 -96 callgsubr
          -1257 -1175 -99 callsubr
          -107 callsubr
          -97 callsubr
        </CharString>
        <CharString name="abreve">
          1330 933 144 callsubr
          -766 -784 -99 callsubr
          -107 callsubr
          -97 callsubr
        </CharString>
        <CharString name="abreveacute">
          1330 1325 -49 callsubr
          284 -327 85 callsubr
        </CharString>
        <CharString name="abrevecyrillic">
          1330 884 1157 rmoveto
          207 179 3 callgsubr
          42 59 69 vvcurveto
          104 -80 74 callgsubr
          -717 -788 -99 callsubr
          -107 callsubr
          -97 callsubr
        </CharString>
        <CharString name="abrevedotbelow">
          1330 933 144 callsubr
          -766 -784 -99 callsubr
          -107 callsubr
          35 callsubr
          53 -795 -98 callsubr
          -43 callsubr
        </CharString>
        <CharString name="abrevegrave">
          1330 619 -26 callsubr
          215 -652 85 callsubr
        </CharString>
        <CharString name="abrevehookabove">
          1330 1002 1733 rmoveto
          -97 -92 -43 -63 -6 callgsubr
          98 58 22 102 rlinecurve
          98 21 -80 67 -135 hhcurveto
          -122 -624 85 callsubr
        </CharString>
        <CharString name="abrevetilde">
          213 callsubr
          -215 -356 85 callsubr
        </CharString>
        <CharString name="acaron">
          1330 1226 -84 callsubr
          100 callsubr
          -1168 -1194 -99 callsubr
          -107 callsubr
          -97 callsubr
        </CharString>
        <CharString name="acircumflex">
          1330 635 -17 callsubr
          -35 callgsubr
          -94 callgsubr
          -359 -771 -99 callsubr
          -107 callsubr
          -97 callsubr
        </CharString>
        <CharString name="acircumflexacute">
          1330 1325 -49 callsubr
          -68 -323 rmoveto
          373 95 332 -95 18 85 -277 218 -58 0 -370 -218 rlineto
          -379 -829 -99 callsubr
          -107 callsubr
          -97 callsubr
        </CharString>
        <CharString name="acircumflexdotbelow">
          1330 635 -17 callsubr
          -35 callgsubr
          -94 callgsubr
          -359 -771 -99 callsubr
          -107 callsubr
          35 callsubr
          53 -795 -98 callsubr
          -43 callsubr
        </CharString>
        <CharString name="acircumflexgrave">
          1330 619 -26 callsubr
          -137 -648 rmoveto
          373 95 332 -95 18 85 -277 218 -58 0 -370 -218 rlineto
          -379 -829 -99 callsubr
          -107 callsubr
          -97 callsubr
        </CharString>
        <CharString name="acircumflexhookabove">
          1330 1285 55 callgsubr
          50 hhcurveto
          82 32 -33 -40 -8 hvcurveto
          -10 -44 -47 -34 -93 -17 rrcurveto
          66 -49 175 27 99 58 22 102 rlinecurve
          98 21 -81 67 -134 hhcurveto
          -757 -620 rmoveto
          373 95 332 -95 18 85 -277 218 -58 0 -370 -218 rlineto
          -379 -829 -99 callsubr
          -107 callsubr
          -97 callsubr
        </CharString>
        <CharString name="acircumflextilde">
          213 callsubr
          -567 -352 rmoveto
          373 95 332 -95 18 85 -277 218 -58 0 -370 -218 rlineto
          -379 -829 -99 callsubr
          -107 callsubr
          -97 callsubr
        </CharString>
        <CharString name="acute">
          1024 833 -85 callsubr
          endchar
        </CharString>
        <CharString name="acutecmb">
          0 321 -85 callsubr
          endchar
        </CharString>
        <CharString name="acutecmb.short">
          0 300 1431 rmoveto
          -176 -54 callgsubr
          endchar
        </CharString>
        <CharString name="acutedotaccentcmb">
          11 callgsubr
          282 -190 rmoveto
          47 218 -759 -246 -17 -80 rlineto
          endchar
        </CharString>
        <CharString name="acutedotaccentcmb.short">
          0 407 1784 rmoveto
          78 60 49 47 callgsubr
          -49 77 hhcurveto
          299 -164 rmoveto
          39 186 -767 -209 -15 -69 rlineto
          endchar
        </CharString>
        <CharString name="acyrillic">
          1330 20 callsubr
          -107 callsubr
          -97 callsubr
        </CharString>
        <CharString name="adblgrave">
          1330 743 1542 rmoveto
          -388 -104 callgsubr
          434 408 rmoveto
          -372 -8 hlineto
          188 -400 rlineto
          101 hlineto
          -958 -765 -99 callsubr
          -107 callsubr
          -97 callsubr
        </CharString>
        <CharString name="adieresis">
          1330 680 -47 callsubr
          -78 callsubr
          -44 callsubr
          -78 callsubr
          -996 -790 -99 callsubr
          -107 callsubr
          -97 callsubr
        </CharString>
        <CharString name="adieresismacron">
          1330 606 -71 callgsubr
          78 69 callsubr
          132 callsubr
          158 callsubr
          -16 52 -55 77 hhcurveto
          -903 -757 -99 callsubr
          -107 callsubr
          -97 callsubr
        </CharString>
        <CharString name="adotaccent">
          1330 921 -82 callsubr
          -24 callsubr
          -754 -779 -99 callsubr
          -107 callsubr
          -97 callsubr
        </CharString>
        <CharString name="adotbelow">
          1330 20 callsubr
          -107 callsubr
          35 callsubr
          53 -795 -98 callsubr
          -43 callsubr
        </CharString>
        <CharString name="adotmacron">
          1330 603 1472 134 callsubr
          271 -528 rmoveto
          82 64 58 83 84 -64 57 -82 -81 -65 -57 -84 -83 64 -58 82 hvcurveto
          -745 -752 -99 callsubr
          -107 callsubr
          -97 callsubr
        </CharString>
        <CharString name="ae">
          1647 236 781 136 callsubr
        </CharString>
        <CharString name="aeacute">
          1647 1148 -96 callgsubr
          -1372 -763 136 callsubr
        </CharString>
        <CharString name="aemacron">
          1647 732 -59 callsubr
          -544 -658 136 callsubr
        </CharString>
        <CharString name="agrave">
          1330 965 1542 rmoveto
          -439 -11 hlineto
          397 -397 rlineto
          104 hlineto
          -860 -765 -99 callsubr
          -107 callsubr
          -97 callsubr
        </CharString>
        <CharString name="ahookabove">
          1330 993 4 callgsubr
          -46 -55 -110 -57 hvcurveto
          101 hlineto
          226 63 95 74 106 vvcurveto
          108 -101 74 -123 vhcurveto
          -826 -1190 -99 callsubr
          -107 callsubr
          -97 callsubr
        </CharString>
        <CharString name="ainvertedbreve">
          1330 937 231 callsubr
          -770 -1180 -99 callsubr
          -107 callsubr
          -97 callsubr
        </CharString>
        <CharString name="alphagreek">
          1382 499 -22 184 callsubr
        </CharString>
        <CharString name="alphatonosgreek">
          1382 923 -106 callgsubr
          27 callsubr
          -811 -1569 184 callsubr
        </CharString>
        <CharString name="amacron">
          1330 549 102 callgsubr
          -430 -1070 -99 callsubr
          -107 callsubr
          -97 callsubr
        </CharString>
        <CharString name="ampersand">
          1612 92 347 rmoveto
          -209 155 -165 275 168 138 63 148 153 vhcurveto
          149 -184 522 0 13 59 -84 68 -79 78 -104 131 rlinecurve
          -117 150 131 137 154 157 50 33 108 13 rlinecurve
          17 87 -439 0 -17 -87 112 -14 22 -41 -88 -104 rlinecurve
          -100 -118 -257 327 rlineto
          237 54 144 95 150 vvcurveto
          178 -157 119 -293 -316 -193 -164 -233 vhcurveto
          -1 -108 40 -88 78 -109 rrcurveto
          -275 -62 -146 -145 -216 vvcurveto
          694 870 rmoveto
          90 55 48 71 78 41 -59 -107 -93 -41 -86 -74 -59 vhcurveto
          -93 124 -37 69 73 vvcurveto
          -296 -700 rmoveto
          75 30 61 50 41 vhcurveto
          8 -11 9 -11 10 -12 325 -403 rcurveline
          -20 -43 -42 -8 -45 hhcurveto
          -173 -129 123 165 hvcurveto
          endchar
        </CharString>
        <CharString name="anoteleiagreek">
          587 461 629 rmoveto
          125 105 94 128 115 -90 90 -128 -127 -104 -93 -129 -114 90 -91 129 hvcurveto
          endchar
        </CharString>
        <CharString name="aogonek">
          1330 20 callsubr
          -107 callsubr
          17 17 1 2 17 hvcurveto
          -208 -110 -79 -85 -106 vvcurveto
          -104 90 -63 133 112 101 49 68 44 vhcurveto
          18 84 rlineto
          -13 -19 -25 -7 -27 hhcurveto
          -42 -33 27 57 95 84 116 150 142 hvcurveto
          28 callsubr
          -32 -54 callsubr
          153 719 -274 0 -150 -126 rlineto
          78 -27 -92 70 -145 hhcurveto
          -315 -231 -290 -392 hvcurveto
          440 -33 rmoveto
          214 72 346 163 14 callgsubr
          endchar
        </CharString>
        <CharString name="approxequal">
          1304 1093 850 rmoveto
          -163 -139 223 -212 hhcurveto
          -186 -132 -141 -267 -30 hvcurveto
          145 hlineto
          153 26 74 73 105 165 140 -224 209 hhcurveto
          181 132 141 263 31 hvcurveto
          -145 hlineto
          -150 -27 -74 -71 -100 hhcurveto
          -116 -545 rmoveto
          -163 -139 223 -212 hhcurveto
          -187 -130 -142 -266 -31 hvcurveto
          145 hlineto
          154 27 72 71 107 164 140 -223 210 hhcurveto
          180 133 141 264 31 hvcurveto
          -145 hlineto
          -151 -28 -74 -71 -100 hhcurveto
          endchar
        </CharString>
        <CharString name="aring">
          1330 601 19 callsubr
          -17 callgsubr
          -47 -79 -58 -40 -25 32 62 vhcurveto
          -679 -939 -99 callsubr
          -107 callsubr
          -97 callsubr
        </CharString>
        <CharString name="aringacute">
          1330 1325 1547 rmoveto
          47 218 -758 -245 -18 -81 rlineto
          325 -324 rmoveto
          176 131 62 94 20 hvcurveto
          95 20 -105 62 -175 hhcurveto
          -81 hlineto
          -176 -131 -62 -95 -20 hvcurveto
          -94 -20 105 -62 175 hhcurveto
          69 77 rmoveto
          -25 hlineto
          -48 -20 32 47 10 hvcurveto
          49 10 35 32 47 hhcurveto
          25 hlineto
          47 22 -32 -49 -10 hvcurveto
          -47 -10 -36 -32 -47 hhcurveto
          -742 -823 -99 callsubr
          -107 callsubr
          -97 callsubr
        </CharString>
        <CharString name="aringbelow">
          1330 20 callsubr
          -107 callsubr
          35 callsubr
          -272 -624 167 callsubr
          -135 74 -171 148 callsubr
        </CharString>
        <CharString name="asciicircum">
          1321 883 1444 rmoveto
          -558 -600 106 -96 515 521 297 -521 122 96 -303 600 rlineto
          endchar
        </CharString>
        <CharString name="asciitilde">
          1304 1031 557 rmoveto
          -163 -138 224 -213 hhcurveto
          -187 -131 -142 -266 -30 hvcurveto
          145 hlineto
          153 27 73 72 106 165 139 -223 210 hhcurveto
          180 132 141 263 32 hvcurveto
          -145 hlineto
          -150 -28 -74 -72 -100 hhcurveto
          endchar
        </CharString>
        <CharString name="asterisk">
          984 781 1475 rmoveto
          -73 -47 -52 -96 -22 1 -24 5 -27 hvcurveto
          39 -190 18 0 122 181 rlineto
          30 45 11 42 34 vvcurveto
          66 -45 43 -61 vhcurveto
          -311 -139 rmoveto
          -69 -51 -52 -63 -60 41 -50 115 -28 hvcurveto
          181 -39 10 15 -80 166 rlineto
          82 -40 -57 29 -50 hhcurveto
          560 -57 rmoveto
          -53 -41 -22 -65 -67 hvcurveto
          -137 -134 7 -16 149 1 rlineto
          185 3 65 58 72 vvcurveto
          60 -43 43 -65 vhcurveto
          -635 -483 rmoveto
          53 40 24 64 68 hvcurveto
          136 135 -6 16 -149 -2 rlineto
          -185 -4 -64 -57 -72 vvcurveto
          -60 42 -44 65 vhcurveto
          680 59 rmoveto
          59 -40 52 -115 26 vhcurveto
          -182 40 -10 -15 80 -166 rlineto
          -82 39 59 -29 49 hhcurveto
          69 51 52 63 hvcurveto
          -430 -254 rmoveto
          72 47 52 95 23 -1 24 -5 27 hvcurveto
          -39 190 -19 0 -121 -181 rlineto
          -30 -46 -11 -41 -34 vvcurveto
          -66 45 -43 62 vhcurveto
          endchar
        </CharString>
        <CharString name="at">
          2158 1553 -304 rmoveto
          -2 88 rlineto
          -83 -135 -152 -20 -159 hhcurveto
          -429 -347 285 474 546 425 384 509 502 311 -288 -403 -303 -179 -201 -182 -96 -20 54 100 21 hvcurveto
          143 669 -229 0 -155 -123 rlineto
          89 -34 -82 56 -119 hhcurveto
          -281 -185 -296 -323 -227 100 -118 155 138 114 85 175 75 hvcurveto
          -4 -20 -1 -20 -17 vvcurveto
          -130 -2 91 -112 214 hhcurveto
          437 210 343 339 461 -387 323 -555 -596 -469 -443 -601 -545 410 -326 477 177 185 44 84 106 hvcurveto
          -482 712 rmoveto
          169 82 311 124 45 31 -37 -79 -14 vhcurveto
          -73 -344 rlineto
          -100 -22 -48 -60 -55 hhcurveto
          -49 -21 47 93 hvcurveto
          endchar
        </CharString>
        <CharString name="atilde">
          1330 1064 48 callsubr
          -100 hlineto
          -105 -21 -33 -35 -48 hhcurveto
          -35 -1 -29 14 -36 23 -33 22 rcurveline
          40 166 callsubr
          76 callgsubr
          -897 -795 -99 callsubr
          -107 callsubr
          -97 callsubr
        </CharString>
        <CharString name="austral">
          1442 83 386 rmoveto
          211 hlineto
          -53 -99 -79 -155 -40 -30 -102 -15 rlinecurve
          -19 -87 411 0 19 87 -104 15 -26 34 70 143 rlinecurve
          54 107 431 0 9 -119 9 -123 -19 -39 -124 -17 rlinecurve
          -18 -88 725 0 19 88 -90 13 -28 29 -14 137 rlinecurve
          -13 119 211 0 14 68 -232 0 -22 205 299 0 14 68 -320 0 -77 718 -348 0 -378 -718 -318 0 -14 -68 297 0 -108 -205 rlineto
          -233 hlineto
          500 273 rmoveto
          200 399 32 -399 rlineto
          -370 -273 rmoveto
          104 205 271 0 16 -205 rlineto
          endchar
        </CharString>
        <CharString name="austral.tnum">
          1364 101 448 rmoveto
          -15 -69 186 0 -46 -92 -76 -154 -37 -32 -87 -14 rlinecurve
          -18 -87 391 0 19 87 -105 16 -21 31 69 145 rlinecurve
          48 100 388 0 6 -112 6 -123 -18 -38 -125 -18 rlinecurve
          -19 -88 709 0 19 88 -75 11 -23 31 -10 137 rlinecurve
          -9 112 181 0 15 69 -202 0 -16 204 261 0 15 69 -282 0 -57 724 -366 0 -363 -724 -284 0 -15 -69 264 0 -103 -204 rlineto
          266 273 rmoveto
          189 395 20 -395 rlineto
          -339 -273 rmoveto
          97 204 245 0 10 -204 rlineto
          endchar
        </CharString>
        <CharString name="b">
          -70 callgsubr
          endchar
        </CharString>
        <CharString name="backslash">
          892 546 -288 rmoveto
          180 hlineto
          -104 1876 rlineto
          -180 hlineto
          endchar
        </CharString>
        <CharString name="baht">
          1504 1521 466 rmoveto
          153 -121 140 -281 26 vhcurveto
          259 13 215 95 200 vvcurveto
          177 -146 117 -335 23 vhcurveto
          47 221 -68 0 -47 -218 rlineto
          1 -19 -20 0 -21 hhcurveto
          -637 hlineto
          -18 -87 rlineto
          111 -23 17 -18 -19 -92 -198 -945 rcurveline
          -19 -89 -25 -20 -121 -23 -19 -87 rcurveline
          646 hlineto
          17 16 0 15 hhcurveto
          -46 -219 68 0 47 222 rlineto
          430 22 272 146 265 vvcurveto
          -617 848 rmoveto
          37 -2 rlineto
          30 -1 26 -5 23 -8 -102 -481 rcurveline
          -2 -17 -18 -2 -18 hhcurveto
          -68 hlineto
          353 270 rmoveto
          -118 -55 -91 -105 -40 vhcurveto
          91 429 rlineto
          45 -39 24 -61 -80 vvcurveto
          -374 -370 rmoveto
          66 -2 rlineto
          18 -1 17 -3 16 -4 -120 -567 rcurveline
          -23 -3 -24 -2 -26 -1 -49 -1 rcurveline
          403 335 rmoveto
          -142 -61 -122 -149 -48 vhcurveto
          112 525 rlineto
          63 -40 35 -73 -100 vvcurveto
          endchar
        </CharString>
        <CharString name="baht.tnum">
          -4 callgsubr
          162 -136 112 -308 21 vhcurveto
          47 221 -68 0 -47 -217 rlineto
          -13 -14 0 -15 hhcurveto
          -584 hlineto
          -19 -87 rlineto
          95 -19 18 -23 -19 -91 -199 -945 rcurveline
          -18 -89 -20 -22 -111 -21 -19 -87 rcurveline
          614 hlineto
          3 4 0 3 hhcurveto
          -47 -219 69 0 47 221 rlineto
          405 16 260 147 271 vvcurveto
          -558 848 rmoveto
          33 -2 rlineto
          22 -2 21 -3 18 -6 -103 -485 rcurveline
          -2 -12 -12 -1 -12 hhcurveto
          -62 hlineto
          327 296 rmoveto
          -125 -55 -106 -102 -43 vhcurveto
          93 434 rlineto
          42 -35 22 -53 -72 vvcurveto
          -348 -396 rmoveto
          48 -2 rlineto
          17 -1 16 -3 14 -3 -121 -570 rcurveline
          -2 -11 -12 -1 -11 hhcurveto
          -65 -2 rlineto
          376 371 rmoveto
          -156 -68 -142 -137 -51 vhcurveto
          112 528 rlineto
          61 -36 32 -65 -78 vvcurveto
          endchar
        </CharString>
        <CharString name="bar">
          892 295 -288 rmoveto
          180 hlineto
          398 1876 rlineto
          -180 hlineto
          endchar
        </CharString>
        <CharString name="bdotaccent">
          1326 732 1563 rmoveto
          117 95 92 111 107 -84 84 -109 -118 -96 -92 -114 -104 83 -84 112 hvcurveto
          647 -903 193 callsubr
          endchar
        </CharString>
        <CharString name="bdotbelow">
          -70 callgsubr
          -346 -1151 -98 callsubr
          62 callsubr
        </CharString>
        <CharString name="becyrillic">
          1307 1343 545 rmoveto
          274 -189 184 -290 -231 -181 -124 -177 -89 vhcurveto
          -2 19 0 19 23 vvcurveto
          1 222 103 131 411 18 rrcurveto
          2 131 6 2 hhcurveto
          332 14 121 106 64 292 rrcurveto
          -88 hlineto
          -25 -48 -96 -17 -188 -9 rrcurveto
          -577 -25 -368 -397 -555 vvcurveto
          -332 192 -192 313 376 276 236 332 vhcurveto
          -426 163 rmoveto
          -222 -81 -397 -134 -60 -31 60 128 224 81 395 135 59 31 -58 -130 vhcurveto
          endchar
        </CharString>
        <CharString name="betagreek">
          1331 5 -460 rmoveto
          458 hlineto
          100 593 rlineto
          -90 56 112 -65 143 hhcurveto
          263 202 179 245 37 hvcurveto
          42 269 -137 190 -252 23 202 52 117 99 20 149 rrcurveto
          200 29 -139 150 -320 hhcurveto
          -340 -203 -182 -392 -85 hvcurveto
          468 222 rmoveto
          151 33 33 82 77 hhcurveto
          62 37 -65 -167 -28 hvcurveto
          -24 -160 -56 -83 -116 -9 rrcurveto
          -56 -277 148 -8 75 -84 -20 -186 rlinecurve
          -174 -18 -93 -69 -94 hhcurveto
          -68 -56 36 59 -33 hvcurveto
          49 252 129 619 19 83 rrcurveto
          endchar
        </CharString>
</ttFont>
